<?xml version="1.0" encoding="UTF-8"?>
<!-- Generated by jsxcad -->
<!DOCTYPE svg PUBLIC "-//W3C//DTD SVG 1.1 Tiny//EN" "http://www.w3.org/Graphics/SVG/1.1/DTD/svg11-tiny.dtd">
<svg viewBox="-250 -250 500 500" width="500" height="500" xmlns="http://www.w3.org/2000/svg"><path d="M-129.48347364435782,7.65227837182783L-129.20936561796518,121.62081192243764L-114.03051746113279,-14.971578500645363zM-114.03051746113279,-14.971578500645363L-111.17909625477748,138.43318355616984L-94.74532120196513,-35.92025226000255zM-140.469385570746,31.35512273290328L-141.0718361553565,101.51379405854411L-129.48347364435782,7.65227837182783zM-94.74532120196513,-35.92025226000255L-87.34926949277391,150.95584526980298L-72.28131431095748,-54.67948248014956zM-72.28131431095748,-54.67948248014956L-58.47126666567455,158.30468635382434L-47.302395117808764,-70.80243140731228zM-146.72681407148153,79.13005755066317L-140.469385570746,31.35512273290328L-146.39183690198527,55.445724018047414zM-47.302395117808764,-70.80243140731228L-25.69911673214936,159.80987452735977L-20.4839422978182,-83.89661646610062zM-20.4839422978182,-83.89661646610062L9.443513369564377,155.11801591097264L7.479928991927183,-93.61438960423536zM-140.469385570746,31.35512273290328L-146.72681407148153,79.13005755066317L-141.0718361553565,101.51379405854411zM7.479928991927183,-93.61438960423536L45.15751186120331,144.27165828656203L35.86534446526352,-99.64849110074863zM-165.15723011154978,-5.508398962357041L-172.7953129322379,42.385731710803874L-153.31646460266188,-29.3709993573639zM35.86534446526352,-99.64849110074863L79.51813643985489,127.74413054355549L63.90662578635771,-101.73412561077667zM-129.48347364435782,7.65227837182783L-141.0718361553565,101.51379405854411L-129.20936561796518,121.62081192243764zM-153.31646460266188,-29.3709993573639L-155.9115549915809,84.69770574651469L-136.95012972241122,-52.219956908733096zM-136.95012972241122,-52.219956908733096L-137.80136650295128,101.28664013046836L-116.72279560580684,-73.45930306711873zM63.90662578635771,-101.73412561077667L110.65818238384354,106.41567111808762L90.78614469392029,-99.65862004951578zM-116.72279560580684,-73.45930306711873L-113.58150887572678,113.48130302897691L-93.31111175377153,-92.5747727883258zM-93.31111175377153,-92.5747727883258L-83.99356078181843,120.38884460324542L-67.39690055927059,-109.11818740860821zM-172.7953129322379,42.385731710803874L-165.15723011154978,-5.508398962357041L-171.83929864106582,18.676024459168207zM-114.03051746113279,-14.971578500645363L-129.20936561796518,121.62081192243764L-111.17909625477748,138.43318355616984zM90.78614469392029,-99.65862004951578L136.95036498061077,81.4909187993347L115.62958576136911,-93.2794745373322zM-67.39690055927059,-109.11818740860821L-50.20997703340946,121.33798491278131L-39.669511588052515,-122.69346351153457zM115.62958576136911,-93.2794745373322L157.15314370117426,54.37309258479628L137.5107069073702,-82.551237849077zM-153.31646460266188,-29.3709993573639L-172.7953129322379,42.385731710803874L-167.57486196015753,64.72112726766636zM-39.669511588052515,-122.69346351153457L-13.80457451608456,115.98594051369022L-10.834741349351237,-132.94616458186755zM-94.74532120196513,-35.92025226000255L-111.17909625477748,138.43318355616984L-87.34926949277391,150.95584526980298z" style="fill:rgb(83,212,212)"/><path d="M-30.062710739066713,45.724855573770384L-52.477480978146176,8.27501564074899L-34.10678776838241,40.52747611982004z" style="fill:rgb(21,57,142)"/><path d="M-51.13527973228655,-18.564970571835147L-52.477480978146176,8.27501564074899L-46.642018278445974,-25.55914919422286zM-33.74061140046639,-38.150912562817965L-35.70352956192855,20.198348892365562L-25.803236291850062,-43.319710617628466zM137.5107069073702,-82.551237849077L170.49454454477515,26.52100201346156L155.4703961311524,-67.5602913510596zM-10.834741349351237,-132.94616458186755L23.344074569374122,104.40121816040852L18.37251781935688,-139.55822059184507zM-46.642018278445974,-25.55914919422286L-42.7754492949371,17.44928242675939L-40.770667476503164,-32.163144020441045zM-40.770667476503164,-32.163144020441045L-35.70352956192855,20.198348892365562L-33.74061140046639,-38.150912562817965z" style="fill:rgb(83,212,212)"/><path d="M38.001932745497506,-35.708306310276306L54.84029032336246,4.566924850549568L53.586446540066525,-2.000585966622708z" style="fill:rgb(246,167,149)"/><path d="M-25.803236291850062,-43.319710617628466L-27.48011163014456,21.52413851984298L-17.235056380623917,-47.49406521068071zM-54.070410363534435,-11.425219382315504L-52.477480978146176,8.27501564074899L-51.13527973228655,-18.564970571835147zM-54.78883266109965,2.2560771555834593L-54.070410363534435,-11.425219382315504L-55.314362955238934,-4.397238937855788z" style="fill:rgb(83,212,212)"/><path d="M168.55444371619458,-48.56479149672184L178.19482500757502,-19.154646288710655L170.866867600894,-41.70559192878057z" style="fill:rgb(246,167,149)"/><path d="M-17.235056380623917,-47.49406521068071L-8.921417367542336,19.660983910654657L-8.331098612215326,-50.52931604706812z" style="fill:rgb(83,212,212)"/><path d="M-24.465142649767714,49.844332565940256L-48.431923416339025,13.413256850120213L-30.062710739066713,45.724855573770384z" style="fill:rgb(34,46,160)"/><path d="M-8.331098612215326,-50.52931604706812L-8.921417367542336,19.660983910654657L0.6016536798239773,-52.314967031551966zM18.37251781935688,-139.55822059184507L59.211252881583086,87.09867216651341L47.17456213613299,-142.24927857575133zM-54.070410363534435,-11.425219382315504L-54.78883266109965,2.2560771555834593L-52.477480978146176,8.27501564074899zM-72.28131431095748,-54.67948248014956L-87.34926949277391,150.95584526980298L-58.47126666567455,158.30468635382434zM0.6016536798239773,-52.314967031551966L0.6435365318613537,16.51838011852505L9.251119608994436,-52.77799361679663zM-153.31646460266188,-29.3709993573639L-167.57486196015753,64.72112726766636L-155.9115549915809,84.69770574651469zM-46.642018278445974,-25.55914919422286L-52.477480978146176,8.27501564074899L-48.431923416339025,13.413256850120213z" style="fill:rgb(83,212,212)"/><path d="M54.84029032336246,4.566924850549568L38.518659343404046,-22.037389585880927L54.29198183388532,11.680729720546585z" style="fill:rgb(246,149,167)"/><path d="M9.251119608994436,-52.77799361679663L18.328108995876274,6.439364696766247L17.307642500624624,-51.88612128141822z" style="fill:rgb(83,212,212)"/><path d="M-52.477480978146176,8.27501564074899L-30.062710739066713,45.724855573770384L-48.431923416339025,13.413256850120213z" style="fill:rgb(21,57,142)"/><path d="M-17.50899873516508,52.699238243996845L-42.7754492949371,17.44928242675939L-24.465142649767714,49.844332565940256z" style="fill:rgb(51,38,177)"/><path d="M178.19482500757502,-19.154646288710655L168.55444371619458,-48.56479149672184L175.87359123007766,-26.03469501002298z" style="fill:rgb(246,167,149)"/><path d="M17.307642500624624,-51.88612128141822L25.696406729152173,-0.06467196227290412L24.472462922191923,-49.65095045877316z" style="fill:rgb(83,212,212)"/><path d="M54.84029032336246,4.566924850549568L38.001932745497506,-35.708306310276306L39.18775247373887,-29.162512860172114z" style="fill:rgb(246,167,149)"/><path d="M-46.642018278445974,-25.55914919422286L-48.431923416339025,13.413256850120213L-42.7754492949371,17.44928242675939zM155.4703961311524,-67.5602913510596L170.49454454477515,26.52100201346156L168.55444371619458,-48.56479149672184zM47.17456213613299,-142.24927857575133L91.82299855363084,65.01185579128784L74.7391240118145,-140.78583916395576z" style="fill:rgb(83,212,212)"/><path d="M54.29198183388532,11.680729720546585L35.98547724336111,-14.610491837160122L51.929565696493015,19.06322334582458z" style="fill:rgb(242,130,183)"/><path d="M24.472462922191923,-49.65095045877316L31.65995146875849,-7.18273834732219L30.467333863194018,-46.13061370705286zM-40.770667476503164,-32.163144020441045L-42.7754492949371,17.44928242675939L-35.70352956192855,20.198348892365562z" style="fill:rgb(83,212,212)"/><path d="M-48.431923416339025,13.413256850120213L-24.465142649767714,49.844332565940256L-42.7754492949371,17.44928242675939z" style="fill:rgb(34,46,160)"/><path d="M38.518659343404046,-22.037389585880927L54.84029032336246,4.566924850549568L39.18775247373887,-29.162512860172114z" style="fill:rgb(246,149,167)"/><path d="M-106.94522626317158,144.3407839163992L-129.20936561796518,121.62081192243764L-124.95807697530955,127.49938573267904z" style="fill:rgb(34,46,160)"/><path d="M-27.48011163014456,21.52413851984298L-17.50899873516508,52.699238243996845L-9.454753337268897,54.15028900964305z" style="fill:rgb(71,33,192)"/><path d="M-47.302395117808764,-70.80243140731228L-58.47126666567455,158.30468635382434L-25.69911673214936,159.80987452735977zM-25.803236291850062,-43.319710617628466L-35.70352956192855,20.198348892365562L-27.48011163014456,21.52413851984298z" style="fill:rgb(83,212,212)"/><path d="M51.929565696493015,19.06322334582458L31.65995146875849,-7.18273834732219L47.81943502789531,26.415250164555175z" style="fill:rgb(233,112,197)"/><path d="M30.467333863194018,-46.13061370705286L31.65995146875849,-7.18273834732219L35.045234273761146,-41.43145734514115zM-136.95012972241122,-52.219956908733096L-155.9115549915809,84.69770574651469L-137.80136650295128,101.28664013046836zM35.045234273761146,-41.43145734514115L38.518659343404046,-22.037389585880927L38.001932745497506,-35.708306310276306zM74.7391240118145,-140.78583916395576L119.45377252657927,39.4032042750984L100.17322244471018,-134.99914113888315zM-17.235056380623917,-47.49406521068071L-27.48011163014456,21.52413851984298L-18.429184335965974,21.348910240003075zM168.55444371619458,-48.56479149672184L176.68565601453847,-0.683228163936945L175.87359123007766,-26.03469501002298z" style="fill:rgb(83,212,212)"/><path d="M-18.429184335965974,21.348910240003075L-9.454753337268897,54.15028900964305L-0.6199317471256396,54.11570932245658z" style="fill:rgb(92,32,204)"/><path d="M-42.7754492949371,17.44928242675939L-17.50899873516508,52.699238243996845L-35.70352956192855,20.198348892365562z" style="fill:rgb(51,38,177)"/><path d="M35.98547724336111,-14.610491837160122L54.29198183388532,11.680729720546585L38.518659343404046,-22.037389585880927z" style="fill:rgb(242,130,183)"/><path d="M47.81943502789531,26.415250164555175L25.696406729152173,-0.06467196227290412L42.10795224615948,33.42978112086294z" style="fill:rgb(220,94,208)"/><path d="M-17.235056380623917,-47.49406521068071L-18.429184335965974,21.348910240003075L-8.921417367542336,19.660983910654657zM38.001932745497506,-35.708306310276306L38.518659343404046,-22.037389585880927L39.18775247373887,-29.162512860172114z" style="fill:rgb(83,212,212)"/><path d="M-8.921417367542336,19.660983910654657L-0.6199317471256396,54.11570932245658L8.634030538014876,52.57869332945484z" style="fill:rgb(115,34,214)"/><path d="M42.10795224615948,33.42978112086294L18.328108995876274,6.439364696766247L35.018037779626326,39.807521302769075z" style="fill:rgb(203,77,216)"/><path d="M-17.50899873516508,52.699238243996845L-27.48011163014456,21.52413851984298L-35.70352956192855,20.198348892365562z" style="fill:rgb(71,33,192)"/><path d="M35.045234273761146,-41.43145734514115L35.98547724336111,-14.610491837160122L38.518659343404046,-22.037389585880927z" style="fill:rgb(83,212,212)"/><path d="M-129.20936561796518,121.62081192243764L-106.94522626317158,144.3407839163992L-111.17909625477748,138.43318355616984z" style="fill:rgb(34,46,160)"/><path d="M0.6016536798239773,-52.314967031551966L-8.921417367542336,19.660983910654657L0.6435365318613537,16.51838011852505z" style="fill:rgb(83,212,212)"/><path d="M0.6435365318613537,16.51838011852505L8.634030538014876,52.57869332945484L17.919000008493473,49.59118297108349z" style="fill:rgb(139,40,220)"/><path d="M18.328108995876274,6.439364696766247L26.84028678371433,45.27321086842589L35.018037779626326,39.807521302769075z" style="fill:rgb(183,62,221)"/><path d="M176.68565601453847,-0.683228163936945L178.19482500757502,-19.154646288710655L175.87359123007766,-26.03469501002298z" style="fill:rgb(246,149,167)"/><path d="M-20.4839422978182,-83.89661646610062L-25.69911673214936,159.80987452735977L9.443513369564377,155.11801591097264z" style="fill:rgb(83,212,212)"/><path d="M9.857907650779453,12.04790126056188L17.919000008493473,49.59118297108349L26.84028678371433,45.27321086842589z" style="fill:rgb(162,50,222)"/><path d="M31.65995146875849,-7.18273834732219L51.929565696493015,19.06322334582458L35.98547724336111,-14.610491837160122z" style="fill:rgb(233,112,197)"/><path d="M9.251119608994436,-52.77799361679663L9.857907650779453,12.04790126056188L18.328108995876274,6.439364696766247zM24.472462922191923,-49.65095045877316L25.696406729152173,-0.06467196227290412L31.65995146875849,-7.18273834732219zM9.251119608994436,-52.77799361679663L0.6435365318613537,16.51838011852505L9.857907650779453,12.04790126056188zM17.307642500624624,-51.88612128141822L18.328108995876274,6.439364696766247L25.696406729152173,-0.06467196227290412zM35.045234273761146,-41.43145734514115L31.65995146875849,-7.18273834732219L35.98547724336111,-14.610491837160122z" style="fill:rgb(83,212,212)"/><path d="M-9.454753337268897,54.15028900964305L-18.429184335965974,21.348910240003075L-27.48011163014456,21.52413851984298z" style="fill:rgb(92,32,204)"/><path d="M25.696406729152173,-0.06467196227290412L47.81943502789531,26.415250164555175L31.65995146875849,-7.18273834732219z" style="fill:rgb(220,94,208)"/><path d="M-116.72279560580684,-73.45930306711873L-137.80136650295128,101.28664013046836L-113.58150887572678,113.48130302897691z" style="fill:rgb(83,212,212)"/><path d="M178.19482500757502,-19.154646288710655L176.68565601453847,-0.683228163936945L179.05528191938123,6.188960882121276z" style="fill:rgb(246,149,167)"/><path d="M100.17322244471018,-134.99914113888315L119.45377252657927,39.4032042750984L122.52690868527328,-124.81253506591058z" style="fill:rgb(83,212,212)"/><path d="M-0.6199317471256396,54.11570932245658L-8.921417367542336,19.660983910654657L-18.429184335965974,21.348910240003075z" style="fill:rgb(115,34,214)"/><path d="M7.479928991927183,-93.61438960423536L9.443513369564377,155.11801591097264L45.15751186120331,144.27165828656203zM137.5107069073702,-82.551237849077L157.15314370117426,54.37309258479628L170.49454454477515,26.52100201346156z" style="fill:rgb(83,212,212)"/><path d="M18.328108995876274,6.439364696766247L42.10795224615948,33.42978112086294L25.696406729152173,-0.06467196227290412z" style="fill:rgb(203,77,216)"/><path d="M168.55444371619458,-48.56479149672184L170.49454454477515,26.52100201346156L176.68565601453847,-0.683228163936945zM122.52690868527328,-124.81253506591058L154.99645492526042,-16.510681859478968L140.8119523574786,-110.27751464932179z" style="fill:rgb(83,212,212)"/><path d="M8.634030538014876,52.57869332945484L0.6435365318613537,16.51838011852505L-8.921417367542336,19.660983910654657z" style="fill:rgb(139,40,220)"/><path d="M26.84028678371433,45.27321086842589L18.328108995876274,6.439364696766247L9.857907650779453,12.04790126056188z" style="fill:rgb(183,62,221)"/><path d="M17.919000008493473,49.59118297108349L9.857907650779453,12.04790126056188L0.6435365318613537,16.51838011852505z" style="fill:rgb(162,50,222)"/><path d="M-83.1818134542325,156.9093331839551L-111.17909625477748,138.43318355616984L-106.94522626317158,144.3407839163992z" style="fill:rgb(51,38,177)"/><path d="M115.62958576136911,-93.2794745373322L136.95036498061077,81.4909187993347L157.15314370117426,54.37309258479628zM35.86534446526352,-99.64849110074863L45.15751186120331,144.27165828656203L79.51813643985489,127.74413054355549z" style="fill:rgb(83,212,212)"/><path d="M154.04062549181353,-91.6162301611648L163.8005778458895,-61.81861444537503L156.53868528140598,-84.20639036253681z" style="fill:rgb(246,167,149)"/><path d="M90.78614469392029,-99.65862004951578L110.65818238384354,106.41567111808762L136.95036498061077,81.4909187993347zM63.90662578635771,-101.73412561077667L79.51813643985489,127.74413054355549L110.65818238384354,106.41567111808762zM140.8119523574786,-110.27751464932179L161.77989932389133,-43.911645064839526L154.04062549181353,-91.6162301611648zM-93.31111175377153,-92.5747727883258L-113.58150887572678,113.48130302897691L-83.99356078181843,120.38884460324542z" style="fill:rgb(83,212,212)"/><path d="M-111.17909625477748,138.43318355616984L-83.1818134542325,156.9093331839551L-87.34926949277391,150.95584526980298z" style="fill:rgb(51,38,177)"/><path d="M170.49454454477515,26.52100201346156L179.05528191938123,6.188960882121276L176.68565601453847,-0.683228163936945z" style="fill:rgb(242,130,183)"/><path d="M163.8005778458895,-61.81861444537503L154.04062549181353,-91.6162301611648L161.28819939980582,-69.26520847560266z" style="fill:rgb(246,167,149)"/><path d="M179.05528191938123,6.188960882121276L170.49454454477515,26.52100201346156L172.955820284038,33.35493579569977z" style="fill:rgb(242,130,183)"/><path d="M-133.2132711362673,107.68849925704643L-155.9115549915809,84.69770574651469L-151.31332334196523,91.05602315055525z" style="fill:rgb(34,46,160)"/><path d="M-67.39690055927059,-109.11818740860821L-83.99356078181843,120.38884460324542L-50.20997703340946,121.33798491278131zM154.04062549181353,-91.6162301611648L161.77989932389133,-43.911645064839526L161.28819939980582,-69.26520847560266z" style="fill:rgb(83,212,212)"/><path d="M-83.1818134542325,156.9093331839551L-58.47126666567455,158.30468635382434L-87.34926949277391,150.95584526980298z" style="fill:rgb(71,33,192)"/><path d="M-155.9115549915809,84.69770574651469L-133.2132711362673,107.68849925704643L-137.80136650295128,101.28664013046836z" style="fill:rgb(34,46,160)"/><path d="M-58.47126666567455,158.30468635382434L-83.1818134542325,156.9093331839551L-54.42043173385822,164.3225955477394z" style="fill:rgb(71,33,192)"/><path d="M161.77989932389133,-43.911645064839526L163.8005778458895,-61.81861444537503L161.28819939980582,-69.26520847560266z" style="fill:rgb(246,149,167)"/><path d="M-39.669511588052515,-122.69346351153457L-50.20997703340946,121.33798491278131L-13.80457451608456,115.98594051369022zM140.8119523574786,-110.27751464932179L154.99645492526042,-16.510681859478968L161.77989932389133,-43.911645064839526z" style="fill:rgb(83,212,212)"/><path d="M157.15314370117426,54.37309258479628L172.955820284038,33.35493579569977L170.49454454477515,26.52100201346156z" style="fill:rgb(233,112,197)"/><path d="M163.8005778458895,-61.81861444537503L161.77989932389133,-43.911645064839526L164.34947089635043,-36.45959055358986z" style="fill:rgb(246,149,167)"/><path d="M172.955820284038,33.35493579569977L157.15314370117426,54.37309258479628L159.75026375058096,61.139394743208086z" style="fill:rgb(233,112,197)"/><path d="M122.52690868527328,-124.81253506591058L140.78508090317098,11.729220511603906L154.99645492526042,-16.510681859478968zM-10.834741349351237,-132.94616458186755L-13.80457451608456,115.98594051369022L23.344074569374122,104.40121816040852z" style="fill:rgb(83,212,212)"/><path d="M-109.05722770742899,119.94454710340126L-137.80136650295128,101.28664013046836L-133.2132711362673,107.68849925704643z" style="fill:rgb(51,38,177)"/><path d="M-54.42043173385822,164.3225955477394L-25.69911673214936,159.80987452735977L-58.47126666567455,158.30468635382434z" style="fill:rgb(92,32,204)"/><path d="M18.37251781935688,-139.55822059184507L23.344074569374122,104.40121816040852L59.211252881583086,87.09867216651341zM74.7391240118145,-140.78583916395576L91.82299855363084,65.01185579128784L119.45377252657927,39.4032042750984zM47.17456213613299,-142.24927857575133L59.211252881583086,87.09867216651341L91.82299855363084,65.01185579128784z" style="fill:rgb(83,212,212)"/><path d="M-25.69911673214936,159.80987452735977L-54.42043173385822,164.3225955477394L-21.811851637515925,165.9112665415417z" style="fill:rgb(92,32,204)"/><path d="M136.95036498061077,81.4909187993347L159.75026375058096,61.139394743208086L157.15314370117426,54.37309258479628z" style="fill:rgb(220,94,208)"/><path d="M122.52690868527328,-124.81253506591058L119.45377252657927,39.4032042750984L140.78508090317098,11.729220511603906z" style="fill:rgb(83,212,212)"/><path d="M159.75026375058096,61.139394743208086L136.95036498061077,81.4909187993347L139.7245720715038,88.16421964839213z" style="fill:rgb(220,94,208)"/><path d="M-137.80136650295128,101.28664013046836L-109.05722770742899,119.94454710340126L-113.58150887572678,113.48130302897691z" style="fill:rgb(51,38,177)"/><path d="M154.99645492526042,-16.510681859478968L164.34947089635043,-36.45959055358986L161.77989932389133,-43.911645064839526z" style="fill:rgb(242,130,183)"/><path d="M-21.811851637515925,165.9112665415417L9.443513369564377,155.11801591097264L-25.69911673214936,159.80987452735977z" style="fill:rgb(115,34,214)"/><path d="M164.34947089635043,-36.45959055358986L154.99645492526042,-16.510681859478968L157.6700841136867,-9.087131548358451z" style="fill:rgb(242,130,183)"/><path d="M9.443513369564377,155.11801591097264L-21.811851637515925,165.9112665415417L13.128406704323488,161.32057096981904z" style="fill:rgb(115,34,214)"/><path d="M110.65818238384354,106.41567111808762L139.7245720715038,88.16421964839213L136.95036498061077,81.4909187993347zM139.7245720715038,88.16421964839213L110.65818238384354,106.41567111808762L113.64318539455293,112.97735645695492z" style="fill:rgb(203,77,216)"/><path d="M45.15751186120331,144.27165828656203L13.128406704323488,161.32057096981904L48.613898594332866,150.58921892145932z" style="fill:rgb(139,40,220)"/><path d="M110.65818238384354,106.41567111808762L82.73564820866882,134.18417714067849L113.64318539455293,112.97735645695492z" style="fill:rgb(183,62,221)"/><path d="M-109.05722770742899,119.94454710340126L-83.99356078181843,120.38884460324542L-113.58150887572678,113.48130302897691z" style="fill:rgb(71,33,192)"/><path d="M13.128406704323488,161.32057096981904L45.15751186120331,144.27165828656203L9.443513369564377,155.11801591097264z" style="fill:rgb(139,40,220)"/><path d="M79.51813643985489,127.74413054355549L48.613898594332866,150.58921892145932L82.73564820866882,134.18417714067849z" style="fill:rgb(162,50,222)"/><path d="M82.73564820866882,134.18417714067849L110.65818238384354,106.41567111808762L79.51813643985489,127.74413054355549z" style="fill:rgb(183,62,221)"/><path d="M-83.99356078181843,120.38884460324542L-109.05722770742899,119.94454710340126L-79.58875497883491,126.93261188993219z" style="fill:rgb(71,33,192)"/><path d="M48.613898594332866,150.58921892145932L79.51813643985489,127.74413054355549L45.15751186120331,144.27165828656203z" style="fill:rgb(162,50,222)"/><path d="M140.78508090317098,11.729220511603906L157.6700841136867,-9.087131548358451L154.99645492526042,-16.510681859478968zM157.6700841136867,-9.087131548358451L140.78508090317098,11.729220511603906L143.61059442164932,19.090557054188082z" style="fill:rgb(233,112,197)"/><path d="M-79.58875497883491,126.93261188993219L-50.20997703340946,121.33798491278131L-83.99356078181843,120.38884460324542zM-50.20997703340946,121.33798491278131L-79.58875497883491,126.93261188993219L-45.97736904937606,127.9814262175249z" style="fill:rgb(92,32,204)"/><path d="M119.45377252657927,39.4032042750984L143.61059442164932,19.090557054188082L140.78508090317098,11.729220511603906zM143.61059442164932,19.090557054188082L119.45377252657927,39.4032042750984L122.47562991363435,46.67222851266516z" style="fill:rgb(220,94,208)"/><path d="M-45.97736904937606,127.9814262175249L-13.80457451608456,115.98594051369022L-50.20997703340946,121.33798491278131zM-13.80457451608456,115.98594051369022L-45.97736904937606,127.9814262175249L-9.78839042889987,122.74613694503563z" style="fill:rgb(115,34,214)"/><path d="M91.82299855363084,65.01185579128784L122.47562991363435,46.67222851266516L119.45377252657927,39.4032042750984zM122.47562991363435,46.67222851266516L91.82299855363084,65.01185579128784L95.07717939763575,72.16524038396585z" style="fill:rgb(203,77,216)"/><path d="M23.344074569374122,104.40121816040852L-9.78839042889987,122.74613694503563L27.113283468818327,111.29054793331942z" style="fill:rgb(139,40,220)"/><path d="M91.82299855363084,65.01185579128784L62.720261165453884,94.1221667856433L95.07717939763575,72.16524038396585z" style="fill:rgb(183,62,221)"/><path d="M-9.78839042889987,122.74613694503563L23.344074569374122,104.40121816040852L-13.80457451608456,115.98594051369022z" style="fill:rgb(139,40,220)"/><path d="M59.211252881583086,87.09867216651341L27.113283468818327,111.29054793331942L62.720261165453884,94.1221667856433z" style="fill:rgb(162,50,222)"/><path d="M62.720261165453884,94.1221667856433L91.82299855363084,65.01185579128784L59.211252881583086,87.09867216651341z" style="fill:rgb(183,62,221)"/><path d="M27.113283468818327,111.29054793331942L59.211252881583086,87.09867216651341L23.344074569374122,104.40121816040852z" style="fill:rgb(162,50,222)"/></svg>
