solid JSxCAD
facet normal -0.09554006170525348 -0.7759717206777895 -0.6234901645717492
outer loop
vertex 150 -32.32483 15.75242
vertex 150.1715 -30.98312 14.0563
vertex 150.00666 -32.32565 15.75242
endloop
endfacet
facet normal -0.09529222211096958 -0.7760026634394583 -0.623489581901751
outer loop
vertex 150.1715 -30.98312 14.0563
vertex 150 -32.32483 15.75242
vertex 150 -30.96206 14.0563
endloop
endfacet
facet normal -0.11877884276757845 -0.967665380666836 0.22252033068846136
outer loop
vertex 150.1715 -30.98312 14.0563
vertex 150 -31.44843 11.94128
vertex 150.11267 -31.46226 11.94128
endloop
endfacet
facet normal -0.11882737798959388 -0.9676588473512563 0.2225228289029154
outer loop
vertex 150 -31.44843 11.94128
vertex 150.1715 -30.98312 14.0563
vertex 150 -30.96206 14.0563
endloop
endfacet
facet normal -0.052862447168315944 -0.43065885194883374 0.9009653239262259
outer loop
vertex 150.11267 -31.46226 11.94128
vertex 150 -31.44843 11.94128
vertex 150 -32.3799 11.49604
endloop
endfacet
facet normal -0.9925485025966099 0.12185019405165719 -0.000014240824828283705
outer loop
vertex 150.1715 -30.98312 14.0563
vertex 150 -32.3799 15.75242
vertex 150.00666 -32.32565 15.75242
endloop
endfacet
facet normal -0.9925464089119417 0.12186724808581022 1.5124429002721935e-8
outer loop
vertex 150.11267 -31.46226 11.94128
vertex 150 -32.3799 15.75242
vertex 150.1715 -30.98312 14.0563
endloop
endfacet
facet normal -0.9925464165099471 0.1218671862039266 0
outer loop
vertex 150 -32.3799 15.75242
vertex 150.11267 -31.46226 11.94128
vertex 150 -32.3799 11.49604
endloop
endfacet
facet normal 0 -0.7818316092765912 0.6234896428457939
outer loop
vertex 150 -34.08471 15.75242
vertex 301 -35.43732 14.0563
vertex 301 -34.08471 15.75242
endloop
endfacet
facet normal 0 -0.7818316092765912 0.6234896428457939
outer loop
vertex 301 -35.43732 14.0563
vertex 150 -34.08471 15.75242
vertex 150 -35.43732 14.0563
endloop
endfacet
facet normal 0 0 1
outer loop
vertex 301 -31.91529 15.75242
vertex 150.00666 -32.32565 15.75242
vertex 301 -32.32565 15.75242
endloop
endfacet
facet normal 2.1384601387626752e-15 0 1
outer loop
vertex 301 -31.91529 15.75242
vertex 150 -32.32483 15.75242
vertex 150.00666 -32.32565 15.75242
endloop
endfacet
facet normal 0 0 0.9999999999999999
outer loop
vertex 150 -32.32483 15.75242
vertex 301 -31.91529 15.75242
vertex 150 -31.91529 15.75242
endloop
endfacet
facet normal 0 0 1
outer loop
vertex 150.00666 -32.32565 15.75242
vertex 301 -34.08471 15.75242
vertex 301 -32.32565 15.75242
endloop
endfacet
facet normal 0 0 1
outer loop
vertex 150.00666 -32.32565 15.75242
vertex 150 -34.08471 15.75242
vertex 301 -34.08471 15.75242
endloop
endfacet
facet normal -3.324596424710067e-13 0 1
outer loop
vertex 150 -34.08471 15.75242
vertex 150.00666 -32.32565 15.75242
vertex 150 -32.3799 15.75242
endloop
endfacet
facet normal 0 0.7818316092765912 0.6234896428457939
outer loop
vertex 150 -30.56268 14.0563
vertex 301 -31.91529 15.75242
vertex 301 -30.56268 14.0563
endloop
endfacet
facet normal 0 0.7818316092765912 0.6234896428457939
outer loop
vertex 301 -31.91529 15.75242
vertex 150 -30.56268 14.0563
vertex 150 -31.91529 15.75242
endloop
endfacet
facet normal 0 0.974927863502111 -0.22252114723596286
outer loop
vertex 150 -31.04542 11.94128
vertex 301 -30.56268 14.0563
vertex 301 -31.04542 11.94128
endloop
endfacet
facet normal 0 0.974927863502111 -0.22252114723596286
outer loop
vertex 301 -30.56268 14.0563
vertex 150 -31.04542 11.94128
vertex 150 -30.56268 14.0563
endloop
endfacet
facet normal 0 0.43388519150656085 -0.9009681684672964
outer loop
vertex 301 -33 11
vertex 150 -31.04542 11.94128
vertex 301 -31.04542 11.94128
endloop
endfacet
facet normal 0 0.4338851915065631 -0.9009681684672955
outer loop
vertex 150 -33 11
vertex 150 -31.04542 11.94128
vertex 301 -33 11
endloop
endfacet
facet normal 1 0 0
outer loop
vertex 150 -31.04542 11.94128
vertex 150 -33 11
vertex 150 -31.96995 11.49604
endloop
endfacet
facet normal 0 -0.43388519150656085 -0.9009681684672964
outer loop
vertex 150 -34.95458 11.94128
vertex 301 -33 11
vertex 301 -34.95458 11.94128
endloop
endfacet
facet normal 1.0068317342817994e-7 -0.4338915054189973 -0.9009651278075228
outer loop
vertex 150 -34.03005 11.49604
vertex 301 -33 11
vertex 150 -34.95458 11.94128
endloop
endfacet
facet normal 0 -0.43387952434716376 -0.9009708976167203
outer loop
vertex 301 -33 11
vertex 150 -34.03005 11.49604
vertex 150 -33 11
endloop
endfacet
facet normal 0 -0.9749278635021099 -0.22252114723596816
outer loop
vertex 150 -35.43732 14.0563
vertex 301 -34.95458 11.94128
vertex 301 -35.43732 14.0563
endloop
endfacet
facet normal 0 -0.9749278635021124 -0.22252114723595762
outer loop
vertex 301 -34.95458 11.94128
vertex 150 -35.43732 14.0563
vertex 150 -34.95458 11.94128
endloop
endfacet
facet normal 1 0 0
outer loop
vertex 301 -31.91529 15.75242
vertex 301 -31.04542 11.94128
vertex 301 -30.56268 14.0563
endloop
endfacet
facet normal 1 0 0
outer loop
vertex 301 -32.32565 15.75242
vertex 301 -31.04542 11.94128
vertex 301 -31.91529 15.75242
endloop
endfacet
facet normal 1 0 0
outer loop
vertex 301 -32.32565 15.75242
vertex 301 -33 11
vertex 301 -31.04542 11.94128
endloop
endfacet
facet normal 1 0 0
outer loop
vertex 301 -34.08471 15.75242
vertex 301 -33 11
vertex 301 -32.32565 15.75242
endloop
endfacet
facet normal 1 0 0
outer loop
vertex 301 -34.08471 15.75242
vertex 301 -34.95458 11.94128
vertex 301 -33 11
endloop
endfacet
facet normal 1 3.089667044742729e-14 0
outer loop
vertex 301 -34.95458 11.94128
vertex 301 -34.08471 15.75242
vertex 301 -35.43732 14.0563
endloop
endfacet
facet normal -1 0 0
outer loop
vertex 150 -31.04542 11.94128
vertex 150 -30.96206 14.0563
vertex 150 -30.56268 14.0563
endloop
endfacet
facet normal -1 0 0
outer loop
vertex 150 -30.96206 14.0563
vertex 150 -31.04542 11.94128
vertex 150 -31.44843 11.94128
endloop
endfacet
facet normal -0.9999999999999999 0 0
outer loop
vertex 150 -31.96995 11.49604
vertex 150 -31.44843 11.94128
vertex 150 -31.04542 11.94128
endloop
endfacet
facet normal -1 0 0
outer loop
vertex 150 -31.44843 11.94128
vertex 150 -31.96995 11.49604
vertex 150 -32.3799 11.49604
endloop
endfacet
facet normal -1 0 0
outer loop
vertex 150 -31.91529 15.75242
vertex 150 -30.96206 14.0563
vertex 150 -32.32483 15.75242
endloop
endfacet
facet normal -0.9999999999999999 0 0
outer loop
vertex 150 -30.96206 14.0563
vertex 150 -31.91529 15.75242
vertex 150 -30.56268 14.0563
endloop
endfacet
facet normal -1 0 0
outer loop
vertex 150 -31.96995 11.49604
vertex 150 -33 11
vertex 150 -32.3799 11.49604
endloop
endfacet
facet normal -1 0 0
outer loop
vertex 150 -32.3799 15.75242
vertex 150 -35.43732 14.0563
vertex 150 -34.08471 15.75242
endloop
endfacet
facet normal -0.9999999999999999 1.5604985774924775e-14 0
outer loop
vertex 150 -32.3799 15.75242
vertex 150 -34.95458 11.94128
vertex 150 -35.43732 14.0563
endloop
endfacet
facet normal -1 -3.043098334804769e-14 0
outer loop
vertex 150 -32.3799 15.75242
vertex 150 -34.03005 11.49604
vertex 150 -34.95458 11.94128
endloop
endfacet
facet normal -1 0 0
outer loop
vertex 150 -34.03005 11.49604
vertex 150 -32.3799 15.75242
vertex 150 -32.3799 11.49604
endloop
endfacet
facet normal -0.9999999999999999 0 0
outer loop
vertex 150 -34.03005 11.49604
vertex 150 -32.3799 11.49604
vertex 150 -33 11
endloop
endfacet
facet normal -0.09528121367316109 -0.7760032539584388 0.6234905293321498
outer loop
vertex -0.13219 -16.07662 15.75242
vertex 149.57743 -35.82142 14.0563
vertex 149.74228 -34.47889 15.75242
endloop
endfacet
facet normal -0.09528125330857784 -0.7760035249861211 0.6234901859508786
outer loop
vertex 149.57743 -35.82142 14.0563
vertex -0.13219 -16.07662 15.75242
vertex -0.29703 -17.41915 14.0563
endloop
endfacet
facet normal 0 0 1
outer loop
vertex -0.13219 -16.07662 15.75242
vertex 150 -32.32483 15.75242
vertex 0.13219 -13.92338 15.75242
endloop
endfacet
facet normal 1.0551366232451894e-12 0 1
outer loop
vertex -0.13219 -16.07662 15.75242
vertex 150.00666 -32.32565 15.75242
vertex 150 -32.32483 15.75242
endloop
endfacet
facet normal 7.344763418188732e-15 0 1
outer loop
vertex -0.13219 -16.07662 15.75242
vertex 150 -32.3799 15.75242
vertex 150.00666 -32.32565 15.75242
endloop
endfacet
facet normal 0 0 1
outer loop
vertex 150 -32.3799 15.75242
vertex -0.13219 -16.07662 15.75242
vertex 149.74228 -34.47889 15.75242
endloop
endfacet
facet normal 0.09529216340260183 0.7760021853535959 0.6234901859055164
outer loop
vertex 150 -30.96206 14.0563
vertex 150.00666 -32.32565 15.75242
vertex 150.1715 -30.98312 14.0563
endloop
endfacet
facet normal 0.09554157736792106 0.7759840308207858 0.6234746112755316
outer loop
vertex 150 -30.96206 14.0563
vertex 150 -32.32483 15.75242
vertex 150.00666 -32.32565 15.75242
endloop
endfacet
facet normal 0.09528122919174366 0.7760034837344618 0.6234902409787095
outer loop
vertex 0.29703 -12.58085 14.0563
vertex 150 -32.32483 15.75242
vertex 150 -30.96206 14.0563
endloop
endfacet
facet normal 0.09528123554347202 0.7760035271673907 0.6234901859508921
outer loop
vertex 150 -32.32483 15.75242
vertex 0.29703 -12.58085 14.0563
vertex 0.13219 -13.92338 15.75242
endloop
endfacet
facet normal 0.11882744748510556 0.9676594132812962 -0.2225203307841151
outer loop
vertex 150.11267 -31.46226 11.94128
vertex 150 -30.96206 14.0563
vertex 150.1715 -30.98312 14.0563
endloop
endfacet
facet normal 0.11877873702771774 0.9676645192267573 -0.22252413320749984
outer loop
vertex 150 -31.44843 11.94128
vertex 150 -30.96206 14.0563
vertex 150.11267 -31.46226 11.94128
endloop
endfacet
facet normal 0.11881373975264053 0.96766043790247 -0.22252319466606496
outer loop
vertex 150 -31.44843 11.94128
vertex 0.29703 -12.58085 14.0563
vertex 150 -30.96206 14.0563
endloop
endfacet
facet normal 0.11881386133357764 0.9676610815418274 -0.22252033081115605
outer loop
vertex 0.29703 -12.58085 14.0563
vertex 150 -31.44843 11.94128
vertex 0.2382 -13.05999 11.94128
endloop
endfacet
facet normal 0.05286244716832736 0.4306588519488336 -0.9009653239262255
outer loop
vertex 150 -32.3799 11.49604
vertex 150 -31.44843 11.94128
vertex 150.11267 -31.46226 11.94128
endloop
endfacet
facet normal 0.05275381906511264 0.43066132931666024 -0.900970506734406
outer loop
vertex 149.87447 -33.40227 11
vertex 150 -31.44843 11.94128
vertex 150 -32.3799 11.49604
endloop
endfacet
facet normal 0.052877430259630896 0.43065203655431417 -0.9009677024071171
outer loop
vertex 149.87447 -33.40227 11
vertex 0.2382 -13.05999 11.94128
vertex 150 -31.44843 11.94128
endloop
endfacet
facet normal 0.052877328331361724 0.4306513032728486 -0.9009680588888457
outer loop
vertex 0.2382 -13.05999 11.94128
vertex 149.87447 -33.40227 11
vertex 0 -15 11
endloop
endfacet
facet normal -0.05287732833136199 -0.43065130327285084 -0.9009680588888446
outer loop
vertex 149.63627 -35.34228 11.94128
vertex 0 -15 11
vertex 149.87447 -33.40227 11
endloop
endfacet
facet normal -0.0528773283313619 -0.4306513032728486 -0.9009680588888457
outer loop
vertex 0 -15 11
vertex 149.63627 -35.34228 11.94128
vertex -0.2382 -16.94001 11.94128
endloop
endfacet
facet normal -0.11881382015594379 -0.9676609638130184 -0.2225208647574685
outer loop
vertex 149.57743 -35.82142 14.0563
vertex -0.2382 -16.94001 11.94128
vertex 149.63627 -35.34228 11.94128
endloop
endfacet
facet normal -0.11881384281792334 -0.9676610838152624 -0.22252033081116365
outer loop
vertex -0.2382 -16.94001 11.94128
vertex 149.57743 -35.82142 14.0563
vertex -0.29703 -17.41915 14.0563
endloop
endfacet
facet normal 0.9925464096601289 -0.12186724182439626 -0.000006395459027351522
outer loop
vertex 149.57743 -35.82142 14.0563
vertex 150.00666 -32.32565 15.75242
vertex 149.74228 -34.47889 15.75242
endloop
endfacet
facet normal 0.9925461154365888 -0.12186963826084135 -0.000001381851380226475
outer loop
vertex 149.57743 -35.82142 14.0563
vertex 150.1715 -30.98312 14.0563
vertex 150.00666 -32.32565 15.75242
endloop
endfacet
facet normal 0.992546115428955 -0.12186963825990425 0.00000415833230503092
outer loop
vertex 149.63627 -35.34228 11.94128
vertex 150.1715 -30.98312 14.0563
vertex 149.57743 -35.82142 14.0563
endloop
endfacet
facet normal 0.9925463543781224 -0.12186769223502694 8.701072593184701e-8
outer loop
vertex 149.63627 -35.34228 11.94128
vertex 150.11267 -31.46226 11.94128
vertex 150.1715 -30.98312 14.0563
endloop
endfacet
facet normal 0.9925463543775691 -0.12186769223496607 0.0000010586532189865287
outer loop
vertex 149.63627 -35.34228 11.94128
vertex 150 -32.3799 11.49604
vertex 150.11267 -31.46226 11.94128
endloop
endfacet
facet normal 0.9925463264941687 -0.12186791933361892 -4.7511425465176114e-7
outer loop
vertex 150 -32.3799 11.49604
vertex 149.63627 -35.34228 11.94128
vertex 149.87447 -33.40227 11
endloop
endfacet
facet normal -0.9925464096802817 0.1218672418268626 -5.435947220615965e-7
outer loop
vertex 0.29703 -12.58085 14.0563
vertex -0.13219 -16.07662 15.75242
vertex 0.13219 -13.92338 15.75242
endloop
endfacet
facet normal -0.9925463635797053 0.12186761729288403 2.419217173317971e-7
outer loop
vertex 0.29703 -12.58085 14.0563
vertex -0.29703 -17.41915 14.0563
vertex -0.13219 -16.07662 15.75242
endloop
endfacet
facet normal -0.992546363579732 0.12186761729288685 6.977726847948019e-8
outer loop
vertex 0.29703 -12.58085 14.0563
vertex -0.2382 -16.94001 11.94128
vertex -0.29703 -17.41915 14.0563
endloop
endfacet
facet normal -0.9925463543781228 0.12186769223502429 -8.701072571699863e-8
outer loop
vertex 0.2382 -13.05999 11.94128
vertex -0.2382 -16.94001 11.94128
vertex 0.29703 -12.58085 14.0563
endloop
endfacet
facet normal -0.9925463543781264 0.12186769223502404 0
outer loop
vertex -0.2382 -16.94001 11.94128
vertex 0.2382 -13.05999 11.94128
vertex 0 -15 11
endloop
endfacet
facet normal -0.12053682697620367 -0.9927088562829027 0
outer loop
vertex -2.50032 -12.24738 2
vertex -0.50332 -12.48986 25
vertex -2.50032 -12.24738 25
endloop
endfacet
facet normal -0.12053682697620367 -0.9927088562829027 0
outer loop
vertex -0.50332 -12.48986 25
vertex -2.50032 -12.24738 2
vertex -0.50332 -12.48986 2
endloop
endfacet
facet normal -0.2782173990944945 -0.960518130407279 0
outer loop
vertex -4.43256 -11.6877 2
vertex -2.50032 -12.24738 25
vertex -4.43256 -11.6877 25
endloop
endfacet
facet normal -0.2782173990944946 -0.960518130407279 0
outer loop
vertex -2.50032 -12.24738 25
vertex -4.43256 -11.6877 2
vertex -2.50032 -12.24738 2
endloop
endfacet
facet normal -0.428690125899415 -0.903451590267206 0
outer loop
vertex -6.25 -10.82532 2
vertex -4.43256 -11.6877 25
vertex -6.25 -10.82532 25
endloop
endfacet
facet normal -0.4286901258994152 -0.9034515902672061 0
outer loop
vertex -4.43256 -11.6877 25
vertex -6.25 -10.82532 2
vertex -4.43256 -11.6877 2
endloop
endfacet
facet normal -0.5680656016960344 -0.822983275753355 0
outer loop
vertex -7.90557 -9.68256 2
vertex -6.25 -10.82532 25
vertex -7.90557 -9.68256 25
endloop
endfacet
facet normal -0.5680656016960338 -0.8229832757533554 0
outer loop
vertex -6.25 -10.82532 25
vertex -7.90557 -9.68256 2
vertex -6.25 -10.82532 2
endloop
endfacet
facet normal -0.6927264425982472 -0.7212004407411141 0
outer loop
vertex -9.35638 -8.28903 2
vertex -7.90557 -9.68256 25
vertex -9.35638 -8.28903 25
endloop
endfacet
facet normal -0.6927264425982486 -0.7212004407411129 0
outer loop
vertex -7.90557 -9.68256 25
vertex -9.35638 -8.28903 2
vertex -7.90557 -9.68256 2
endloop
endfacet
facet normal -0.7994407139682239 -0.6007449915313289 0
outer loop
vertex -10.56488 -6.68082 2
vertex -9.35638 -8.28903 25
vertex -10.56488 -6.68082 25
endloop
endfacet
facet normal -0.7994407139682239 -0.600744991531329 0
outer loop
vertex -9.35638 -8.28903 25
vertex -10.56488 -6.68082 2
vertex -9.35638 -8.28903 2
endloop
endfacet
facet normal -0.8854574308719668 -0.46472049461328463 0
outer loop
vertex -11.49974 -4.89958 2
vertex -10.56488 -6.68082 25
vertex -11.49974 -4.89958 25
endloop
endfacet
facet normal -0.8854574308719675 -0.46472049461328374 0
outer loop
vertex -10.56488 -6.68082 25
vertex -11.49974 -4.89958 2
vertex -10.56488 -6.68082 2
endloop
endfacet
facet normal -0.9485387056554571 -0.3166612130865891 0
outer loop
vertex -12.13677 -2.99145 2
vertex -11.97898 -3.4641 25
vertex -12.13677 -2.99145 25
endloop
endfacet
facet normal -0.9485351796123466 -0.31667177493062976 -2.4123608390088803e-7
outer loop
vertex -12.13677 -2.99145 2
vertex -11.49974 -4.89958 25
vertex -11.97898 -3.4641 25
endloop
endfacet
facet normal -0.9485387056552025 -0.316661213086504 7.326581212305933e-7
outer loop
vertex -11.97898 -3.4641 2
vertex -11.49974 -4.89958 25
vertex -12.13677 -2.99145 2
endloop
endfacet
facet normal -0.9485362867166697 -0.3166684587730504 2.3003680672465534e-7
outer loop
vertex -11.80007 -4 2
vertex -11.49974 -4.89958 25
vertex -11.97898 -3.4641 2
endloop
endfacet
facet normal -0.9485345200811958 -0.31667375043463236 0
outer loop
vertex -11.49974 -4.89958 25
vertex -11.80007 -4 2
vertex -11.49974 -4.89958 2
endloop
endfacet
facet normal 0 1 0
outer loop
vertex 0 -4 2
vertex 11.83896 -4 25
vertex 11.83896 -4 2
endloop
endfacet
facet normal 0 1 0
outer loop
vertex 0 -4 2
vertex 0 -4 25
vertex 11.83896 -4 25
endloop
endfacet
facet normal 0 1 0
outer loop
vertex -11.80007 -4 2
vertex 0 -4 25
vertex 0 -4 2
endloop
endfacet
facet normal 0 1 0
outer loop
vertex 0 -4 25
vertex -11.80007 -4 2
vertex -11.80007 -4 25
endloop
endfacet
facet normal 0.9199794276936117 -0.39196664733180375 0
outer loop
vertex 11.0682 -5.80904 25
vertex 11.0682 -5.80904 2
vertex 11.83896 -4 25
endloop
endfacet
facet normal 0.9199428543448815 -0.39205247694175877 0.000007976455293843267
outer loop
vertex 11.0682 -5.80904 2
vertex 11.85671 -3.95835 25
vertex 11.83896 -4 25
endloop
endfacet
facet normal 0.9199794276935959 -0.3919666473317982 -1.8365131270797063e-7
outer loop
vertex 11.83896 -4 2
vertex 11.85671 -3.95835 25
vertex 11.0682 -5.80904 2
endloop
endfacet
facet normal 0.9199428543741862 -0.3920524769541378 0
outer loop
vertex 11.85671 -3.95835 25
vertex 11.83896 -4 2
vertex 11.85671 -3.95835 2
endloop
endfacet
facet normal 0.8451893288622832 -0.5344670227220042 0
outer loop
vertex 9.99303 -7.50928 2
vertex 11.0682 -5.80904 25
vertex 9.99303 -7.50928 25
endloop
endfacet
facet normal 0.8451893288622832 -0.5344670227220042 0
outer loop
vertex 11.0682 -5.80904 25
vertex 9.99303 -7.50928 2
vertex 11.0682 -5.80904 2
endloop
endfacet
facet normal 0.7485102783694816 -0.6631231885368217 0
outer loop
vertex 8.65905 -9.01503 2
vertex 9.99303 -7.50928 25
vertex 8.65905 -9.01503 25
endloop
endfacet
facet normal 0.7485102783694805 -0.6631231885368232 0
outer loop
vertex 9.99303 -7.50928 25
vertex 8.65905 -9.01503 2
vertex 9.99303 -7.50928 2
endloop
endfacet
facet normal 0.6324472903741591 -0.7746033984552251 0
outer loop
vertex 7.10081 -10.2873 2
vertex 8.65905 -9.01503 25
vertex 7.10081 -10.2873 25
endloop
endfacet
facet normal 0.6324472903741591 -0.7746033984552249 0
outer loop
vertex 8.65905 -9.01503 25
vertex 7.10081 -10.2873 2
vertex 8.65905 -9.01503 2
endloop
endfacet
facet normal 0.4999997123762203 -0.8660255698440416 0
outer loop
vertex 5.35866 -11.29313 2
vertex 7.10081 -10.2873 25
vertex 5.35866 -11.29313 25
endloop
endfacet
facet normal 0.49999971237622004 -0.8660255698440418 0
outer loop
vertex 7.10081 -10.2873 25
vertex 5.35866 -11.29313 2
vertex 7.10081 -10.2873 2
endloop
endfacet
facet normal 0.35460643039313494 -0.935015657368281 0
outer loop
vertex 3.47772 -12.00648 2
vertex 5.35866 -11.29313 25
vertex 3.47772 -12.00648 25
endloop
endfacet
facet normal 0.3546064303931349 -0.935015657368281 0
outer loop
vertex 5.35866 -11.29313 25
vertex 3.47772 -12.00648 2
vertex 5.35866 -11.29313 2
endloop
endfacet
facet normal 0.2000235117106017 -0.9797910975115864 0
outer loop
vertex 1.50671 -12.40886 2
vertex 3.47772 -12.00648 25
vertex 1.50671 -12.40886 25
endloop
endfacet
facet normal 0.20002351171060156 -0.9797910975115862 0
outer loop
vertex 3.47772 -12.00648 25
vertex 1.50671 -12.40886 2
vertex 3.47772 -12.00648 2
endloop
endfacet
facet normal 0.04026522548645539 -0.9991890269696345 0
outer loop
vertex -0.50332 -12.48986 2
vertex 1.50671 -12.40886 25
vertex -0.50332 -12.48986 25
endloop
endfacet
facet normal 0.040265225486455385 -0.9991890269696345 0
outer loop
vertex 1.50671 -12.40886 25
vertex -0.50332 -12.48986 2
vertex 1.50671 -12.40886 2
endloop
endfacet
facet normal 0 1 0
outer loop
vertex -11.97898 -3.4641 2
vertex -2 -3.4641 25
vertex -2 -3.4641 2
endloop
endfacet
facet normal 0 1 0
outer loop
vertex -2 -3.4641 25
vertex -11.97898 -3.4641 2
vertex -11.97898 -3.4641 25
endloop
endfacet
facet normal 0 1 0
outer loop
vertex 2 -3.4641 2
vertex 11.97853 -3.4641 25
vertex 11.97853 -3.4641 2
endloop
endfacet
facet normal 0 1 0
outer loop
vertex 11.97853 -3.4641 25
vertex 2 -3.4641 2
vertex 2 -3.4641 25
endloop
endfacet
facet normal 0.25881977290038394 0.9659256312759248 0
outer loop
vertex 0 -4 2
vertex -2 -3.4641 25
vertex 0 -4 25
endloop
endfacet
facet normal 0.25881977290038394 0.9659256312759248 0
outer loop
vertex -2 -3.4641 25
vertex 0 -4 2
vertex -2 -3.4641 2
endloop
endfacet
facet normal 0 -1 0
outer loop
vertex 0 -4 25
vertex 11.83896 -4 2
vertex 11.83896 -4 25
endloop
endfacet
facet normal 0 -1 0
outer loop
vertex 0 -4 25
vertex 0 -4 2
vertex 11.83896 -4 2
endloop
endfacet
facet normal 0 -1 0
outer loop
vertex -11.80007 -4 25
vertex 0 -4 2
vertex 0 -4 25
endloop
endfacet
facet normal 0 -1 0
outer loop
vertex 0 -4 2
vertex -11.80007 -4 25
vertex -11.80007 -4 2
endloop
endfacet
facet normal -0.25881977290038394 0.9659256312759248 0
outer loop
vertex 2 -3.4641 2
vertex 0 -4 25
vertex 2 -3.4641 25
endloop
endfacet
facet normal -0.25881977290038394 0.9659256312759248 0
outer loop
vertex 0 -4 25
vertex 2 -3.4641 2
vertex 0 -4 2
endloop
endfacet
facet normal 0.9709421670480526 -0.23931424581088323 0
outer loop
vertex 11.85671 -3.95835 2
vertex 12.33813 -2.00514 25
vertex 11.85671 -3.95835 25
endloop
endfacet
facet normal 0.9709421670480525 -0.23931424581088323 0
outer loop
vertex 12.33813 -2.00514 25
vertex 11.85671 -3.95835 2
vertex 12.33813 -2.00514 2
endloop
endfacet
facet normal -0.9870500033821837 -0.16041287611420343 0
outer loop
vertex -12.45947 -1.00583 2
vertex -12.2979 -2 25
vertex -12.45947 -1.00583 25
endloop
endfacet
facet normal -0.9870496806211798 -0.160414862109529 -8.811154197277859e-8
outer loop
vertex -12.45947 -1.00583 2
vertex -12.13677 -2.99145 25
vertex -12.2979 -2 25
endloop
endfacet
facet normal -0.9870500033821801 -0.16041287611420282 8.787050188062725e-8
outer loop
vertex -12.2979 -2 2
vertex -12.13677 -2.99145 25
vertex -12.45947 -1.00583 2
endloop
endfacet
facet normal -0.9870496806211835 -0.16041486210952957 0
outer loop
vertex -12.13677 -2.99145 25
vertex -12.2979 -2 2
vertex -12.13677 -2.99145 2
endloop
endfacet
facet normal 0 1 0
outer loop
vertex -12.2979 -2 2
vertex -3.4641 -2 25
vertex -3.4641 -2 2
endloop
endfacet
facet normal 0 0.9999999999999999 0
outer loop
vertex -3.4641 -2 25
vertex -12.2979 -2 2
vertex -12.2979 -2 25
endloop
endfacet
facet normal 0 1 0
outer loop
vertex 3.4641 -2 2
vertex 12.33854 -2 25
vertex 12.33854 -2 2
endloop
endfacet
facet normal 0 1 0
outer loop
vertex 12.33854 -2 25
vertex 3.4641 -2 2
vertex 3.4641 -2 25
endloop
endfacet
facet normal 0.7071067811865477 0.7071067811865475 0
outer loop
vertex -2 -3.4641 2
vertex -3.4641 -2 25
vertex -2 -3.4641 25
endloop
endfacet
facet normal 0.7071067811865475 0.7071067811865475 0
outer loop
vertex -3.4641 -2 25
vertex -2 -3.4641 2
vertex -3.4641 -2 2
endloop
endfacet
facet normal 0 -1 0
outer loop
vertex -11.97898 -3.4641 25
vertex -2 -3.4641 2
vertex -2 -3.4641 25
endloop
endfacet
facet normal 0 -1 0
outer loop
vertex -2 -3.4641 2
vertex -11.97898 -3.4641 25
vertex -11.97898 -3.4641 2
endloop
endfacet
facet normal 0 -1 0
outer loop
vertex 2 -3.4641 25
vertex 11.97853 -3.4641 2
vertex 11.97853 -3.4641 25
endloop
endfacet
facet normal 0 -1 0
outer loop
vertex 11.97853 -3.4641 2
vertex 2 -3.4641 25
vertex 2 -3.4641 2
endloop
endfacet
facet normal -0.7071067811865477 0.7071067811865475 0
outer loop
vertex 3.4641 -2 2
vertex 2 -3.4641 25
vertex 3.4641 -2 25
endloop
endfacet
facet normal -0.7071067811865475 0.7071067811865475 0
outer loop
vertex 2 -3.4641 25
vertex 3.4641 -2 2
vertex 2 -3.4641 2
endloop
endfacet
facet normal 0.9967573733390789 -0.08046576100541296 0
outer loop
vertex 12.33813 -2.00514 2
vertex 12.5 0 25
vertex 12.33813 -2.00514 25
endloop
endfacet
facet normal 0.9967573733390785 -0.08046576100541539 0
outer loop
vertex 12.5 0 25
vertex 12.33813 -2.00514 2
vertex 12.5 0 2
endloop
endfacet
facet normal -0.9999999999999999 0 0
outer loop
vertex -12.45947 0 2
vertex -12.45947 1.00583 25
vertex -12.45947 1.00583 2
endloop
endfacet
facet normal -0.9999999999999999 0 0
outer loop
vertex -12.45947 0 2
vertex -12.45947 0 25
vertex -12.45947 1.00583 25
endloop
endfacet
facet normal -0.9999999999999999 0 0
outer loop
vertex -12.45947 -1.00583 2
vertex -12.45947 0 25
vertex -12.45947 0 2
endloop
endfacet
facet normal -0.9999999999999999 0 0
outer loop
vertex -12.45947 0 25
vertex -12.45947 -1.00583 2
vertex -12.45947 -1.00583 25
endloop
endfacet
facet normal 0 1 0
outer loop
vertex -12.45947 0 2
vertex -4 0 25
vertex -4 0 2
endloop
endfacet
facet normal 0 1 0
outer loop
vertex -4 0 25
vertex -12.45947 0 2
vertex -12.45947 0 25
endloop
endfacet
facet normal 0 1 0
outer loop
vertex 4 0 2
vertex 12.5 0 25
vertex 12.5 0 2
endloop
endfacet
facet normal 0 1 0
outer loop
vertex 12.5 0 25
vertex 4 0 2
vertex 4 0 25
endloop
endfacet
facet normal 0.9659256312759247 0.25881977290038427 0
outer loop
vertex -3.4641 -2 2
vertex -4 0 25
vertex -3.4641 -2 25
endloop
endfacet
facet normal 0.9659256312759248 0.2588197729003837 0
outer loop
vertex -4 0 25
vertex -3.4641 -2 2
vertex -4 0 2
endloop
endfacet
facet normal 0 -1 0
outer loop
vertex -12.2979 -2 25
vertex -3.4641 -2 2
vertex -3.4641 -2 25
endloop
endfacet
facet normal 0 -0.9999999999999999 0
outer loop
vertex -3.4641 -2 2
vertex -12.2979 -2 25
vertex -12.2979 -2 2
endloop
endfacet
facet normal 0 -1 0
outer loop
vertex 3.4641 -2 25
vertex 12.33854 -2 2
vertex 12.33854 -2 25
endloop
endfacet
facet normal 0 -1 0
outer loop
vertex 12.33854 -2 2
vertex 3.4641 -2 25
vertex 3.4641 -2 2
endloop
endfacet
facet normal -0.9659256312759248 0.2588197729003837 0
outer loop
vertex 4 0 2
vertex 3.4641 -2 25
vertex 4 0 25
endloop
endfacet
facet normal -0.9659256312759247 0.25881977290038427 0
outer loop
vertex 3.4641 -2 25
vertex 4 0 2
vertex 3.4641 -2 2
endloop
endfacet
facet normal -0.9870498422232239 0.160413867751853 0
outer loop
vertex -12.13677 2.99145 2
vertex -12.45947 1.00583 25
vertex -12.13677 2.99145 25
endloop
endfacet
facet normal -0.9870496806211798 0.16041486210952904 8.811154197277862e-8
outer loop
vertex -12.2979 2 2
vertex -12.45947 1.00583 25
vertex -12.13677 2.99145 2
endloop
endfacet
facet normal -0.9870500033821837 0.16041287611420343 0
outer loop
vertex -12.45947 1.00583 25
vertex -12.2979 2 2
vertex -12.45947 1.00583 2
endloop
endfacet
facet normal 0 1 0
outer loop
vertex -12.2979 2 2
vertex -3.4641 2 25
vertex -3.4641 2 2
endloop
endfacet
facet normal 0 0.9999999999999999 0
outer loop
vertex -3.4641 2 25
vertex -12.2979 2 2
vertex -12.2979 2 25
endloop
endfacet
facet normal 0 1 0
outer loop
vertex 3.4641 2 2
vertex 12.33854 2 25
vertex 12.33854 2 2
endloop
endfacet
facet normal 0 1 0
outer loop
vertex 12.33854 2 25
vertex 3.4641 2 2
vertex 3.4641 2 25
endloop
endfacet
facet normal 0.9659256312759248 -0.2588197729003837 0
outer loop
vertex -4 0 2
vertex -3.4641 2 25
vertex -4 0 25
endloop
endfacet
facet normal 0.9659256312759247 -0.25881977290038427 0
outer loop
vertex -3.4641 2 25
vertex -4 0 2
vertex -3.4641 2 2
endloop
endfacet
facet normal 0 -1 0
outer loop
vertex -12.45947 0 25
vertex -4 0 2
vertex -4 0 25
endloop
endfacet
facet normal 0 -1 0
outer loop
vertex -4 0 2
vertex -12.45947 0 25
vertex -12.45947 0 2
endloop
endfacet
facet normal 0 -1 0
outer loop
vertex 4 0 25
vertex 12.5 0 2
vertex 12.5 0 25
endloop
endfacet
facet normal 0 -1 0
outer loop
vertex 12.5 0 2
vertex 4 0 25
vertex 4 0 2
endloop
endfacet
facet normal -0.9659256312759247 -0.25881977290038427 0
outer loop
vertex 3.4641 2 2
vertex 4 0 25
vertex 3.4641 2 25
endloop
endfacet
facet normal -0.9659256312759248 -0.2588197729003837 0
outer loop
vertex 4 0 25
vertex 3.4641 2 2
vertex 4 0 2
endloop
endfacet
facet normal 0.9967573733390785 0.08046576100541539 0
outer loop
vertex 12.5 0 2
vertex 12.33813 2.00514 25
vertex 12.5 0 25
endloop
endfacet
facet normal 0.9967573733390789 0.08046576100541296 0
outer loop
vertex 12.33813 2.00514 25
vertex 12.5 0 2
vertex 12.33813 2.00514 2
endloop
endfacet
facet normal -0.9485360530332159 0.3166691587385297 0
outer loop
vertex -11.49974 4.89958 2
vertex -12.13677 2.99145 25
vertex -11.49974 4.89958 25
endloop
endfacet
facet normal -0.9485345200811106 0.3166737504346039 4.233951960028523e-7
outer loop
vertex -11.80007 4 2
vertex -12.13677 2.99145 25
vertex -11.49974 4.89958 2
endloop
endfacet
facet normal -0.9485362867166818 0.3166684587730545 1.654938287372238e-7
outer loop
vertex -11.97898 3.4641 2
vertex -12.13677 2.99145 25
vertex -11.80007 4 2
endloop
endfacet
facet normal -0.9485387056554571 0.3166612130865891 0
outer loop
vertex -12.13677 2.99145 25
vertex -11.97898 3.4641 2
vertex -12.13677 2.99145 2
endloop
endfacet
facet normal 0 1 0
outer loop
vertex -11.97898 3.4641 2
vertex -2 3.4641 25
vertex -2 3.4641 2
endloop
endfacet
facet normal 0 1 0
outer loop
vertex -2 3.4641 25
vertex -11.97898 3.4641 2
vertex -11.97898 3.4641 25
endloop
endfacet
facet normal 0 1 0
outer loop
vertex 2 3.4641 2
vertex 11.97853 3.4641 25
vertex 11.97853 3.4641 2
endloop
endfacet
facet normal 0 1 0
outer loop
vertex 11.97853 3.4641 25
vertex 2 3.4641 2
vertex 2 3.4641 25
endloop
endfacet
facet normal 0.7071067811865477 -0.7071067811865475 0
outer loop
vertex -3.4641 2 2
vertex -2 3.4641 25
vertex -3.4641 2 25
endloop
endfacet
facet normal 0.7071067811865475 -0.7071067811865475 0
outer loop
vertex -2 3.4641 25
vertex -3.4641 2 2
vertex -2 3.4641 2
endloop
endfacet
facet normal 0 -1 0
outer loop
vertex -12.2979 2 25
vertex -3.4641 2 2
vertex -3.4641 2 25
endloop
endfacet
facet normal 0 -0.9999999999999999 0
outer loop
vertex -3.4641 2 2
vertex -12.2979 2 25
vertex -12.2979 2 2
endloop
endfacet
facet normal 0 -1 0
outer loop
vertex 3.4641 2 25
vertex 12.33854 2 2
vertex 12.33854 2 25
endloop
endfacet
facet normal 0 -1 0
outer loop
vertex 12.33854 2 2
vertex 3.4641 2 25
vertex 3.4641 2 2
endloop
endfacet
facet normal -0.7071067811865477 -0.7071067811865475 0
outer loop
vertex 2 3.4641 2
vertex 3.4641 2 25
vertex 2 3.4641 25
endloop
endfacet
facet normal -0.7071067811865475 -0.7071067811865475 0
outer loop
vertex 3.4641 2 25
vertex 2 3.4641 2
vertex 3.4641 2 2
endloop
endfacet
facet normal 0.9709421670480526 0.23931424581088323 0
outer loop
vertex 12.33813 2.00514 2
vertex 11.85671 3.95835 25
vertex 12.33813 2.00514 25
endloop
endfacet
facet normal 0.9709420251111711 0.23931482167432788 -5.1874499747661056e-8
outer loop
vertex 11.97853 3.4641 2
vertex 11.85671 3.95835 25
vertex 12.33813 2.00514 2
endloop
endfacet
facet normal 0.9709425860250186 0.23931254593741882 0
outer loop
vertex 11.85671 3.95835 25
vertex 11.97853 3.4641 2
vertex 11.85671 3.95835 2
endloop
endfacet
facet normal 0 1 0
outer loop
vertex 0 4 2
vertex 11.83896 4 25
vertex 11.83896 4 2
endloop
endfacet
facet normal 0 1 0
outer loop
vertex 0 4 2
vertex 0 4 25
vertex 11.83896 4 25
endloop
endfacet
facet normal 0 1 0
outer loop
vertex -11.80007 4 2
vertex 0 4 25
vertex 0 4 2
endloop
endfacet
facet normal 0 1 0
outer loop
vertex 0 4 25
vertex -11.80007 4 2
vertex -11.80007 4 25
endloop
endfacet
facet normal 0.25881977290038394 -0.9659256312759248 0
outer loop
vertex -2 3.4641 2
vertex 0 4 25
vertex -2 3.4641 25
endloop
endfacet
facet normal 0.25881977290038394 -0.9659256312759248 0
outer loop
vertex 0 4 25
vertex -2 3.4641 2
vertex 0 4 2
endloop
endfacet
facet normal 0 -1 0
outer loop
vertex -11.97898 3.4641 25
vertex -2 3.4641 2
vertex -2 3.4641 25
endloop
endfacet
facet normal 0 -1 0
outer loop
vertex -2 3.4641 2
vertex -11.97898 3.4641 25
vertex -11.97898 3.4641 2
endloop
endfacet
facet normal 0 -1 0
outer loop
vertex 2 3.4641 25
vertex 11.97853 3.4641 2
vertex 11.97853 3.4641 25
endloop
endfacet
facet normal 0 -1 0
outer loop
vertex 11.97853 3.4641 2
vertex 2 3.4641 25
vertex 2 3.4641 2
endloop
endfacet
facet normal -0.25881977290038394 -0.9659256312759248 0
outer loop
vertex 0 4 2
vertex 2 3.4641 25
vertex 0 4 25
endloop
endfacet
facet normal -0.25881977290038394 -0.9659256312759248 0
outer loop
vertex 2 3.4641 25
vertex 0 4 2
vertex 2 3.4641 2
endloop
endfacet
facet normal 0 0 1
outer loop
vertex 11.85671 3.95835 25
vertex 11.0682 5.80904 25
vertex 11.83896 4 25
endloop
endfacet
facet normal 0.9199786046627768 0.39196857905032423 0
outer loop
vertex 11.85671 3.95835 2
vertex 11.0682 5.80904 25
vertex 11.85671 3.95835 25
endloop
endfacet
facet normal 0.9199428543448815 0.39205247694175843 -0.000007976455293923224
outer loop
vertex 11.83896 4 2
vertex 11.0682 5.80904 25
vertex 11.85671 3.95835 2
endloop
endfacet
facet normal 0.9199794276936117 0.3919666473318038 0
outer loop
vertex 11.0682 5.80904 25
vertex 11.83896 4 2
vertex 11.0682 5.80904 2
endloop
endfacet
facet normal -0.8854574308719675 0.46472049461328374 0
outer loop
vertex -10.56488 6.68082 2
vertex -11.49974 4.89958 25
vertex -10.56488 6.68082 25
endloop
endfacet
facet normal -0.8854574308719668 0.46472049461328463 0
outer loop
vertex -11.49974 4.89958 25
vertex -10.56488 6.68082 2
vertex -11.49974 4.89958 2
endloop
endfacet
facet normal -0.7994407139682239 0.6007449915313289 0
outer loop
vertex -9.35638 8.28903 2
vertex -10.56488 6.68082 25
vertex -9.35638 8.28903 25
endloop
endfacet
facet normal -0.7994407139682239 0.600744991531329 0
outer loop
vertex -10.56488 6.68082 25
vertex -9.35638 8.28903 2
vertex -10.56488 6.68082 2
endloop
endfacet
facet normal -0.6927264425982484 0.7212004407411129 0
outer loop
vertex -7.90557 9.68256 2
vertex -9.35638 8.28903 25
vertex -7.90557 9.68256 25
endloop
endfacet
facet normal -0.6927264425982473 0.7212004407411141 0
outer loop
vertex -9.35638 8.28903 25
vertex -7.90557 9.68256 2
vertex -9.35638 8.28903 2
endloop
endfacet
facet normal -0.5680656016960338 0.8229832757533554 0
outer loop
vertex -6.25 10.82532 2
vertex -7.90557 9.68256 25
vertex -6.25 10.82532 25
endloop
endfacet
facet normal -0.5680656016960344 0.822983275753355 0
outer loop
vertex -7.90557 9.68256 25
vertex -6.25 10.82532 2
vertex -7.90557 9.68256 2
endloop
endfacet
facet normal -0.4286901258994153 0.903451590267206 0
outer loop
vertex -4.43256 11.6877 2
vertex -6.25 10.82532 25
vertex -4.43256 11.6877 25
endloop
endfacet
facet normal -0.4286901258994149 0.9034515902672061 0
outer loop
vertex -6.25 10.82532 25
vertex -4.43256 11.6877 2
vertex -6.25 10.82532 2
endloop
endfacet
facet normal -0.2782173990944946 0.960518130407279 0
outer loop
vertex -2.50032 12.24738 2
vertex -4.43256 11.6877 25
vertex -2.50032 12.24738 25
endloop
endfacet
facet normal -0.2782173990944945 0.960518130407279 0
outer loop
vertex -4.43256 11.6877 25
vertex -2.50032 12.24738 2
vertex -4.43256 11.6877 2
endloop
endfacet
facet normal -0.12053682697620367 0.9927088562829027 0
outer loop
vertex -0.50332 12.48986 2
vertex -2.50032 12.24738 25
vertex -0.50332 12.48986 25
endloop
endfacet
facet normal -0.12053682697620367 0.9927088562829027 0
outer loop
vertex -2.50032 12.24738 25
vertex -0.50332 12.48986 2
vertex -2.50032 12.24738 2
endloop
endfacet
facet normal 0.040265225486455385 0.9991890269696345 0
outer loop
vertex 1.50671 12.40886 2
vertex -0.50332 12.48986 25
vertex 1.50671 12.40886 25
endloop
endfacet
facet normal 0.04026522548645539 0.9991890269696345 0
outer loop
vertex -0.50332 12.48986 25
vertex 1.50671 12.40886 2
vertex -0.50332 12.48986 2
endloop
endfacet
facet normal 0.20002351171060156 0.9797910975115862 0
outer loop
vertex 3.47772 12.00648 2
vertex 1.50671 12.40886 25
vertex 3.47772 12.00648 25
endloop
endfacet
facet normal 0.2000235117106017 0.9797910975115864 0
outer loop
vertex 1.50671 12.40886 25
vertex 3.47772 12.00648 2
vertex 1.50671 12.40886 2
endloop
endfacet
facet normal 0.3546064303931347 0.935015657368281 0
outer loop
vertex 5.35866 11.29313 2
vertex 3.47772 12.00648 25
vertex 5.35866 11.29313 25
endloop
endfacet
facet normal 0.3546064303931351 0.935015657368281 0
outer loop
vertex 3.47772 12.00648 25
vertex 5.35866 11.29313 2
vertex 3.47772 12.00648 2
endloop
endfacet
facet normal 0.49999971237622004 0.8660255698440418 0
outer loop
vertex 7.10081 10.2873 2
vertex 5.35866 11.29313 25
vertex 7.10081 10.2873 25
endloop
endfacet
facet normal 0.4999997123762203 0.8660255698440416 0
outer loop
vertex 5.35866 11.29313 25
vertex 7.10081 10.2873 2
vertex 5.35866 11.29313 2
endloop
endfacet
facet normal 0.6324472903741591 0.7746033984552251 0
outer loop
vertex 8.65905 9.01503 2
vertex 7.10081 10.2873 25
vertex 8.65905 9.01503 25
endloop
endfacet
facet normal 0.6324472903741591 0.7746033984552249 0
outer loop
vertex 7.10081 10.2873 25
vertex 8.65905 9.01503 2
vertex 7.10081 10.2873 2
endloop
endfacet
facet normal 0.7485102783694805 0.6631231885368232 0
outer loop
vertex 9.99303 7.50928 2
vertex 8.65905 9.01503 25
vertex 9.99303 7.50928 25
endloop
endfacet
facet normal 0.7485102783694816 0.6631231885368217 0
outer loop
vertex 8.65905 9.01503 25
vertex 9.99303 7.50928 2
vertex 8.65905 9.01503 2
endloop
endfacet
facet normal 0.8451893288622832 0.5344670227220042 0
outer loop
vertex 11.0682 5.80904 2
vertex 9.99303 7.50928 25
vertex 11.0682 5.80904 25
endloop
endfacet
facet normal 0.8451893288622832 0.5344670227220042 0
outer loop
vertex 9.99303 7.50928 25
vertex 11.0682 5.80904 2
vertex 9.99303 7.50928 2
endloop
endfacet
facet normal 0 -1 0
outer loop
vertex 0 4 25
vertex 11.83896 4 2
vertex 11.83896 4 25
endloop
endfacet
facet normal 0 -1 0
outer loop
vertex 0 4 25
vertex 0 4 2
vertex 11.83896 4 2
endloop
endfacet
facet normal 0 -1 0
outer loop
vertex -11.80007 4 25
vertex 0 4 2
vertex 0 4 25
endloop
endfacet
facet normal 0 -1 0
outer loop
vertex 0 4 2
vertex -11.80007 4 25
vertex -11.80007 4 2
endloop
endfacet
facet normal 1.5153287446084568e-14 0 1
outer loop
vertex 4 11.8084 25
vertex 7.10081 10.2873 25
vertex 5.35866 11.29313 25
endloop
endfacet
facet normal -9.023746483349528e-15 0 1
outer loop
vertex 4 11.8084 25
vertex 8.65905 9.01503 25
vertex 7.10081 10.2873 25
endloop
endfacet
facet normal 4.320636859334047e-15 0 1
outer loop
vertex 4 11.8084 25
vertex 9.99303 7.50928 25
vertex 8.65905 9.01503 25
endloop
endfacet
facet normal 0 0 1
outer loop
vertex 4 11.8084 25
vertex 11.0682 5.80904 25
vertex 9.99303 7.50928 25
endloop
endfacet
facet normal -3.4819475284993465e-15 0 1
outer loop
vertex 4 11.8084 25
vertex 11.83896 4 25
vertex 11.0682 5.80904 25
endloop
endfacet
facet normal 1.559919568626856e-13 0 1
outer loop
vertex 4 11.8084 25
vertex 11.85671 3.95835 25
vertex 11.83896 4 25
endloop
endfacet
facet normal -1.2138203843259823e-15 0 0.9999999999999999
outer loop
vertex 4 11.8084 25
vertex 11.97853 3.4641 25
vertex 11.85671 3.95835 25
endloop
endfacet
facet normal 3.2896464696761406e-15 0 1
outer loop
vertex 4 11.8084 25
vertex 12.33813 2.00514 25
vertex 11.97853 3.4641 25
endloop
endfacet
facet normal 0 0 1
outer loop
vertex 4 0 25
vertex 12.33813 2.00514 25
vertex 4 11.8084 25
endloop
endfacet
facet normal 0 0 1
outer loop
vertex 4 0 25
vertex 12.5 0 25
vertex 12.33813 2.00514 25
endloop
endfacet
facet normal 0 0 1
outer loop
vertex 4 0 25
vertex 12.33813 -2.00514 25
vertex 12.5 0 25
endloop
endfacet
facet normal 0 0 1
outer loop
vertex 4 0 25
vertex 11.85671 -3.95835 25
vertex 12.33813 -2.00514 25
endloop
endfacet
facet normal 2.2344522439062706e-15 0 1
outer loop
vertex 4 0 25
vertex 11.83896 -4 25
vertex 11.85671 -3.95835 25
endloop
endfacet
facet normal -1.6462961319684096e-15 0 1
outer loop
vertex 4 0 25
vertex 11.0682 -5.80904 25
vertex 11.83896 -4 25
endloop
endfacet
facet normal 0 0 1
outer loop
vertex 4 0 25
vertex 9.99303 -7.50928 25
vertex 11.0682 -5.80904 25
endloop
endfacet
facet normal 7.463200401545613e-16 0 1
outer loop
vertex 4 0 25
vertex 8.65905 -9.01503 25
vertex 9.99303 -7.50928 25
endloop
endfacet
facet normal 7.11426687307026e-16 0 0.9999999999999999
outer loop
vertex 4 0 25
vertex 7.10081 -10.2873 25
vertex 8.65905 -9.01503 25
endloop
endfacet
facet normal -2.3638710306910075e-15 0 0.9999999999999999
outer loop
vertex 4 0 25
vertex 5.35866 -11.29313 25
vertex 7.10081 -10.2873 25
endloop
endfacet
facet normal 7.086117358295189e-15 0 1
outer loop
vertex 5.35866 -11.29313 25
vertex 4 0 25
vertex 4 -11.8084 25
endloop
endfacet
facet normal 0 0 1
outer loop
vertex 3.4641 -2 25
vertex 4 -11.8084 25
vertex 4 0 25
endloop
endfacet
facet normal 7.473844082284594e-15 0 1
outer loop
vertex 3.4641 -2 25
vertex 3.47772 -12.00648 25
vertex 4 -11.8084 25
endloop
endfacet
facet normal 0 0 1
outer loop
vertex 3.47772 -12.00648 25
vertex 3.4641 -2 25
vertex 3.4641 -12.00926 25
endloop
endfacet
facet normal 2.4449899400069384e-14 0 1
outer loop
vertex -6.25 10.82532 25
vertex -4 11.813 25
vertex -4.43256 11.6877 25
endloop
endfacet
facet normal 0 0 1
outer loop
vertex -7.90557 9.68256 25
vertex -4 11.813 25
vertex -6.25 10.82532 25
endloop
endfacet
facet normal -6.042889981307064e-15 0 1
outer loop
vertex -9.35638 8.28903 25
vertex -4 11.813 25
vertex -7.90557 9.68256 25
endloop
endfacet
facet normal 0 0 1
outer loop
vertex -10.56488 6.68082 25
vertex -4 11.813 25
vertex -9.35638 8.28903 25
endloop
endfacet
facet normal 0 0 1
outer loop
vertex -11.49974 4.89958 25
vertex -4 11.813 25
vertex -10.56488 6.68082 25
endloop
endfacet
facet normal -1.2171233798084859e-14 0 1
outer loop
vertex -11.80007 4 25
vertex -4 11.813 25
vertex -11.49974 4.89958 25
endloop
endfacet
facet normal 0 0 1
outer loop
vertex -11.97898 3.4641 25
vertex -4 11.813 25
vertex -11.80007 4 25
endloop
endfacet
facet normal 2.3164597157659874e-14 0 0.9999999999999999
outer loop
vertex -12.13677 2.99145 25
vertex -4 11.813 25
vertex -11.97898 3.4641 25
endloop
endfacet
facet normal -8.553304861274787e-15 0 1
outer loop
vertex -12.2979 2 25
vertex -4 11.813 25
vertex -12.13677 2.99145 25
endloop
endfacet
facet normal 0 0 1
outer loop
vertex -12.45947 1.00583 25
vertex -4 11.813 25
vertex -12.2979 2 25
endloop
endfacet
facet normal 1.1376451714642782e-15 0 1
outer loop
vertex -12.45947 1.00583 25
vertex -4 0 25
vertex -4 11.813 25
endloop
endfacet
facet normal 0 0 1
outer loop
vertex -12.45947 0 25
vertex -4 0 25
vertex -12.45947 1.00583 25
endloop
endfacet
facet normal 0 0 1
outer loop
vertex -12.45947 -1.00583 25
vertex -4 0 25
vertex -12.45947 0 25
endloop
endfacet
facet normal 0 0 1
outer loop
vertex -12.2979 -2 25
vertex -4 0 25
vertex -12.45947 -1.00583 25
endloop
endfacet
facet normal 0 0 1
outer loop
vertex -12.13677 -2.99145 25
vertex -4 0 25
vertex -12.2979 -2 25
endloop
endfacet
facet normal 0 0 1
outer loop
vertex -11.97898 -3.4641 25
vertex -4 0 25
vertex -12.13677 -2.99145 25
endloop
endfacet
facet normal 0 0 1
outer loop
vertex -11.80007 -4 25
vertex -4 0 25
vertex -11.97898 -3.4641 25
endloop
endfacet
facet normal 0 0 1
outer loop
vertex -11.49974 -4.89958 25
vertex -4 0 25
vertex -11.80007 -4 25
endloop
endfacet
facet normal -1.5843302468735523e-15 0 1
outer loop
vertex -10.56488 -6.68082 25
vertex -4 0 25
vertex -11.49974 -4.89958 25
endloop
endfacet
facet normal 0 0 1
outer loop
vertex -9.35638 -8.28903 25
vertex -4 0 25
vertex -10.56488 -6.68082 25
endloop
endfacet
facet normal 0 0 1
outer loop
vertex -7.90557 -9.68256 25
vertex -4 0 25
vertex -9.35638 -8.28903 25
endloop
endfacet
facet normal 2.7737582711087198e-15 0 1
outer loop
vertex -6.25 -10.82532 25
vertex -4 0 25
vertex -7.90557 -9.68256 25
endloop
endfacet
facet normal 0 0 0.9999999999999999
outer loop
vertex -4.43256 -11.6877 25
vertex -4 0 25
vertex -6.25 -10.82532 25
endloop
endfacet
facet normal 1.3210134777132906e-14 0 1
outer loop
vertex -4 0 25
vertex -4.43256 -11.6877 25
vertex -4 -11.813 25
endloop
endfacet
facet normal -8.979170739547416e-15 0 1
outer loop
vertex -4 -11.813 25
vertex -3.4641 -2 25
vertex -4 0 25
endloop
endfacet
facet normal 5.320455605227093e-15 0 1
outer loop
vertex -3.4641 -2 25
vertex -4 -11.813 25
vertex -3.4641 -11.96822 25
endloop
endfacet
facet normal 0 0 1
outer loop
vertex -2 12.30813 25
vertex 0 12.46958 25
vertex -0.50332 12.48986 25
endloop
endfacet
facet normal -3.35574012293455e-15 0 1
outer loop
vertex -2 12.30813 25
vertex 0 4 25
vertex 0 12.46958 25
endloop
endfacet
facet normal 0 0 1
outer loop
vertex 0 4 25
vertex -2 12.30813 25
vertex -2 3.4641 25
endloop
endfacet
facet normal 0 0 1
outer loop
vertex -3.4641 11.96822 25
vertex -2 12.30813 25
vertex -2.50032 12.24738 25
endloop
endfacet
facet normal 0 0 1
outer loop
vertex -3.4641 11.96822 25
vertex -2 3.4641 25
vertex -2 12.30813 25
endloop
endfacet
facet normal -3.894859857716273e-15 0 1
outer loop
vertex -2 3.4641 25
vertex -3.4641 11.96822 25
vertex -3.4641 2 25
endloop
endfacet
facet normal 0 0 1
outer loop
vertex 2 3.4641 25
vertex 3.4641 12.00926 25
vertex 2 12.30815 25
endloop
endfacet
facet normal 1.939445070409027e-15 0 1
outer loop
vertex 3.4641 12.00926 25
vertex 2 3.4641 25
vertex 3.4641 2 25
endloop
endfacet
facet normal 0 0 1
outer loop
vertex 0 12.46958 25
vertex 2 12.30815 25
vertex 1.50671 12.40886 25
endloop
endfacet
facet normal 1.0486687884170468e-15 0 1
outer loop
vertex 0 4 25
vertex 2 12.30815 25
vertex 0 12.46958 25
endloop
endfacet
facet normal -1.4059732674285827e-15 0 1
outer loop
vertex 2 12.30815 25
vertex 0 4 25
vertex 2 3.4641 25
endloop
endfacet
facet normal 0 0 1
outer loop
vertex 3.4641 12.00926 25
vertex 4 11.8084 25
vertex 3.47772 12.00648 25
endloop
endfacet
facet normal 2.6493203280330824e-15 0 1
outer loop
vertex 3.4641 2 25
vertex 4 11.8084 25
vertex 3.4641 12.00926 25
endloop
endfacet
facet normal -8.982668604237121e-15 0 1
outer loop
vertex 4 11.8084 25
vertex 3.4641 2 25
vertex 4 0 25
endloop
endfacet
facet normal 1.0640911210454186e-14 0 1
outer loop
vertex -4 11.813 25
vertex -3.4641 2 25
vertex -3.4641 11.96822 25
endloop
endfacet
facet normal -1.795834147909483e-14 0 1
outer loop
vertex -3.4641 2 25
vertex -4 11.813 25
vertex -4 0 25
endloop
endfacet
facet normal 0 0 1
outer loop
vertex 2 -3.4641 25
vertex 3.4641 -12.00926 25
vertex 3.4641 -2 25
endloop
endfacet
facet normal 0 0 1
outer loop
vertex 3.4641 -12.00926 25
vertex 2 -3.4641 25
vertex 2 -12.30815 25
endloop
endfacet
facet normal 0 0 1
outer loop
vertex 0 -4 25
vertex 2 -12.30815 25
vertex 2 -3.4641 25
endloop
endfacet
facet normal 2.478783114286256e-15 0 1
outer loop
vertex 0 -4 25
vertex 1.50671 -12.40886 25
vertex 2 -12.30815 25
endloop
endfacet
facet normal 0 0 1
outer loop
vertex 1.50671 -12.40886 25
vertex 0 -4 25
vertex 0 -12.46958 25
endloop
endfacet
facet normal 1.4059764469141054e-15 0 1
outer loop
vertex -2 -12.30813 25
vertex 0 -4 25
vertex -2 -3.4641 25
endloop
endfacet
facet normal -3.35574012293455e-15 0 1
outer loop
vertex -2 -12.30813 25
vertex 0 -12.46958 25
vertex 0 -4 25
endloop
endfacet
facet normal 0 0 1
outer loop
vertex 0 -12.46958 25
vertex -2 -12.30813 25
vertex -0.50332 -12.48986 25
endloop
endfacet
facet normal -1.9474299288581366e-15 0 1
outer loop
vertex -3.4641 -11.96822 25
vertex -2 -3.4641 25
vertex -3.4641 -2 25
endloop
endfacet
facet normal 0 0 1
outer loop
vertex -2.50032 -12.24738 25
vertex -2 -3.4641 25
vertex -3.4641 -11.96822 25
endloop
endfacet
facet normal 8.029012557186862e-16 0 1
outer loop
vertex -2 -3.4641 25
vertex -2.50032 -12.24738 25
vertex -2 -12.30813 25
endloop
endfacet
facet normal 0 0 -1
outer loop
vertex 9.99303 -7.50928 2
vertex 11.83896 -4 2
vertex 11.0682 -5.80904 2
endloop
endfacet
facet normal 0 0 -1
outer loop
vertex 8.65905 -9.01503 2
vertex 11.83896 -4 2
vertex 9.99303 -7.50928 2
endloop
endfacet
facet normal 0 0 -1
outer loop
vertex 7.10081 -10.2873 2
vertex 11.83896 -4 2
vertex 8.65905 -9.01503 2
endloop
endfacet
facet normal 0 0 -1
outer loop
vertex 5.35866 -11.29313 2
vertex 11.83896 -4 2
vertex 7.10081 -10.2873 2
endloop
endfacet
facet normal 0 0 -1
outer loop
vertex 3.47772 -12.00648 2
vertex 11.83896 -4 2
vertex 5.35866 -11.29313 2
endloop
endfacet
facet normal 0 0 -1
outer loop
vertex 1.50671 -12.40886 2
vertex 11.83896 -4 2
vertex 3.47772 -12.00648 2
endloop
endfacet
facet normal 0 0 -1
outer loop
vertex 1.50671 -12.40886 2
vertex 0 -4 2
vertex 11.83896 -4 2
endloop
endfacet
facet normal 0 0 -1
outer loop
vertex -0.50332 -12.48986 2
vertex 0 -4 2
vertex 1.50671 -12.40886 2
endloop
endfacet
facet normal 0 0 -1
outer loop
vertex -2.50032 -12.24738 2
vertex 0 -4 2
vertex -0.50332 -12.48986 2
endloop
endfacet
facet normal 0 0 -1
outer loop
vertex -4.43256 -11.6877 2
vertex 0 -4 2
vertex -2.50032 -12.24738 2
endloop
endfacet
facet normal 0 0 -1
outer loop
vertex -6.25 -10.82532 2
vertex 0 -4 2
vertex -4.43256 -11.6877 2
endloop
endfacet
facet normal 0 0 -1
outer loop
vertex -7.90557 -9.68256 2
vertex 0 -4 2
vertex -6.25 -10.82532 2
endloop
endfacet
facet normal 0 0 -1
outer loop
vertex -9.35638 -8.28903 2
vertex 0 -4 2
vertex -7.90557 -9.68256 2
endloop
endfacet
facet normal 0 0 -1
outer loop
vertex -10.56488 -6.68082 2
vertex 0 -4 2
vertex -9.35638 -8.28903 2
endloop
endfacet
facet normal 0 0 -1
outer loop
vertex -11.49974 -4.89958 2
vertex 0 -4 2
vertex -10.56488 -6.68082 2
endloop
endfacet
facet normal 0 0 -1
outer loop
vertex 0 -4 2
vertex -11.49974 -4.89958 2
vertex -11.80007 -4 2
endloop
endfacet
facet normal 0 0 -1
outer loop
vertex 11.83896 4 2
vertex 9.99303 7.50928 2
vertex 11.0682 5.80904 2
endloop
endfacet
facet normal 0 0 -1
outer loop
vertex 11.83896 4 2
vertex 8.65905 9.01503 2
vertex 9.99303 7.50928 2
endloop
endfacet
facet normal 0 0 -1
outer loop
vertex 11.83896 4 2
vertex 7.10081 10.2873 2
vertex 8.65905 9.01503 2
endloop
endfacet
facet normal 0 0 -1
outer loop
vertex 11.83896 4 2
vertex 5.35866 11.29313 2
vertex 7.10081 10.2873 2
endloop
endfacet
facet normal 0 0 -1
outer loop
vertex 11.83896 4 2
vertex 3.47772 12.00648 2
vertex 5.35866 11.29313 2
endloop
endfacet
facet normal 0 0 -1
outer loop
vertex 11.83896 4 2
vertex 1.50671 12.40886 2
vertex 3.47772 12.00648 2
endloop
endfacet
facet normal 0 0 -1
outer loop
vertex 0 4 2
vertex 1.50671 12.40886 2
vertex 11.83896 4 2
endloop
endfacet
facet normal 0 0 -1
outer loop
vertex 0 4 2
vertex -0.50332 12.48986 2
vertex 1.50671 12.40886 2
endloop
endfacet
facet normal 0 0 -1
outer loop
vertex 0 4 2
vertex -2.50032 12.24738 2
vertex -0.50332 12.48986 2
endloop
endfacet
facet normal 0 0 -1
outer loop
vertex 0 4 2
vertex -4.43256 11.6877 2
vertex -2.50032 12.24738 2
endloop
endfacet
facet normal 0 0 -1
outer loop
vertex 0 4 2
vertex -6.25 10.82532 2
vertex -4.43256 11.6877 2
endloop
endfacet
facet normal 0 0 -1
outer loop
vertex 0 4 2
vertex -7.90557 9.68256 2
vertex -6.25 10.82532 2
endloop
endfacet
facet normal 0 0 -1
outer loop
vertex 0 4 2
vertex -9.35638 8.28903 2
vertex -7.90557 9.68256 2
endloop
endfacet
facet normal 0 0 -1
outer loop
vertex 0 4 2
vertex -10.56488 6.68082 2
vertex -9.35638 8.28903 2
endloop
endfacet
facet normal 0 0 -1
outer loop
vertex 0 4 2
vertex -11.49974 4.89958 2
vertex -10.56488 6.68082 2
endloop
endfacet
facet normal 0 0 -0.9999999999999999
outer loop
vertex -11.49974 4.89958 2
vertex 0 4 2
vertex -11.80007 4 2
endloop
endfacet
facet normal 0 0 -1
outer loop
vertex -2 3.4641 2
vertex -11.80007 4 2
vertex 0 4 2
endloop
endfacet
facet normal 0 0 -1
outer loop
vertex -11.80007 4 2
vertex -2 3.4641 2
vertex -11.97898 3.4641 2
endloop
endfacet
facet normal 0 0 -1
outer loop
vertex -11.80007 -4 2
vertex -2 -3.4641 2
vertex 0 -4 2
endloop
endfacet
facet normal 0 0 -1
outer loop
vertex -2 -3.4641 2
vertex -11.80007 -4 2
vertex -11.97898 -3.4641 2
endloop
endfacet
facet normal 0 0 -1
outer loop
vertex -3.4641 2 2
vertex -11.97898 3.4641 2
vertex -2 3.4641 2
endloop
endfacet
facet normal 0 0 -1
outer loop
vertex -3.4641 2 2
vertex -12.13677 2.99145 2
vertex -11.97898 3.4641 2
endloop
endfacet
facet normal 0 0 -1
outer loop
vertex -12.13677 2.99145 2
vertex -3.4641 2 2
vertex -12.2979 2 2
endloop
endfacet
facet normal 0 0 -1
outer loop
vertex -4 0 2
vertex -12.2979 2 2
vertex -3.4641 2 2
endloop
endfacet
facet normal 0 0 -1
outer loop
vertex -12.45947 0 2
vertex -12.2979 2 2
vertex -4 0 2
endloop
endfacet
facet normal 0 0 -1
outer loop
vertex -12.2979 2 2
vertex -12.45947 0 2
vertex -12.45947 1.00583 2
endloop
endfacet
facet normal 0 0 -1
outer loop
vertex -12.2979 -2 2
vertex -4 0 2
vertex -3.4641 -2 2
endloop
endfacet
facet normal 0 0 -1
outer loop
vertex -12.45947 -1.00583 2
vertex -4 0 2
vertex -12.2979 -2 2
endloop
endfacet
facet normal 0 0 -1
outer loop
vertex -4 0 2
vertex -12.45947 -1.00583 2
vertex -12.45947 0 2
endloop
endfacet
facet normal 0 0 -1
outer loop
vertex -11.97898 -3.4641 2
vertex -3.4641 -2 2
vertex -2 -3.4641 2
endloop
endfacet
facet normal 0 0 -1
outer loop
vertex -12.13677 -2.99145 2
vertex -3.4641 -2 2
vertex -11.97898 -3.4641 2
endloop
endfacet
facet normal 0 0 -1
outer loop
vertex -3.4641 -2 2
vertex -12.13677 -2.99145 2
vertex -12.2979 -2 2
endloop
endfacet
facet normal 0 0 -1
outer loop
vertex 12.33854 -2 2
vertex 4 0 2
vertex 12.5 0 2
endloop
endfacet
facet normal 0 0 -1
outer loop
vertex 4 0 2
vertex 12.33854 -2 2
vertex 3.4641 -2 2
endloop
endfacet
facet normal 0 0 -1
outer loop
vertex 11.97853 -3.4641 2
vertex 12.33854 -2 2
vertex 12.33813 -2.00514 2
endloop
endfacet
facet normal 0 0 -1
outer loop
vertex 11.97853 -3.4641 2
vertex 3.4641 -2 2
vertex 12.33854 -2 2
endloop
endfacet
facet normal 0 0 -1
outer loop
vertex 3.4641 -2 2
vertex 11.97853 -3.4641 2
vertex 2 -3.4641 2
endloop
endfacet
facet normal 0 0 -1
outer loop
vertex 12.33854 2 2
vertex 11.97853 3.4641 2
vertex 12.33813 2.00514 2
endloop
endfacet
facet normal 0 0 -1
outer loop
vertex 3.4641 2 2
vertex 11.97853 3.4641 2
vertex 12.33854 2 2
endloop
endfacet
facet normal 0 0 -1
outer loop
vertex 11.97853 3.4641 2
vertex 3.4641 2 2
vertex 2 3.4641 2
endloop
endfacet
facet normal 0 0 -1
outer loop
vertex 4 0 2
vertex 12.33854 2 2
vertex 12.5 0 2
endloop
endfacet
facet normal 0 0 -1
outer loop
vertex 12.33854 2 2
vertex 4 0 2
vertex 3.4641 2 2
endloop
endfacet
facet normal 0 0 -0.9999999999999999
outer loop
vertex 11.83896 -4 2
vertex 11.97853 -3.4641 2
vertex 11.85671 -3.95835 2
endloop
endfacet
facet normal 0 0 -1
outer loop
vertex 11.83896 -4 2
vertex 2 -3.4641 2
vertex 11.97853 -3.4641 2
endloop
endfacet
facet normal 0 0 -0.9999999999999999
outer loop
vertex 2 -3.4641 2
vertex 11.83896 -4 2
vertex 0 -4 2
endloop
endfacet
facet normal 0 0 -1
outer loop
vertex 11.97853 3.4641 2
vertex 11.83896 4 2
vertex 11.85671 3.95835 2
endloop
endfacet
facet normal 0 0 -1
outer loop
vertex 2 3.4641 2
vertex 11.83896 4 2
vertex 11.97853 3.4641 2
endloop
endfacet
facet normal 0 0 -1
outer loop
vertex 11.83896 4 2
vertex 2 3.4641 2
vertex 0 4 2
endloop
endfacet
endsolid JSxCAD
