<?xml version="1.0" encoding="UTF-8"?>
<!-- Generated by jsxcad -->
<!DOCTYPE svg PUBLIC "-//W3C//DTD SVG 1.1 Tiny//EN" "http://www.w3.org/Graphics/SVG/1.1/DTD/svg11-tiny.dtd">
<svg viewBox="-250 -250 500 500" width="500" height="500" xmlns="http://www.w3.org/2000/svg"><path d="M73.47181575531933,-78.57290129936017L84.23033306247876,20.6904394434397L99.95135783688495,-76.1689140619085zM-115.86660483982062,28.805366325515415L-114.05268549364877,142.5790777217686L-100.92448112530649,6.32801102337941zM-100.92448112530649,6.32801102337941L-96.0904148187332,159.4867237668469L-82.17010094015924,-14.440889213099576zM-126.37867313265583,52.395161709290925L-126.00557248456293,122.42945422576902L-115.86660483982062,28.805366325515415zM-82.17010094015924,-14.440889213099576L-72.50277738766638,172.16505826871355L-60.24336691238321,-32.98734571624273zM-60.24336691238321,-32.98734571624273L-44.04500669273006,179.7362965415809L-35.797684504032844,-48.865507613418096zM-131.88604210862232,100.04856036989683L-126.37867313265583,52.395161709290925L-131.88508582608904,76.40691788672592zM99.95135783688495,-76.1689140619085L111.17341379172633,7.652178534982343L124.44775574852034,-69.47754723280167zM-35.797684504032844,-48.865507613418096L-11.85918228237052,181.53282794951699L-9.500070852926266,-61.68516154085252zM-9.500070852926266,-61.68516154085252L22.560323645670167,177.1967352748118L17.962397045719754,-71.10270544064127zM-126.37867313265583,52.395161709290925L-131.88604210862232,100.04856036989683L-126.00557248456293,122.42945422576902zM17.962397045719754,-71.10270544064127L57.45954640146106,166.75722893298624L45.87251109263384,-76.81722858800943zM84.23033306247876,20.6904394434397L73.47181575531933,-78.57290129936017L84.10691424822106,23.155216122410042zM99.95135783688495,-76.1689140619085L93.1861983310726,9.45763674622247L96.16147268601088,8.017273747899647zM99.95135783688495,-76.1689140619085L90.48594214092884,11.265630927802677L93.1861983310726,9.45763674622247zM99.95135783688495,-76.1689140619085L96.16147268601088,8.017273747899647L99.30156374738051,6.99801821270593zM99.95135783688495,-76.1689140619085L88.16118765173603,13.374594524902154L90.48594214092884,11.265630927802677zM99.95135783688495,-76.1689140619085L99.30156374738051,6.99801821270593L102.49013513879558,6.438390445417947zM99.95135783688495,-76.1689140619085L86.2993308896475,15.706833886374897L88.16118765173603,13.374594524902154zM99.95135783688495,-76.1689140619085L102.49013513879558,6.438390445417947L105.6086065606942,6.36057035036149zM99.95135783688495,-76.1689140619085L84.97158143669233,18.17610684906879L86.2993308896475,15.706833886374897zM99.95135783688495,-76.1689140619085L105.6086065606942,6.36057035036149L108.5400825473418,6.7694516650329755zM99.95135783688495,-76.1689140619085L84.23033306247876,20.6904394434397L84.97158143669233,18.17610684906879zM99.95135783688495,-76.1689140619085L108.5400825473418,6.7694516650329755L111.17341379172633,7.652178534982343zM45.87251109263384,-76.81722858800943L90.9697663382304,150.6652578733867L73.47181575531933,-78.57290129936017zM-115.86660483982062,28.805366325515415L-126.00557248456293,122.42945422576902L-114.05268549364877,142.5790777217686zM124.44775574852034,-69.47754723280167L111.17341379172633,7.652178534982343L113.40719729783926,8.978219685770002zM124.44775574852034,-69.47754723280167L113.40719729783926,8.978219685770002L115.15375041366833,10.700034516504184zM124.44775574852034,-69.47754723280167L115.15375041366833,10.700034516504184L116.34267504317586,12.754385267514209zM124.44775574852034,-69.47754723280167L116.34267504317586,12.754385267514209L116.9240907570109,15.064310605758306zM-100.92448112530649,6.32801102337941L-114.05268549364877,142.5790777217686L-96.0904148187332,159.4867237668469z" style="fill:rgb(83,212,212)"/><path d="M96.16147268601088,8.017273747899647L96.33459104340935,16.794729747453154L99.28897105501827,15.365210376532337z" style="fill:rgb(162,50,222)"/><path d="M93.1861983310726,9.45763674622247L93.65472851021701,18.59263936602927L96.33459104340935,16.794729747453154z" style="fill:rgb(183,62,221)"/><path d="M99.30156374738051,6.99801821270593L99.28897105501827,15.365210376532337L102.40841220835011,14.357169036784352z" style="fill:rgb(139,40,220)"/><path d="M93.65472851021701,18.59263936602927L88.16118765173603,13.374594524902154L91.34913859098967,20.69263251886934z" style="fill:rgb(203,77,216)"/><path d="M102.49013513879558,6.438390445417947L102.40841220835011,14.357169036784352L105.57731448884154,13.808714126231475z" style="fill:rgb(115,34,214)"/><path d="M91.34913859098967,20.69263251886934L86.2993308896475,15.706833886374897L89.5044934411173,23.017327966469036z" style="fill:rgb(220,94,208)"/><path d="M96.33459104340935,16.794729747453154L96.16147268601088,8.017273747899647L93.1861983310726,9.45763674622247z" style="fill:rgb(162,50,222)"/><path d="M105.6086065606942,6.36057035036149L105.57731448884154,13.808714126231475L108.67780481434806,13.74160578674494z" style="fill:rgb(92,32,204)"/><path d="M93.65472851021701,18.59263936602927L93.1861983310726,9.45763674622247L90.48594214092884,11.265630927802677z" style="fill:rgb(183,62,221)"/><path d="M99.28897105501827,15.365210376532337L99.30156374738051,6.99801821270593L96.16147268601088,8.017273747899647z" style="fill:rgb(139,40,220)"/><path d="M88.16118765173603,13.374594524902154L93.65472851021701,18.59263936602927L90.48594214092884,11.265630927802677z" style="fill:rgb(203,77,216)"/><path d="M102.40841220835011,14.357169036784352L102.49013513879558,6.438390445417947L99.30156374738051,6.99801821270593z" style="fill:rgb(115,34,214)"/><path d="M89.5044934411173,23.017327966469036L84.97158143669233,18.17610684906879L88.19138748120758,25.48074778315854z" style="fill:rgb(233,112,197)"/><path d="M86.2993308896475,15.706833886374897L91.34913859098967,20.69263251886934L88.16118765173603,13.374594524902154z" style="fill:rgb(220,94,208)"/><path d="M108.5400825473418,6.7694516650329755L108.67780481434806,13.74160578674494L111.59364609121253,14.160321021324387z" style="fill:rgb(71,33,192)"/><path d="M105.57731448884154,13.808714126231475L105.6086065606942,6.36057035036149L102.49013513879558,6.438390445417947z" style="fill:rgb(92,32,204)"/><path d="M88.19138748120758,25.48074778315854L84.23033306247876,20.6904394434397L87.46162156981417,27.991120825043286z" style="fill:rgb(242,130,183)"/><path d="M84.97158143669233,18.17610684906879L89.5044934411173,23.017327966469036L86.2993308896475,15.706833886374897z" style="fill:rgb(233,112,197)"/><path d="M114.21427804832831,15.051609293224221L108.5400825473418,6.7694516650329755L111.59364609121253,14.160321021324387z" style="fill:rgb(51,38,177)"/><path d="M124.44775574852034,-69.47754723280167L166.4013107190434,78.46741618954096L146.04850330195842,-58.47068707514916z" style="fill:rgb(83,212,212)"/><path d="M108.67780481434806,13.74160578674494L108.5400825473418,6.7694516650329755L105.6086065606942,6.36057035036149z" style="fill:rgb(71,33,192)"/><path d="M84.23033306247876,20.6904394434397L88.19138748120758,25.48074778315854L84.97158143669233,18.17610684906879z" style="fill:rgb(242,130,183)"/><path d="M87.46162156981417,27.991120825043286L84.10691424822106,23.155216122410042L87.34605782684199,30.453981329100174z" style="fill:rgb(246,149,167)"/><path d="M116.43879718336707,16.384583612256097L111.17341379172633,7.652178534982343L114.21427804832831,15.051609293224221z" style="fill:rgb(34,46,160)"/><path d="M108.5400825473418,6.7694516650329755L114.21427804832831,15.051609293224221L111.17341379172633,7.652178534982343z" style="fill:rgb(51,38,177)"/><path d="M84.10691424822106,23.155216122410042L87.85302018545819,32.775474383690856L87.34605782684199,30.453981329100174z" style="fill:rgb(246,167,149)"/><path d="M84.10691424822106,23.155216122410042L87.46162156981417,27.991120825043286L84.23033306247876,20.6904394434397z" style="fill:rgb(246,149,167)"/><path d="M-82.17010094015924,-14.440889213099576L-96.0904148187332,159.4867237668469L-72.50277738766638,172.16505826871355z" style="fill:rgb(83,212,212)"/><path d="M118.17990887473724,18.11140398895192L113.40719729783926,8.978219685770002L116.43879718336707,16.384583612256097z" style="fill:rgb(21,57,142)"/><path d="M111.17341379172633,7.652178534982343L116.43879718336707,16.384583612256097L113.40719729783926,8.978219685770002z" style="fill:rgb(34,46,160)"/><path d="M87.85302018545819,32.775474383690856L84.10691424822106,23.155216122410042L84.60999874790534,25.476503087108313z" style="fill:rgb(246,167,149)"/><path d="M119.36747482729629,20.168606984655973L115.15375041366833,10.700034516504184L118.17990887473724,18.11140398895192z" style="fill:rgb(12,71,124)"/><path d="M113.40719729783926,8.978219685770002L118.17990887473724,18.11140398895192L115.15375041366833,10.700034516504184z" style="fill:rgb(21,57,142)"/><path d="M146.04850330195842,-58.47068707514916L179.26172245522832,50.86378605703301L163.81119734336136,-43.25375150230205z" style="fill:rgb(83,212,212)"/><path d="M115.15375041366833,10.700034516504184L119.36747482729629,20.168606984655973L116.34267504317586,12.754385267514209z" style="fill:rgb(12,71,124)"/><path d="M176.80078238465956,-24.104217519576796L186.7308679687449,6.1458474651235475L179.37661932153367,-16.46367135231473z" style="fill:rgb(246,167,149)"/><path d="M73.47181575531933,-78.57290129936017L90.9697663382304,150.6652578733867L84.10691424822106,23.155216122410042zM163.81119734336136,-43.25375150230205L185.12940855065017,23.804601914409606L176.80078238465956,-24.104217519576796zM-60.24336691238321,-32.98734571624273L-72.50277738766638,172.16505826871355L-44.04500669273006,179.7362965415809z" style="fill:rgb(83,212,212)"/><path d="M186.7308679687449,6.1458474651235475L176.80078238465956,-24.104217519576796L184.14808759692323,-1.5094155223260899z" style="fill:rgb(246,167,149)"/><path d="M124.44775574852034,-69.47754723280167L116.9240907570109,15.064310605758306L146.82666321369615,105.24816414542697z" style="fill:rgb(83,212,212)"/><path d="M-23.757544344529514,72.78386983788381L-74.06483286892646,-12.18601649950953L-28.421783850056713,66.64249587748931z" style="fill:rgb(21,57,142)"/><path d="M-91.38280965538837,166.0553280805726L-114.05268549364877,142.5790777217686L-109.32050924645652,149.12261033249587z" style="fill:rgb(34,46,160)"/><path d="M34.049618053314646,-64.83554067069291L73.28251501137079,25.823913280131475L71.70964389153866,18.163078509146793z" style="fill:rgb(246,167,149)"/><path d="M35.975307928656036,-169.36724383434145L43.4224690385363,-71.50964215250637L63.98798179230801,-168.34014699634568zM-35.797684504032844,-48.865507613418096L-44.04500669273006,179.7362965415809L-11.85918228237052,181.53282794951699zM-169.2781381784544,-54.16661511654011L-173.9199313147578,59.796192494380215L-152.28639454748057,-77.14406111423352zM-152.28639454748057,-77.14406111423352L-155.7846074426527,76.19428428029082L-131.41878899692261,-98.56108466987509zM176.80078238465956,-24.104217519576796L185.12940855065017,23.804601914409606L184.14808759692323,-1.5094155223260899z" style="fill:rgb(83,212,212)"/><path d="M-17.310018376169797,77.69636446352055L-69.40601200190946,-6.210076706946028L-23.757544344529514,72.78386983788381z" style="fill:rgb(34,46,160)"/><path d="M-181.70962463904263,-30.224173708895268L-185.42023475892853,39.94739000681442L-169.2781381784544,-54.16661511654011zM-131.41878899692261,-98.56108466987509L-131.32831147292808,88.12880559278501L-107.36727078967611,-117.90367253843853z" style="fill:rgb(83,212,212)"/><path d="M-114.05268549364877,142.5790777217686L-91.38280965538837,166.0553280805726L-96.0904148187332,159.4867237668469z" style="fill:rgb(34,46,160)"/><path d="M185.12940855065017,23.804601914409606L186.7308679687449,6.1458474651235475L184.14808759692323,-1.5094155223260899z" style="fill:rgb(246,149,167)"/><path d="M-190.3209821599235,17.6827930367361L-181.70962463904263,-30.224173708895268L-188.9228909555811,-6.008505823359316zM-9.500070852926266,-61.68516154085252L-11.85918228237052,181.53282794951699L22.560323645670167,177.1967352748118zM-107.36727078967611,-117.90367253843853L-101.28367303355948,94.70271544805841L-80.8252414106982,-134.72304605232534z" style="fill:rgb(83,212,212)"/><path d="M73.28251501137079,25.823913280131475L34.604652659058985,-48.92141715234895L72.78955363785438,34.11527814417392z" style="fill:rgb(246,149,167)"/><path d="M163.81119734336136,-43.25375150230205L179.26172245522832,50.86378605703301L185.12940855065017,23.804601914409606z" style="fill:rgb(83,212,212)"/><path d="M-9.300485374840088,81.15374876131449L-62.79757431785672,-1.532464318642459L-17.310018376169797,77.69636446352055z" style="fill:rgb(51,38,177)"/><path d="M63.98798179230801,-168.34014699634568L72.76759867718229,-85.80184771030476L89.80571093369102,-162.98305158475833z" style="fill:rgb(83,212,212)"/><path d="M186.7308679687449,6.1458474651235475L185.12940855065017,23.804601914409606L187.7631677101133,31.442807345940405z" style="fill:rgb(246,149,167)"/><path d="M-80.8252414106982,-134.72304605232534L-66.8336999114873,95.24563446969137L-52.49099901534122,-148.62093390804563z" style="fill:rgb(83,212,212)"/><path d="M72.78955363785438,34.11527814417392L31.536581920187352,-40.19765842392505L70.20605429129789,42.7127673270366z" style="fill:rgb(242,130,183)"/><path d="M17.962397045719754,-71.10270544064127L22.560323645670167,177.1967352748118L57.45954640146106,166.75722893298624zM146.04850330195842,-58.47068707514916L166.4013107190434,78.46741618954096L179.26172245522832,50.86378605703301zM84.60999874790534,25.476503087108313L121.28311398217387,129.77156811887386L85.7246776514318,27.56453281942649zM84.10691424822106,23.155216122410042L90.9697663382304,150.6652578733867L84.60999874790534,25.476503087108313zM116.8711812920001,17.54177263801118L146.82666321369615,105.24816414542697L116.9240907570109,15.064310605758306z" style="fill:rgb(83,212,212)"/><path d="M-44.70470486836949,3.0987662527011826L-9.300485374840088,81.15374876131449L-0.027768591409871732,82.98369942828607z" style="fill:rgb(71,33,192)"/><path d="M-67.8738708289316,178.7777669452712L-96.0904148187332,159.4867237668469L-91.38280965538837,166.0553280805726z" style="fill:rgb(51,38,177)"/><path d="M85.7246776514318,27.56453281942649L121.28311398217387,129.77156811887386L87.41237679462519,29.33721888151905zM116.18187114793237,20.09091052210494L146.82666321369615,105.24816414542697L116.8711812920001,17.54177263801118zM124.44775574852034,-69.47754723280167L146.82666321369615,105.24816414542697L166.4013107190434,78.46741618954096zM-52.49099901534122,-148.62093390804563L-29.584893503865356,89.42390210237468L-23.077693997545474,-159.23858627983338zM45.87251109263384,-76.81722858800943L57.45954640146106,166.75722893298624L90.9697663382304,150.6652578733867zM-66.35860571842561,-51.64966977207241L-69.40601200190946,-6.210076706946028L-59.303312801223186,-59.3783161968982zM114.8795855967305,22.611811793623055L146.82666321369615,105.24816414542697L116.18187114793237,20.09091052210494z" style="fill:rgb(83,212,212)"/><path d="M70.20605429129789,42.7127673270366L26.31320015491723,-31.42681334388124L65.59865520518312,51.26524104483747z" style="fill:rgb(233,112,197)"/><path d="M-71.81226736230973,-43.47932633195043L-74.06483286892646,-12.18601649950953L-66.35860571842561,-51.64966977207241zM87.41237679462519,29.33721888151905L121.28311398217387,129.77156811887386L89.61165699425656,30.723581454663638zM113.01283955292462,25.00464099794964L146.82666321369615,105.24816414542697L114.8795855967305,22.611811793623055zM89.61165699425656,30.723581454663638L121.28311398217387,129.77156811887386L92.2400836619926,31.666894330241355z" style="fill:rgb(83,212,212)"/><path d="M-74.06483286892646,-12.18601649950953L-23.757544344529514,72.78386983788381L-69.40601200190946,-6.210076706946028z" style="fill:rgb(21,57,142)"/><path d="M-59.303312801223186,-59.3783161968982L-54.46114217634787,1.6253460205610661L-50.90791637940671,-66.40660820554834zM92.2400836619926,31.666894330241355L121.28311398217387,129.77156811887386L95.19701245224623,32.12740701483922z" style="fill:rgb(83,212,212)"/><path d="M-33.913522091046495,2.793433813395135L-0.027768591409871732,82.98369942828607L10.141206098874802,83.08081283847139z" style="fill:rgb(92,32,204)"/><path d="M-50.90791637940671,-66.40660820554834L-44.70470486836949,3.0987662527011826L-41.46808716067977,-72.50236506794066zM-181.70962463904263,-30.224173708895268L-190.3209821599235,17.6827930367361L-185.42023475892853,39.94739000681442zM95.19701245224623,32.12740701483922L121.28311398217387,129.77156811887386L98.36741630310993,32.08440088941859zM-75.44525321513028,-35.14789705467704L-74.06483286892646,-12.18601649950953L-71.81226736230973,-43.47932633195043zM98.36741630310993,32.08440088941859L121.28311398217387,129.77156811887386L101.62650547723555,31.537467041837616zM110.65357936197172,27.173932555340098L121.28311398217387,129.77156811887386L113.01283955292462,25.00464099794964z" style="fill:rgb(83,212,212)"/><path d="M65.59865520518312,51.26524104483747L19.118128041908115,-22.980752792954885L59.12847172176021,59.41121196828797z" style="fill:rgb(220,94,208)"/><path d="M-41.46808716067977,-72.50236506794066L-33.913522091046495,2.793433813395135L-31.306210599193562,-77.46360574641324zM101.62650547723555,31.537467041837616L121.28311398217387,129.77156811887386L104.84493245921249,30.50685237850037zM107.89446360083471,29.032806705353003L121.28311398217387,129.77156811887386L110.65357936197172,27.173932555340098zM104.84493245921249,30.50685237850037L121.28311398217387,129.77156811887386L107.89446360083471,29.032806705353003z" style="fill:rgb(83,212,212)"/><path d="M73.28251501137079,25.823913280131475L34.049618053314646,-64.83554067069291L35.4363185844632,-57.24198301357656z" style="fill:rgb(246,167,149)"/><path d="M-76.6415446918158,-19.196835171701245L-75.44525321513028,-35.14789705467704L-77.09025268187692,-26.952040446841007zM-23.077693997545474,-159.23858627983338L8.53068123496732,77.32541278471383L6.672854328312556,-166.25089611548944zM-31.306210599193562,-77.46360574641324L-22.53432809995233,0.6952617510918335L-20.764627020183283,-81.12194364968568z" style="fill:rgb(83,212,212)"/><path d="M-22.53432809995233,0.6952617510918335L10.141206098874802,83.08081283847139L20.786697895256204,81.4165444330732z" style="fill:rgb(115,34,214)"/><path d="M-96.0904148187332,159.4867237668469L-67.8738708289316,178.7777669452712L-72.50277738766638,172.16505826871355z" style="fill:rgb(51,38,177)"/><path d="M43.4224690385363,-71.50964215250637L35.975307928656036,-169.36724383434145L43.191183805514115,-69.04019375545408zM63.98798179230801,-168.34014699634568L53.448442504977436,-83.14819257874447L56.687120502718415,-84.72616473674044z" style="fill:rgb(83,212,212)"/><path d="M59.12847172176021,59.41121196828797L10.233857862637677,-15.227434365830643L51.04798398253721,66.79787027377668z" style="fill:rgb(203,77,216)"/><path d="M63.98798179230801,-168.34014699634568L50.48930542113198,-81.21632461792106L53.448442504977436,-83.14819257874447zM63.98798179230801,-168.34014699634568L56.687120502718415,-84.72616473674044L60.085778916898754,-85.89184947051096z" style="fill:rgb(83,212,212)"/><path d="M179.26172245522832,50.86378605703301L187.7631677101133,31.442807345940405L185.12940855065017,23.804601914409606z" style="fill:rgb(242,130,183)"/><path d="M-20.764627020183283,-81.12194364968568L-22.53432809995233,0.6952617510918335L-10.199067384575903,-83.34597648962921zM63.98798179230801,-168.34014699634568L47.91949078599631,-79.00156544863869L50.48930542113198,-81.21632461792106zM63.98798179230801,-168.34014699634568L60.085778916898754,-85.89184947051096L63.51890553175177,-86.6013784604706zM63.98798179230801,-168.34014699634568L45.835328774768,-76.58527977653887L47.91949078599631,-79.00156544863869z" style="fill:rgb(83,212,212)"/><path d="M10.233857862637677,-15.227434365830643L41.69109760881679,73.10109917782673L51.04798398253721,66.79787027377668z" style="fill:rgb(183,62,221)"/><path d="M-11.053327399158189,-3.12440328308541L20.786697895256204,81.4165444330732L31.456666191312696,78.04465619067784z" style="fill:rgb(139,40,220)"/><path d="M63.98798179230801,-168.34014699634568L63.51890553175177,-86.6013784604706L66.85914542081377,-86.82696905742941z" style="fill:rgb(83,212,212)"/><path d="M0.03041909804361477,-8.509666138015314L31.456666191312696,78.04465619067784L41.69109760881679,73.10109917782673z" style="fill:rgb(162,50,222)"/><path d="M-69.40601200190946,-6.210076706946028L-17.310018376169797,77.69636446352055L-62.79757431785672,-1.532464318642459z" style="fill:rgb(34,46,160)"/><path d="M63.98798179230801,-168.34014699634568L44.316379569996535,-74.05661777982291L45.835328774768,-76.58527977653887z" style="fill:rgb(83,212,212)"/><path d="M34.604652659058985,-48.92141715234895L73.28251501137079,25.823913280131475L35.4363185844632,-57.24198301357656z" style="fill:rgb(246,149,167)"/><path d="M63.98798179230801,-168.34014699634568L66.85914542081377,-86.82696905742941L69.98150000111602,-86.55802367422068zM-75.44525321513028,-35.14789705467704L-76.6415446918158,-19.196835171701245L-74.06483286892646,-12.18601649950953zM63.98798179230801,-168.34014699634568L43.4224690385363,-71.50964215250637L44.316379569996535,-74.05661777982291zM-10.199067384575903,-83.34597648962921L0.03041909804361477,-8.509666138015314L0.02819393874079199,-84.0449479726387zM63.98798179230801,-168.34014699634568L69.98150000111602,-86.55802367422068L72.76759867718229,-85.80184771030476z" style="fill:rgb(83,212,212)"/><path d="M187.7631677101133,31.442807345940405L179.26172245522832,50.86378605703301L181.99457821084198,58.45178403919554z" style="fill:rgb(242,130,183)"/><path d="M-66.35860571842561,-51.64966977207241L-74.06483286892646,-12.18601649950953L-69.40601200190946,-6.210076706946028zM6.672854328312556,-166.25089611548944L45.41996476480826,59.49457609536006L35.975307928656036,-169.36724383434145zM-169.2781381784544,-54.16661511654011L-185.42023475892853,39.94739000681442L-173.9199313147578,59.796192494380215zM0.02819393874079199,-84.0449479726387L0.03041909804361477,-8.509666138015314L9.556062979896756,-83.17272955423284zM-59.303312801223186,-59.3783161968982L-69.40601200190946,-6.210076706946028L-62.79757431785672,-1.532464318642459z" style="fill:rgb(83,212,212)"/><path d="M-62.79757431785672,-1.532464318642459L-9.300485374840088,81.15374876131449L-54.46114217634787,1.6253460205610661z" style="fill:rgb(51,38,177)"/><path d="M31.536581920187352,-40.19765842392505L72.78955363785438,34.11527814417392L34.604652659058985,-48.92141715234895z" style="fill:rgb(242,130,183)"/><path d="M9.556062979896756,-83.17272955423284L19.118128041908115,-22.980752792954885L18.033699389886486,-80.73200273772794zM89.80571093369102,-162.98305158475833L72.76759867718229,-85.80184771030476L75.11003538871037,-84.58380269754976z" style="fill:rgb(83,212,212)"/><path d="M-67.8738708289316,178.7777669452712L-44.04500669273006,179.7362965415809L-72.50277738766638,172.16505826871355z" style="fill:rgb(71,33,192)"/><path d="M89.80571093369102,-162.98305158475833L75.11003538871037,-84.58380269754976L76.91647834443307,-82.9468718327645z" style="fill:rgb(83,212,212)"/><path d="M-9.300485374840088,81.15374876131449L-44.70470486836949,3.0987662527011826L-54.46114217634787,1.6253460205610661z" style="fill:rgb(71,33,192)"/><path d="M-59.303312801223186,-59.3783161968982L-62.79757431785672,-1.532464318642459L-54.46114217634787,1.6253460205610661zM18.033699389886486,-80.73200273772794L19.118128041908115,-22.980752792954885L25.131310608359428,-76.77826863393373zM89.80571093369102,-162.98305158475833L76.91647834443307,-82.9468718327645L78.11358484953425,-80.95059692831246z" style="fill:rgb(83,212,212)"/><path d="M26.31320015491723,-31.42681334388124L70.20605429129789,42.7127673270366L31.536581920187352,-40.19765842392505z" style="fill:rgb(233,112,197)"/><path d="M25.131310608359428,-76.77826863393373L31.536581920187352,-40.19765842392505L30.552744543051425,-71.42303235527959z" style="fill:rgb(83,212,212)"/><path d="M-44.04500669273006,179.7362965415809L-67.8738708289316,178.7777669452712L-39.54983983906989,186.41430402620205z" style="fill:rgb(71,33,192)"/><path d="M89.80571093369102,-162.98305158475833L78.11358484953425,-80.95059692831246L78.6503626169349,-78.66930513837362zM-50.90791637940671,-66.40660820554834L-54.46114217634787,1.6253460205610661L-44.70470486836949,3.0987662527011826zM-152.28639454748057,-77.14406111423352L-173.9199313147578,59.796192494380215L-155.7846074426527,76.19428428029082z" style="fill:rgb(83,212,212)"/><path d="M166.4013107190434,78.46741618954096L181.99457821084198,58.45178403919554L179.26172245522832,50.86378605703301z" style="fill:rgb(233,112,197)"/><path d="M-0.027768591409871732,82.98369942828607L-33.913522091046495,2.793433813395135L-44.70470486836949,3.0987662527011826z" style="fill:rgb(92,32,204)"/><path d="M-41.46808716067977,-72.50236506794066L-44.70470486836949,3.0987662527011826L-33.913522091046495,2.793433813395135z" style="fill:rgb(83,212,212)"/><path d="M19.118128041908115,-22.980752792954885L65.59865520518312,51.26524104483747L26.31320015491723,-31.42681334388124z" style="fill:rgb(220,94,208)"/><path d="M56.687120502718415,-84.72616473674044L57.18479633565217,-74.44090053046818L60.39873272788207,-76.00587537471937z" style="fill:rgb(162,50,222)"/><path d="M30.552744543051425,-71.42303235527959L31.536581920187352,-40.19765842392505L34.049618053314646,-64.83554067069291z" style="fill:rgb(83,212,212)"/><path d="M53.448442504977436,-83.14819257874447L54.2501164963744,-72.52041071618963L57.18479633565217,-74.44090053046818z" style="fill:rgb(183,62,221)"/><path d="M60.085778916898754,-85.89184947051096L60.39873272788207,-76.00587537471937L63.77324142206243,-77.15740617670346z" style="fill:rgb(139,40,220)"/><path d="M181.99457821084198,58.45178403919554L166.4013107190434,78.46741618954096L169.28245064958878,85.97367823506522z" style="fill:rgb(233,112,197)"/><path d="M54.2501164963744,-72.52041071618963L47.91949078599631,-79.00156544863869L51.70360311750047,-70.3150127648133z" style="fill:rgb(203,77,216)"/><path d="M63.51890553175177,-86.6013784604706L63.77324142206243,-77.15740617670346L67.1836657811717,-77.85213927810129z" style="fill:rgb(115,34,214)"/><path d="M113.01283955292462,25.00464099794964L121.28311398217387,129.77156811887386L146.82666321369615,105.24816414542697z" style="fill:rgb(83,212,212)"/><path d="M51.70360311750047,-70.3150127648133L45.835328774768,-76.58527977653887L49.640729259857096,-67.90574791611708z" style="fill:rgb(220,94,208)"/><path d="M10.141206098874802,83.08081283847139L-22.53432809995233,0.6952617510918335L-33.913522091046495,2.793433813395135z" style="fill:rgb(115,34,214)"/><path d="M84.60999874790534,25.476503087108313L90.9697663382304,150.6652578733867L121.28311398217387,129.77156811887386z" style="fill:rgb(83,212,212)"/><path d="M57.18479633565217,-74.44090053046818L56.687120502718415,-84.72616473674044L53.448442504977436,-83.14819257874447z" style="fill:rgb(162,50,222)"/><path d="M-31.306210599193562,-77.46360574641324L-33.913522091046495,2.793433813395135L-22.53432809995233,0.6952617510918335z" style="fill:rgb(83,212,212)"/><path d="M66.85914542081377,-86.82696905742941L67.1836657811717,-77.85213927810129L70.50346882245894,-78.0628435585777z" style="fill:rgb(92,32,204)"/><path d="M54.2501164963744,-72.52041071618963L53.448442504977436,-83.14819257874447L50.48930542113198,-81.21632461792106z" style="fill:rgb(183,62,221)"/><path d="M60.39873272788207,-76.00587537471937L60.085778916898754,-85.89184947051096L56.687120502718415,-84.72616473674044z" style="fill:rgb(139,40,220)"/><path d="M34.049618053314646,-64.83554067069291L34.604652659058985,-48.92141715234895L35.4363185844632,-57.24198301357656z" style="fill:rgb(83,212,212)"/><path d="M47.91949078599631,-79.00156544863869L54.2501164963744,-72.52041071618963L50.48930542113198,-81.21632461792106z" style="fill:rgb(203,77,216)"/><path d="M63.77324142206243,-77.15740617670346L63.51890553175177,-86.6013784604706L60.085778916898754,-85.89184947051096z" style="fill:rgb(115,34,214)"/><path d="M10.233857862637677,-15.227434365830643L59.12847172176021,59.41121196828797L19.118128041908115,-22.980752792954885z" style="fill:rgb(203,77,216)"/><path d="M49.640729259857096,-67.90574791611708L44.316379569996535,-74.05661777982291L48.14026987866982,-65.38152428545868z" style="fill:rgb(233,112,197)"/><path d="M45.835328774768,-76.58527977653887L51.70360311750047,-70.3150127648133L47.91949078599631,-79.00156544863869z" style="fill:rgb(220,94,208)"/><path d="M69.98150000111602,-86.55802367422068L70.50346882245894,-78.0628435585777L73.6083811020397,-77.7794914186973z" style="fill:rgb(71,33,192)"/><path d="M67.1836657811717,-77.85213927810129L66.85914542081377,-86.82696905742941L63.51890553175177,-86.6013784604706z" style="fill:rgb(92,32,204)"/><path d="M20.786697895256204,81.4165444330732L-11.053327399158189,-3.12440328308541L-22.53432809995233,0.6952617510918335z" style="fill:rgb(139,40,220)"/><path d="M48.14026987866982,-65.38152428545868L43.4224690385363,-71.50964215250637L47.261324056082046,-62.83624921058468z" style="fill:rgb(242,130,183)"/><path d="M44.316379569996535,-74.05661777982291L49.640729259857096,-67.90574791611708L45.835328774768,-76.58527977653887z" style="fill:rgb(233,112,197)"/><path d="M76.38071365426528,-77.009955121293L69.98150000111602,-86.55802367422068L73.6083811020397,-77.7794914186973z" style="fill:rgb(51,38,177)"/><path d="M-10.199067384575903,-83.34597648962921L-22.53432809995233,0.6952617510918335L-11.053327399158189,-3.12440328308541z" style="fill:rgb(83,212,212)"/><path d="M70.50346882245894,-78.0628435585777L69.98150000111602,-86.55802367422068L66.85914542081377,-86.82696905742941z" style="fill:rgb(71,33,192)"/><path d="M89.80571093369102,-162.98305158475833L129.69169499400925,-17.172466298809884L112.46286953915539,-153.19780277448723z" style="fill:rgb(83,212,212)"/><path d="M41.69109760881679,73.10109917782673L10.233857862637677,-15.227434365830643L0.03041909804361477,-8.509666138015314z" style="fill:rgb(183,62,221)"/><path d="M31.456666191312696,78.04465619067784L0.03041909804361477,-8.509666138015314L-11.053327399158189,-3.12440328308541z" style="fill:rgb(162,50,222)"/><path d="M-10.199067384575903,-83.34597648962921L-11.053327399158189,-3.12440328308541L0.03041909804361477,-8.509666138015314zM25.131310608359428,-76.77826863393373L26.31320015491723,-31.42681334388124L31.536581920187352,-40.19765842392505z" style="fill:rgb(83,212,212)"/><path d="M43.4224690385363,-71.50964215250637L48.14026987866982,-65.38152428545868L44.316379569996535,-74.05661777982291z" style="fill:rgb(242,130,183)"/><path d="M47.261324056082046,-62.83624921058468L43.191183805514115,-69.04019375545408L47.040870365530914,-60.365698401007386z" style="fill:rgb(246,149,167)"/><path d="M78.71358378121182,-75.78013651943479L72.76759867718229,-85.80184771030476L76.38071365426528,-77.009955121293z" style="fill:rgb(34,46,160)"/><path d="M34.049618053314646,-64.83554067069291L31.536581920187352,-40.19765842392505L34.604652659058985,-48.92141715234895z" style="fill:rgb(83,212,212)"/><path d="M-39.54983983906989,186.41430402620205L-11.85918228237052,181.53282794951699L-44.04500669273006,179.7362965415809z" style="fill:rgb(92,32,204)"/><path d="M9.556062979896756,-83.17272955423284L10.233857862637677,-15.227434365830643L19.118128041908115,-22.980752792954885z" style="fill:rgb(83,212,212)"/><path d="M69.98150000111602,-86.55802367422068L76.38071365426528,-77.009955121293L72.76759867718229,-85.80184771030476z" style="fill:rgb(51,38,177)"/><path d="M43.191183805514115,-69.04019375545408L47.491868252184474,-58.064125614472594L47.040870365530914,-60.365698401007386z" style="fill:rgb(246,167,149)"/><path d="M43.191183805514115,-69.04019375545408L47.261324056082046,-62.83624921058468L43.4224690385363,-71.50964215250637z" style="fill:rgb(246,149,167)"/><path d="M9.556062979896756,-83.17272955423284L0.03041909804361477,-8.509666138015314L10.233857862637677,-15.227434365830643z" style="fill:rgb(83,212,212)"/><path d="M80.51509518159945,-74.13350808937433L75.11003538871037,-84.58380269754976L78.71358378121182,-75.78013651943479z" style="fill:rgb(21,57,142)"/><path d="M25.131310608359428,-76.77826863393373L19.118128041908115,-22.980752792954885L26.31320015491723,-31.42681334388124zM-131.41878899692261,-98.56108466987509L-155.7846074426527,76.19428428029082L-131.32831147292808,88.12880559278501z" style="fill:rgb(83,212,212)"/><path d="M-11.85918228237052,181.53282794951699L-39.54983983906989,186.41430402620205L-7.548866141348497,188.2982367154224z" style="fill:rgb(92,32,204)"/><path d="M72.76759867718229,-85.80184771030476L78.71358378121182,-75.78013651943479L75.11003538871037,-84.58380269754976z" style="fill:rgb(34,46,160)"/><path d="M47.491868252184474,-58.064125614472594L43.191183805514115,-69.04019375545408L43.63595875412584,-66.74249879915776z" style="fill:rgb(246,167,149)"/><path d="M81.71213742504634,-72.1300260461939L76.91647834443307,-82.9468718327645L80.51509518159945,-74.13350808937433z" style="fill:rgb(12,71,124)"/><path d="M146.82666321369615,105.24816414542697L169.28245064958878,85.97367823506522L166.4013107190434,78.46741618954096z" style="fill:rgb(220,94,208)"/><path d="M75.11003538871037,-84.58380269754976L80.51509518159945,-74.13350808937433L76.91647834443307,-82.9468718327645z" style="fill:rgb(21,57,142)"/><path d="M112.46286953915539,-153.19780277448723L144.50626783385783,-45.637548357051436L130.9518656871215,-139.01152396428566z" style="fill:rgb(83,212,212)"/><path d="M169.28245064958878,85.97367823506522L146.82666321369615,105.24816414542697L149.9020894971915,112.64604774461411z" style="fill:rgb(220,94,208)"/><path d="M76.91647834443307,-82.9468718327645L81.71213742504634,-72.1300260461939L78.11358484953425,-80.95059692831246z" style="fill:rgb(12,71,124)"/><path d="M144.262428241278,-120.62067715100851L154.52894957749265,-89.29937513271366L147.3240022161643,-111.53932028081671z" style="fill:rgb(246,167,149)"/><path d="M-7.548866141348497,188.2982367154224L22.560323645670167,177.1967352748118L-11.85918228237052,181.53282794951699z" style="fill:rgb(115,34,214)"/><path d="M35.975307928656036,-169.36724383434145L45.41996476480826,59.49457609536006L43.191183805514115,-69.04019375545408zM130.9518656871215,-139.01152396428566L151.70552142490874,-73.1284940196531L144.262428241278,-120.62067715100851z" style="fill:rgb(83,212,212)"/><path d="M22.560323645670167,177.1967352748118L-7.548866141348497,188.2982367154224L26.643941655900257,184.0704379128444z" style="fill:rgb(115,34,214)"/><path d="M-107.36727078967611,-117.90367253843853L-131.32831147292808,88.12880559278501L-101.28367303355948,94.70271544805841z" style="fill:rgb(83,212,212)"/><path d="M121.28311398217387,129.77156811887386L149.9020894971915,112.64604774461411L146.82666321369615,105.24816414542697zM149.9020894971915,112.64604774461411L121.28311398217387,129.77156811887386L124.59064965521932,137.04222345318848z" style="fill:rgb(203,77,216)"/><path d="M154.52894957749265,-89.29937513271366L144.262428241278,-120.62067715100851L151.44594263782525,-98.43729034702318z" style="fill:rgb(246,167,149)"/><path d="M57.45954640146106,166.75722893298624L26.643941655900257,184.0704379128444L61.28871656494928,173.75616068616495z" style="fill:rgb(139,40,220)"/><path d="M121.28311398217387,129.77156811887386L94.53412492627369,157.79953949481973L124.59064965521932,137.04222345318848z" style="fill:rgb(183,62,221)"/><path d="M89.80571093369102,-162.98305158475833L78.6503626169349,-78.66930513837362L107.58331759857795,10.849040041053932z" style="fill:rgb(83,212,212)"/><path d="M26.643941655900257,184.0704379128444L57.45954640146106,166.75722893298624L22.560323645670167,177.1967352748118z" style="fill:rgb(139,40,220)"/><path d="M90.9697663382304,150.6652578733867L61.28871656494928,173.75616068616495L94.53412492627369,157.79953949481973z" style="fill:rgb(162,50,222)"/><path d="M-150.14990599435126,84.05649151516154L-173.9199313147578,59.796192494380215L-168.2798525849807,67.59514937890485z" style="fill:rgb(34,46,160)"/><path d="M94.53412492627369,157.79953949481973L121.28311398217387,129.77156811887386L90.9697663382304,150.6652578733867z" style="fill:rgb(183,62,221)"/><path d="M61.28871656494928,173.75616068616495L90.9697663382304,150.6652578733867L57.45954640146106,166.75722893298624z" style="fill:rgb(162,50,222)"/><path d="M-80.8252414106982,-134.72304605232534L-101.28367303355948,94.70271544805841L-66.8336999114873,95.24563446969137zM144.262428241278,-120.62067715100851L151.70552142490874,-73.1284940196531L151.44594263782525,-98.43729034702318z" style="fill:rgb(83,212,212)"/><path d="M-173.9199313147578,59.796192494380215L-150.14990599435126,84.05649151516154L-155.7846074426527,76.19428428029082z" style="fill:rgb(34,46,160)"/><path d="M151.70552142490874,-73.1284940196531L154.52894957749265,-89.29937513271366L151.44594263782525,-98.43729034702318z" style="fill:rgb(246,149,167)"/><path d="M-52.49099901534122,-148.62093390804563L-66.8336999114873,95.24563446969137L-29.584893503865356,89.42390210237468zM130.9518656871215,-139.01152396428566L144.50626783385783,-45.637548357051436L151.70552142490874,-73.1284940196531z" style="fill:rgb(83,212,212)"/><path d="M154.52894957749265,-89.29937513271366L151.70552142490874,-73.1284940196531L154.86261878453092,-63.97254692047111z" style="fill:rgb(246,149,167)"/><path d="M112.46286953915539,-153.19780277448723L129.69169499400925,-17.172466298809884L144.50626783385783,-45.637548357051436zM-23.077693997545474,-159.23858627983338L-29.584893503865356,89.42390210237468L8.53068123496732,77.32541278471383zM43.63595875412584,-66.74249879915776L79.03539107752583,36.90192526520156L44.74489403611093,-64.70569069257766zM43.191183805514115,-69.04019375545408L45.41996476480826,59.49457609536006L43.63595875412584,-66.74249879915776zM78.5009101134893,-76.18962494893779L107.58331759857795,10.849040041053932L78.6503626169349,-78.66930513837362z" style="fill:rgb(83,212,212)"/><path d="M-125.7653371838556,96.0758694048194L-155.7846074426527,76.19428428029082L-150.14990599435126,84.05649151516154z" style="fill:rgb(51,38,177)"/><path d="M77.6662021379406,-73.60735535164747L107.58331759857795,10.849040041053932L78.5009101134893,-76.18962494893779zM44.74489403611093,-64.70569069257766L79.03539107752583,36.90192526520156L46.480424684710016,-63.01026483129157zM89.80571093369102,-162.98305158475833L107.58331759857795,10.849040041053932L129.69169499400925,-17.172466298809884zM76.17481891073561,-71.02369105196325L107.58331759857795,10.849040041053932L77.6662021379406,-73.60735535164747zM6.672854328312556,-166.25089611548944L8.53068123496732,77.32541278471383L45.41996476480826,59.49457609536006zM46.480424684710016,-63.01026483129157L79.03539107752583,36.90192526520156L48.77999092906789,-61.72466630090801zM74.08237477687085,-68.54107291296823L107.58331759857795,10.849040041053932L76.17481891073561,-71.02369105196325zM48.77999092906789,-61.72466630090801L79.03539107752583,36.90192526520156L51.55779968143464,-60.90216043504614zM51.55779968143464,-60.90216043504614L79.03539107752583,36.90192526520156L54.70770165930399,-60.578206365444345zM54.70770165930399,-60.578206365444345L79.03539107752583,36.90192526520156L58.10713858223475,-60.76848551830022zM58.10713858223475,-60.76848551830022L79.03539107752583,36.90192526520156L61.62210759759972,-61.467778445409536zM71.46969936526658,-66.25875011353799L79.03539107752583,36.90192526520156L74.08237477687085,-68.54107291296823zM61.62210759759972,-61.467778445409536L79.03539107752583,36.90192526520156L65.1127762535574,-62.649863408941314zM68.43963847204309,-64.26837551683202L79.03539107752583,36.90192526520156L71.46969936526658,-66.25875011353799zM65.1127762535574,-62.649863408941314L79.03539107752583,36.90192526520156L68.43963847204309,-64.26837551683202z" style="fill:rgb(83,212,212)"/><path d="M-155.7846074426527,76.19428428029082L-125.7653371838556,96.0758694048194L-131.32831147292808,88.12880559278501z" style="fill:rgb(51,38,177)"/><path d="M144.50626783385783,-45.637548357051436L154.86261878453092,-63.97254692047111L151.70552142490874,-73.1284940196531zM154.86261878453092,-63.97254692047111L144.50626783385783,-45.637548357051436L147.79501751685905,-36.50606560994873z" style="fill:rgb(242,130,183)"/><path d="M-125.7653371838556,96.0758694048194L-101.28367303355948,94.70271544805841L-131.32831147292808,88.12880559278501zM-101.28367303355948,94.70271544805841L-125.7653371838556,96.0758694048194L-95.86181050981087,102.75741290472328z" style="fill:rgb(71,33,192)"/><path d="M129.69169499400925,-17.172466298809884L147.79501751685905,-36.50606560994873L144.50626783385783,-45.637548357051436zM147.79501751685905,-36.50606560994873L129.69169499400925,-17.172466298809884L133.1707950083248,-8.108333326899999z" style="fill:rgb(233,112,197)"/><path d="M74.08237477687085,-68.54107291296823L79.03539107752583,36.90192526520156L107.58331759857795,10.849040041053932zM43.63595875412584,-66.74249879915776L45.41996476480826,59.49457609536006L79.03539107752583,36.90192526520156z" style="fill:rgb(83,212,212)"/><path d="M-95.86181050981087,102.75741290472328L-66.8336999114873,95.24563446969137L-101.28367303355948,94.70271544805841zM-66.8336999114873,95.24563446969137L-95.86181050981087,102.75741290472328L-61.61916809158315,103.43028939003997z" style="fill:rgb(92,32,204)"/><path d="M107.58331759857795,10.849040041053932L133.1707950083248,-8.108333326899999L129.69169499400925,-17.172466298809884zM133.1707950083248,-8.108333326899999L107.58331759857795,10.849040041053932L111.3071943750823,19.806743782864668z" style="fill:rgb(220,94,208)"/><path d="M-61.61916809158315,103.43028939003997L-29.584893503865356,89.42390210237468L-66.8336999114873,95.24563446969137zM-29.584893503865356,89.42390210237468L-61.61916809158315,103.43028939003997L-24.633784779872002,97.75779843197155z" style="fill:rgb(115,34,214)"/><path d="M79.03539107752583,36.90192526520156L111.3071943750823,19.806743782864668L107.58331759857795,10.849040041053932zM111.3071943750823,19.806743782864668L79.03539107752583,36.90192526520156L83.04776178052894,45.72198787387674z" style="fill:rgb(203,77,216)"/><path d="M8.53068123496732,77.32541278471383L-24.633784779872002,97.75779843197155L13.179015224388058,85.82160338469347z" style="fill:rgb(139,40,220)"/><path d="M79.03539107752583,36.90192526520156L49.74765363889743,68.1567098787867L83.04776178052894,45.72198787387674z" style="fill:rgb(183,62,221)"/><path d="M-24.633784779872002,97.75779843197155L8.53068123496732,77.32541278471383L-29.584893503865356,89.42390210237468z" style="fill:rgb(139,40,220)"/><path d="M45.41996476480826,59.49457609536006L13.179015224388058,85.82160338469347L49.74765363889743,68.1567098787867z" style="fill:rgb(162,50,222)"/><path d="M49.74765363889743,68.1567098787867L79.03539107752583,36.90192526520156L45.41996476480826,59.49457609536006z" style="fill:rgb(183,62,221)"/><path d="M13.179015224388058,85.82160338469347L45.41996476480826,59.49457609536006L8.53068123496732,77.32541278471383z" style="fill:rgb(162,50,222)"/></svg>
