<?xml version="1.0" encoding="UTF-8"?>
<!-- Generated by jsxcad -->
<!DOCTYPE svg PUBLIC "-//W3C//DTD SVG 1.1 Tiny//EN" "http://www.w3.org/Graphics/SVG/1.1/DTD/svg11-tiny.dtd">
<svg viewBox="-250 -250 500 500" width="500" height="500" xmlns="http://www.w3.org/2000/svg"><path d="M-137.8988366574984,35.19342722957917L-144.01738006130242,82.94908912628436L-127.00012576016553,11.510022118148878zM-127.00012576016553,11.510022118148878L-126.43983645640525,125.45044844776469L-111.64093672643725,-11.088088121866466zM-111.64093672643725,-11.088088121866466L-108.42076841264782,142.2819374547603L-92.45295112774093,-32.00471876921647zM-92.45295112774093,-32.00471876921647L-84.63407229424675,154.8346876050374L-70.08715312490938,-50.72564608165365zM-70.08715312490938,-50.72564608165365L-55.83192932405569,162.22567582356933L-45.20554383174333,-66.80420192030863zM-144.01738006130242,82.94908912628436L-137.8988366574984,35.19342722957917L-143.74444035336822,59.27101645821334zM-45.20554383174333,-66.80420192030863L-23.166260975390344,163.78541059310305L-18.48199478576116,-79.8483038319737zM-127.00012576016553,11.510022118148878L-144.01738006130242,82.94908912628436L-138.32004530352063,105.33394326515496zM-18.48199478576116,-79.8483038319737L11.844574374649907,159.15957476599746L9.390641468868044,-89.51102744265611zM9.390641468868044,-89.51102744265611L47.40971263191652,148.38822071702947L37.68968620321822,-95.48626424867824zM37.68968620321822,-95.48626424867824L81.614695711779,131.94051165305365L65.65076511211429,-97.51086014637899zM-127.00012576016553,11.510022118148878L-138.32004530352063,105.33394326515496L-126.43983645640525,125.45044844776469zM65.65076511211429,-97.51086014637899L112.60321672181988,110.69126429872556L92.45780577459287,-95.37429417765169zM-111.64093672643725,-11.088088121866466L-126.43983645640525,125.45044844776469L-108.42076841264782,142.2819374547603zM92.45780577459287,-95.37429417765169L138.7580044741132,85.83914214395135L117.23847483326033,-88.93679028270323zM117.23847483326033,-88.93679028270323L158.84533517032193,58.7817646946413L139.0690210633176,-78.15607781629541zM-92.45295112774093,-32.00471876921647L-108.42076841264782,142.2819374547603L-84.63407229424675,154.8346876050374z" style="fill:rgb(83,212,212)"/><path d="M-16.216312738598866,40.92510636811259L-44.34368759138558,-8.336943897097465L-19.099398835155938,37.32676311502683z" style="fill:rgb(21,57,142)"/><path d="M19.470506728395293,-39.38048789910646L42.79411647307274,12.322115410712232L41.977527376155486,7.713603128035762zM170.0608377337422,-44.09647309964958L179.00020745780014,-16.76753331918978L171.66935703712173,-39.32522226220371z" style="fill:rgb(246,167,149)"/><path d="M139.0690210633176,-78.15607781629541L158.84533517032193,58.7817646946413L156.9933788106376,-63.12204857086423z" style="fill:rgb(83,212,212)"/><path d="M-12.269465538953957,43.761788754431755L-41.45439426318542,-4.801259694492591L-16.216312738598866,40.92510636811259z" style="fill:rgb(34,46,160)"/><path d="M156.9933788106376,-63.12204857086423L178.22947706364178,3.794027342939736L170.0608377337422,-44.09647309964958zM-70.08715312490938,-50.72564608165365L-84.63407229424675,154.8346876050374L-55.83192932405569,162.22567582356933z" style="fill:rgb(83,212,212)"/><path d="M42.79411647307274,12.322115410712232L19.65644268868441,-29.814286728979155L42.360771939086185,17.289167378873668z" style="fill:rgb(246,149,167)"/><path d="M-7.401093873662569,45.71401330254815L-37.44600690501147,-2.0511666197980793L-12.269465538953957,43.761788754431755z" style="fill:rgb(51,38,177)"/><path d="M42.360771939086185,17.289167378873668L17.802530904739147,-24.639548224154115L40.6783685431895,22.421538413559478z" style="fill:rgb(242,130,183)"/><path d="M179.00020745780014,-16.76753331918978L170.0608377337422,-44.09647309964958L177.3858072091064,-21.552554362512065z" style="fill:rgb(246,167,149)"/><path d="M-26.690310515908884,0.6453963286307507L-7.401093873662569,45.71401330254815L-1.7953350072818064,46.69252900227558z" style="fill:rgb(71,33,192)"/><path d="M40.6783685431895,22.421538413559478L14.711123808348093,-19.474754615512456L37.800047350610306,27.514312274038648z" style="fill:rgb(233,112,197)"/><path d="M-40.36362510292807,-32.069319954081415L-37.44600690501147,-2.0511666197980793L-36.195188860744956,-36.759324410055065zM-36.195188860744956,-36.759324410055065L-32.46199327899421,-0.20700451236783068L-31.189130274905036,-41.02197938182269zM-43.53728813314632,-27.1182649760412L-41.45439426318542,-4.801259694492591L-40.36362510292807,-32.069319954081415zM-31.189130274905036,-41.02197938182269L-26.690310515908884,0.6453963286307507L-25.528358170904397,-44.70731352976608z" style="fill:rgb(83,212,212)"/><path d="M-44.34368759138558,-8.336943897097465L-16.216312738598866,40.92510636811259L-41.45439426318542,-4.801259694492591z" style="fill:rgb(21,57,142)"/><path d="M-45.59030567296657,-22.084435486523454L-44.34368759138558,-8.336943897097465L-43.53728813314632,-27.1182649760412zM-25.528358170904397,-44.70731352976608L-20.356895064829235,0.460381592368538L-19.415918226801395,-47.68546305305584z" style="fill:rgb(83,212,212)"/><path d="M-20.356895064829235,0.460381592368538L-1.7953350072818064,46.69252900227558L4.328253200677542,46.64733133241362z" style="fill:rgb(92,32,204)"/><path d="M-45.20554383174333,-66.80420192030863L-55.83192932405569,162.22567582356933L-23.166260975390344,163.78541059310305zM-46.01864378787897,-12.51024307718556L-45.59030567296657,-22.084435486523454L-46.43338616942307,-17.15300517974569z" style="fill:rgb(83,212,212)"/><path d="M42.79411647307274,12.322115410712232L19.470506728395293,-39.38048789910646L20.213901170431154,-34.79238242392393z" style="fill:rgb(246,167,149)"/><path d="M-19.415918226801395,-47.68546305305584L-13.716466180540406,-0.7636707645157221L-13.069290715823792,-49.84999848482177z" style="fill:rgb(83,212,212)"/><path d="M-105.4764309814428,146.39022816494224L-126.43983645640525,125.45044844776469L-123.48292324950818,129.53917412645927z" style="fill:rgb(34,46,160)"/><path d="M37.800047350610306,27.514312274038648L10.49552878874258,-14.530700191251782L33.83110734806084,32.35988505732168z" style="fill:rgb(220,94,208)"/><path d="M-13.069290715823792,-49.84999848482177L-13.716466180540406,-0.7636707645157221L-6.714518580132781,-51.120857157221785z" style="fill:rgb(83,212,212)"/><path d="M-13.716466180540406,-0.7636707645157221L4.328253200677542,46.64733133241362L10.723664646667311,45.571588133913835z" style="fill:rgb(115,34,214)"/><path d="M33.83110734806084,32.35988505732168L5.320033999301411,-10.012373664689239L28.925876790197687,36.75776660340646z" style="fill:rgb(203,77,216)"/><path d="M-41.45439426318542,-4.801259694492591L-12.269465538953957,43.761788754431755L-37.44600690501147,-2.0511666197980793z" style="fill:rgb(34,46,160)"/><path d="M-7.041008569215844,-2.9828220131275547L10.723664646667311,45.571588133913835L17.129526663863285,43.50332672730236z" style="fill:rgb(139,40,220)"/><path d="M5.320033999301411,-10.012373664689239L23.281606462976455,40.524561856076666L28.925876790197687,36.75776660340646z" style="fill:rgb(183,62,221)"/><path d="M19.65644268868441,-29.814286728979155L42.79411647307274,12.322115410712232L20.213901170431154,-34.79238242392393z" style="fill:rgb(246,149,167)"/><path d="M-45.59030567296657,-22.084435486523454L-46.01864378787897,-12.51024307718556L-44.34368759138558,-8.336943897097465zM-6.714518580132781,-51.120857157221785L-0.6066649624771683,-6.108702908250246L-0.5800901698493688,-51.44694485139896z" style="fill:rgb(83,212,212)"/><path d="M-0.6066649624771683,-6.108702908250246L17.129526663863285,43.50332672730236L23.281606462976455,40.524561856076666z" style="fill:rgb(162,50,222)"/><path d="M170.0608377337422,-44.09647309964958L178.22947706364178,3.794027342939736L177.3858072091064,-21.552554362512065zM-0.5800901698493688,-51.44694485139896L5.320033999301411,-10.012373664689239L5.109545033948713,-50.80836904817375zM-43.53728813314632,-27.1182649760412L-44.34368759138558,-8.336943897097465L-41.45439426318542,-4.801259694492591zM5.109545033948713,-50.80836904817375L10.49552878874258,-14.530700191251782L10.140893355776331,-49.21821115569343zM-40.36362510292807,-32.069319954081415L-41.45439426318542,-4.801259694492591L-37.44600690501147,-2.0511666197980793z" style="fill:rgb(83,212,212)"/><path d="M-37.44600690501147,-2.0511666197980793L-7.401093873662569,45.71401330254815L-32.46199327899421,-0.20700451236783068z" style="fill:rgb(51,38,177)"/><path d="M17.802530904739147,-24.639548224154115L42.360771939086185,17.289167378873668L19.65644268868441,-29.814286728979155z" style="fill:rgb(242,130,183)"/><path d="M10.140893355776331,-49.21821115569343L14.711123808348093,-19.474754615512456L14.318753616019734,-46.72364811810659zM-18.48199478576116,-79.8483038319737L-23.166260975390344,163.78541059310305L11.844574374649907,159.15957476599746zM-36.195188860744956,-36.759324410055065L-37.44600690501147,-2.0511666197980793L-32.46199327899421,-0.20700451236783068z" style="fill:rgb(83,212,212)"/><path d="M-126.43983645640525,125.45044844776469L-105.4764309814428,146.39022816494224L-108.42076841264782,142.2819374547603z" style="fill:rgb(34,46,160)"/><path d="M-7.401093873662569,45.71401330254815L-26.690310515908884,0.6453963286307507L-32.46199327899421,-0.20700451236783068z" style="fill:rgb(71,33,192)"/><path d="M178.22947706364178,3.794027342939736L179.00020745780014,-16.76753331918978L177.3858072091064,-21.552554362512065z" style="fill:rgb(246,149,167)"/><path d="M156.9933788106376,-63.12204857086423L172.09815116982284,30.97355383897834L178.22947706364178,3.794027342939736zM14.318753616019734,-46.72364811810659L17.802530904739147,-24.639548224154115L17.473853747411525,-43.4061394455011z" style="fill:rgb(83,212,212)"/><path d="M14.711123808348093,-19.474754615512456L40.6783685431895,22.421538413559478L17.802530904739147,-24.639548224154115z" style="fill:rgb(233,112,197)"/><path d="M-31.189130274905036,-41.02197938182269L-32.46199327899421,-0.20700451236783068L-26.690310515908884,0.6453963286307507zM17.473853747411525,-43.4061394455011L19.65644268868441,-29.814286728979155L19.470506728395293,-39.38048789910646z" style="fill:rgb(83,212,212)"/><path d="M-1.7953350072818064,46.69252900227558L-20.356895064829235,0.460381592368538L-26.690310515908884,0.6453963286307507z" style="fill:rgb(92,32,204)"/><path d="M-25.528358170904397,-44.70731352976608L-26.690310515908884,0.6453963286307507L-20.356895064829235,0.460381592368538z" style="fill:rgb(83,212,212)"/><path d="M10.49552878874258,-14.530700191251782L37.800047350610306,27.514312274038648L14.711123808348093,-19.474754615512456z" style="fill:rgb(220,94,208)"/><path d="M-19.415918226801395,-47.68546305305584L-20.356895064829235,0.460381592368538L-13.716466180540406,-0.7636707645157221z" style="fill:rgb(83,212,212)"/><path d="M4.328253200677542,46.64733133241362L-13.716466180540406,-0.7636707645157221L-20.356895064829235,0.460381592368538z" style="fill:rgb(115,34,214)"/><path d="M19.470506728395293,-39.38048789910646L19.65644268868441,-29.814286728979155L20.213901170431154,-34.79238242392393z" style="fill:rgb(83,212,212)"/><path d="M179.00020745780014,-16.76753331918978L178.22947706364178,3.794027342939736L179.87728654777518,8.57286486346731z" style="fill:rgb(246,149,167)"/><path d="M5.320033999301411,-10.012373664689239L33.83110734806084,32.35988505732168L10.49552878874258,-14.530700191251782z" style="fill:rgb(203,77,216)"/><path d="M9.390641468868044,-89.51102744265611L11.844574374649907,159.15957476599746L47.40971263191652,148.38822071702947zM17.473853747411525,-43.4061394455011L17.802530904739147,-24.639548224154115L19.65644268868441,-29.814286728979155zM-6.714518580132781,-51.120857157221785L-13.716466180540406,-0.7636707645157221L-7.041008569215844,-2.9828220131275547z" style="fill:rgb(83,212,212)"/><path d="M10.723664646667311,45.571588133913835L-7.041008569215844,-2.9828220131275547L-13.716466180540406,-0.7636707645157221z" style="fill:rgb(139,40,220)"/><path d="M-6.714518580132781,-51.120857157221785L-7.041008569215844,-2.9828220131275547L-0.6066649624771683,-6.108702908250246zM14.318753616019734,-46.72364811810659L14.711123808348093,-19.474754615512456L17.802530904739147,-24.639548224154115z" style="fill:rgb(83,212,212)"/><path d="M23.281606462976455,40.524561856076666L5.320033999301411,-10.012373664689239L-0.6066649624771683,-6.108702908250246z" style="fill:rgb(183,62,221)"/><path d="M17.129526663863285,43.50332672730236L-0.6066649624771683,-6.108702908250246L-7.041008569215844,-2.9828220131275547z" style="fill:rgb(162,50,222)"/><path d="M-0.5800901698493688,-51.44694485139896L-0.6066649624771683,-6.108702908250246L5.320033999301411,-10.012373664689239zM10.140893355776331,-49.21821115569343L10.49552878874258,-14.530700191251782L14.711123808348093,-19.474754615512456zM5.109545033948713,-50.80836904817375L5.320033999301411,-10.012373664689239L10.49552878874258,-14.530700191251782zM117.23847483326033,-88.93679028270323L138.7580044741132,85.83914214395135L158.84533517032193,58.7817646946413zM37.68968620321822,-95.48626424867824L47.40971263191652,148.38822071702947L81.614695711779,131.94051165305365z" style="fill:rgb(83,212,212)"/><path d="M-81.73634222764278,158.97429255596614L-108.42076841264782,142.2819374547603L-105.4764309814428,146.39022816494224z" style="fill:rgb(51,38,177)"/><path d="M156.9933788106376,-63.12204857086423L158.84533517032193,58.7817646946413L172.09815116982284,30.97355383897834zM92.45780577459287,-95.37429417765169L112.60321672181988,110.69126429872556L138.7580044741132,85.83914214395135zM65.65076511211429,-97.51086014637899L81.614695711779,131.94051165305365L112.60321672181988,110.69126429872556z" style="fill:rgb(83,212,212)"/><path d="M-108.42076841264782,142.2819374547603L-81.73634222764278,158.97429255596614L-84.63407229424675,154.8346876050374z" style="fill:rgb(51,38,177)"/><path d="M172.09815116982284,30.97355383897834L179.87728654777518,8.57286486346731L178.22947706364178,3.794027342939736zM179.87728654777518,8.57286486346731L172.09815116982284,30.97355383897834L173.80945369743233,35.725125510477646z" style="fill:rgb(242,130,183)"/><path d="M-81.73634222764278,158.97429255596614L-55.83192932405569,162.22567582356933L-84.63407229424675,154.8346876050374zM-55.83192932405569,162.22567582356933L-81.73634222764278,158.97429255596614L-53.01564921397457,166.4095337951574z" style="fill:rgb(71,33,192)"/><path d="M158.84533517032193,58.7817646946413L173.80945369743233,35.725125510477646L172.09815116982284,30.97355383897834zM173.80945369743233,35.725125510477646L158.84533517032193,58.7817646946413L160.65086855935917,63.48573846914578z" style="fill:rgb(233,112,197)"/><path d="M-53.01564921397457,166.4095337951574L-23.166260975390344,163.78541059310305L-55.83192932405569,162.22567582356933zM-23.166260975390344,163.78541059310305L-53.01564921397457,166.4095337951574L-20.463989042379755,168.02685539045294z" style="fill:rgb(92,32,204)"/><path d="M138.7580044741132,85.83914214395135L160.65086855935917,63.48573846914578L158.84533517032193,58.7817646946413zM160.65086855935917,63.48573846914578L138.7580044741132,85.83914214395135L140.68646225088125,90.4780132895847z" style="fill:rgb(220,94,208)"/><path d="M-20.463989042379755,168.02685539045294L11.844574374649907,159.15957476599746L-23.166260975390344,163.78541059310305zM11.844574374649907,159.15957476599746L-20.463989042379755,168.02685539045294L14.40596639391092,163.47100816480116z" style="fill:rgb(115,34,214)"/><path d="M112.60321672181988,110.69126429872556L140.68646225088125,90.4780132895847L138.7580044741132,85.83914214395135zM140.68646225088125,90.4780132895847L112.60321672181988,110.69126429872556L114.67806934338486,115.25224135563785z" style="fill:rgb(203,77,216)"/><path d="M14.40596639391092,163.47100816480116L47.40971263191652,148.38822071702947L11.844574374649907,159.15957476599746zM47.40971263191652,148.38822071702947L14.40596639391092,163.47100816480116L49.812166264370575,152.779402714673z" style="fill:rgb(139,40,220)"/><path d="M112.60321672181988,110.69126429872556L83.85109444694585,136.41680055746386L114.67806934338486,115.25224135563785z" style="fill:rgb(183,62,221)"/><path d="M81.614695711779,131.94051165305365L49.812166264370575,152.779402714673L83.85109444694585,136.41680055746386z" style="fill:rgb(162,50,222)"/><path d="M83.85109444694585,136.41680055746386L112.60321672181988,110.69126429872556L81.614695711779,131.94051165305365z" style="fill:rgb(183,62,221)"/><path d="M49.812166264370575,152.779402714673L81.614695711779,131.94051165305365L47.40971263191652,148.38822071702947z" style="fill:rgb(162,50,222)"/></svg>
