<?xml version="1.0" encoding="UTF-8"?>
<!-- Generated by jsxcad -->
<!DOCTYPE svg PUBLIC "-//W3C//DTD SVG 1.1 Tiny//EN" "http://www.w3.org/Graphics/SVG/1.1/DTD/svg11-tiny.dtd">
<svg viewBox="-250 -250 500 500" width="500" height="500" xmlns="http://www.w3.org/2000/svg"><path d="M-119.10216152703252,23.779092352502133L-117.64761342400116,137.60810163215547L-104.03938807838458,1.2657464249092616zM-104.03938807838458,1.2657464249092616L-99.6677357672079,154.4952133426891L-85.15937347914223,-19.546773638970688zM-129.72586389499122,47.39718280941455L-129.58053477058635,117.46652352499885L-119.10216152703252,23.779092352502133zM-85.15937347914223,-19.546773638970688L-76.02129676357735,167.13861949984042L-63.1052507073723,-38.14439983152973zM-63.1052507073723,-38.14439983152973L-47.462727886803584,174.65893370307413L-38.5329366958495,-54.08102737233732zM-135.40891464936288,95.082967646607L-129.72586389499122,47.39718280941455L-135.3299598096415,71.42933098718129zM-38.5329366958495,-54.08102737233732L-15.137044918443065,176.38793715572194L-12.111464787588249,-66.96589143386008zM-12.111464787588249,-66.96589143386008L19.45438480922049,171.96869967253488L15.470395789638083,-76.4544169135414zM-129.72586389499122,47.39718280941455L-135.40891464936288,95.082967646607L-129.58053477058635,117.46652352499885zM15.470395789638083,-76.4544169135414L54.546888155662984,161.43348819886043L43.49382915350367,-82.2441736165066zM43.49382915350367,-82.2441736165066L88.25850108745291,145.23849455639606L71.19863613676975,-84.07719883630813zM-119.10216152703252,23.779092352502133L-129.58053477058635,117.46652352499885L-117.64761342400116,137.60810163215547zM71.19863613676975,-84.07719883630813L118.76736766401199,124.24141131964181L97.77378480824265,-81.7498682158418zM-104.03938807838458,1.2657464249092616L-117.64761342400116,137.60810163215547L-99.6677357672079,154.4952133426891zM97.77378480824265,-81.7498682158418L144.487752298169,99.62195307479821L122.3532732952447,-75.13096076297057zM122.3532732952447,-75.13096076297057L164.21057556521663,72.75987363913757L144.02132306548145,-64.18828142453383zM-85.15937347914223,-19.546773638970688L-99.6677357672079,154.4952133426891L-76.02129676357735,167.13861949984042zM144.02132306548145,-64.18828142453383L177.18423654674953,45.095468729586116L161.83155369279874,-49.02278489398743z" style="fill:rgb(83,212,212)"/><path d="M174.84435307019663,-29.907440240846803L184.42664020792992,-0.683798531783963L177.07853908504094,-23.280312139713743z" style="fill:rgb(246,167,149)"/><path d="M161.83155369279874,-49.02278489398743L183.12779556051592,17.99970453227186L174.84435307019663,-29.907440240846803zM-63.1052507073723,-38.14439983152973L-76.02129676357735,167.13861949984042L-47.462727886803584,174.65893370307413zM-164.81989291757893,-47.24096317789449L-168.87985828996693,66.76547895994284L-148.00393585396762,-70.18431858320383zM-148.00393585396762,-70.18431858320383L-150.74922863377998,83.22024118074717L-127.3159119954372,-91.55308105239261z" style="fill:rgb(83,212,212)"/><path d="M-20.443431597303633,62.645244376325046L-63.09506657363631,-10.365718566285876L-24.4835039919249,57.4225715515665z" style="fill:rgb(21,57,142)"/><path d="M-177.0849110215717,-23.318628043673876L-180.42810768495815,46.87768750308511L-164.81989291757893,-47.24096317789449zM-127.3159119954372,-91.55308105239261L-126.35693247512911,95.23074713660044L-103.44351510517784,-110.83316076202335z" style="fill:rgb(83,212,212)"/><path d="M28.99353829313441,-55.19254947449545L63.03598083762349,22.227712839645655L61.74923600384143,15.654706432968092zM184.42664020792992,-0.683798531783963L174.84435307019663,-29.907440240846803L182.18579973712127,-7.325564760321149z" style="fill:rgb(246,167,149)"/><path d="M-185.42048243025138,24.59018838672358L-177.0849110215717,-23.318628043673876L-184.14799249729896,0.8908730459823178zM-103.44351510517784,-110.83316076202335L-96.43830796530744,101.90097079908877L-77.07696091247253,-127.57590666794502z" style="fill:rgb(83,212,212)"/><path d="M-14.879809851736807,66.802944279687L-59.05234694883515,-5.268152437583765L-20.443431597303633,62.645244376325046zM-95.58264417812502,160.19520722498402L-117.64761342400116,137.60810163215547L-113.54235222905797,143.28475215073692z" style="fill:rgb(34,46,160)"/><path d="M-38.5329366958495,-54.08102737233732L-47.462727886803584,174.65893370307413L-15.137044918443065,176.38793715572194zM-77.07696091247253,-127.57590666794502L-62.173550169024566,102.5601393437444L-48.912066645466595,-141.3836518380524z" style="fill:rgb(83,212,212)"/><path d="M63.03598083762349,22.227712839645655L29.395003635577464,-41.54073602376091L62.548311881321425,29.330026035740065z" style="fill:rgb(246,149,167)"/><path d="M174.84435307019663,-29.907440240846803L183.12779556051592,17.99970453227186L182.18579973712127,-7.325564760321149z" style="fill:rgb(83,212,212)"/><path d="M-7.987102867850246,69.70820114598594L-53.365358700100764,-1.2866469572835555L-14.879809851736807,66.802944279687z" style="fill:rgb(51,38,177)"/><path d="M62.548311881321425,29.330026035740065L26.760325058204895,-34.09389911639185L60.272911836845374,36.684261041414814z" style="fill:rgb(242,130,183)"/><path d="M-117.64761342400116,137.60810163215547L-95.58264417812502,160.19520722498402L-99.6677357672079,154.4952133426891z" style="fill:rgb(34,46,160)"/><path d="M-48.912066645466595,-141.3836518380524L-25.16011080447882,96.87186485493265L-19.65996933894831,-151.89882349655377zM-12.111464787588249,-66.96589143386008L-15.137044918443065,176.38793715572194L19.45438480922049,171.96869967253488z" style="fill:rgb(83,212,212)"/><path d="M183.12779556051592,17.99970453227186L184.42664020792992,-0.683798531783963L182.18579973712127,-7.325564760321149z" style="fill:rgb(246,149,167)"/><path d="M161.83155369279874,-49.02278489398743L177.18423654674953,45.095468729586116L183.12779556051592,17.99970453227186z" style="fill:rgb(83,212,212)"/><path d="M-37.91121966104476,2.643691105705362L-7.987102867850246,69.70820114598594L-0.02382732624510098,71.22039659426947z" style="fill:rgb(71,33,192)"/><path d="M-177.0849110215717,-23.318628043673876L-185.42048243025138,24.59018838672358L-180.42810768495815,46.87768750308511z" style="fill:rgb(83,212,212)"/><path d="M60.272911836845374,36.684261041414814L22.307827879657722,-26.62720039185616L56.2734511427053,43.992412420462095z" style="fill:rgb(233,112,197)"/><path d="M-50.82067703068606,-50.87005716121943L-53.365358700100764,-1.2866469572835555L-43.643910610601836,-56.916249171206196zM-61.45294669498863,-37.19216896517741L-63.09506657363631,-10.365718566285876L-56.831777218948645,-44.21959204441133z" style="fill:rgb(83,212,212)"/><path d="M184.42664020792992,-0.683798531783963L183.12779556051592,17.99970453227186L185.413496519968,24.62850277760056z" style="fill:rgb(246,149,167)"/><path d="M-63.09506657363631,-10.365718566285876L-20.443431597303633,62.645244376325046L-59.05234694883515,-5.268152437583765z" style="fill:rgb(21,57,142)"/><path d="M-56.831777218948645,-44.21959204441133L-53.365358700100764,-1.2866469572835555L-50.82067703068606,-50.87005716121943zM-19.65996933894831,-151.89882349655377L12.684901183090469,84.9184625457785L9.939407163475824,-158.79828033745414z" style="fill:rgb(83,212,212)"/><path d="M-28.737458004917265,2.3829781863616213L-0.02382732624510098,71.22039659426947L8.695986228680459,71.25583403150922z" style="fill:rgb(92,32,204)"/><path d="M-43.643910610601836,-56.916249171206196L-37.91121966104476,2.643691105705362L-35.557660565731695,-62.153795757405256zM15.470395789638083,-76.4544169135414L19.45438480922049,171.96869967253488L54.546888155662984,161.43348819886043zM144.02132306548145,-64.18828142453383L164.21057556521663,72.75987363913757L177.18423654674953,45.095468729586116zM-64.49927191607588,-30.033353199996085L-63.09506657363631,-10.365718566285876L-61.45294669498863,-37.19216896517741z" style="fill:rgb(83,212,212)"/><path d="M56.2734511427053,43.992412420462095L16.19655558650392,-19.452992917959374L50.692222434336166,50.94947953409915z" style="fill:rgb(220,94,208)"/><path d="M-35.557660565731695,-62.153795757405256L-28.737458004917265,2.3829781863616213L-26.843065440779764,-66.40522248150116z" style="fill:rgb(83,212,212)"/><path d="M63.03598083762349,22.227712839645655L28.99353829313441,-55.19254947449545L30.136918178324937,-48.666034948083016z" style="fill:rgb(246,167,149)"/><path d="M-65.3716099980816,-16.35867936474503L-64.49927191607588,-30.033353199996085L-65.83302626644097,-23.001119881176795zM-26.843065440779764,-66.40522248150116L-19.08435242638825,0.6047606477537288L-17.799601677274655,-69.52349913933126z" style="fill:rgb(83,212,212)"/><path d="M-19.08435242638825,0.6047606477537288L8.695986228680459,71.25583403150922L17.815817012849134,69.79519450300177z" style="fill:rgb(115,34,214)"/><path d="M50.692222434336166,50.94947953409915L8.665854134317483,-12.878373599082392L43.74681736953713,57.258960926472746z" style="fill:rgb(203,77,216)"/><path d="M-17.799601677274655,-69.52349913933126L-19.08435242638825,0.6047606477537288L-8.738496469766726,-71.39539341927512zM122.3532732952447,-75.13096076297057L144.487752298169,99.62195307479821L164.21057556521663,72.75987363913757z" style="fill:rgb(83,212,212)"/><path d="M-72.00343601625623,172.87840752593937L-99.6677357672079,154.4952133426891L-95.58264417812502,160.19520722498402z" style="fill:rgb(51,38,177)"/><path d="M43.49382915350367,-82.2441736165066L54.546888155662984,161.43348819886043L88.25850108745291,145.23849455639606z" style="fill:rgb(83,212,212)"/><path d="M8.665854134317483,-12.878373599082392L35.721504663991894,62.64893547140202L43.74681736953713,57.258960926472746z" style="fill:rgb(183,62,221)"/><path d="M-9.358171961515273,-2.629270027646377L17.815817012849134,69.79519450300177L26.95360407462392,66.88737024442634z" style="fill:rgb(139,40,220)"/><path d="M0.025752756277599927,-7.188294667232044L26.95360407462392,66.88737024442634L35.721504663991894,62.64893547140202z" style="fill:rgb(162,50,222)"/><path d="M-59.05234694883515,-5.268152437583765L-14.879809851736807,66.802944279687L-53.365358700100764,-1.2866469572835555z" style="fill:rgb(34,46,160)"/><path d="M29.395003635577464,-41.54073602376091L63.03598083762349,22.227712839645655L30.136918178324937,-48.666034948083016z" style="fill:rgb(246,149,167)"/><path d="M9.939407163475824,-158.79828033745414L49.287627124019096,67.23593980767286L39.10282309834715,-161.79424626022063zM-64.49927191607588,-30.033353199996085L-65.3716099980816,-16.35867936474503L-63.09506657363631,-10.365718566285876zM97.77378480824265,-81.7498682158418L118.76736766401199,124.24141131964181L144.487752298169,99.62195307479821zM-8.738496469766726,-71.39539341927512L0.025752756277599927,-7.188294667232044L0.024139821535257837,-71.94482113022939zM71.19863613676975,-84.07719883630813L88.25850108745291,145.23849455639606L118.76736766401199,124.24141131964181zM-164.81989291757893,-47.24096317789449L-180.42810768495815,46.87768750308511L-168.87985828996693,66.76547895994284zM-56.831777218948645,-44.21959204441133L-63.09506657363631,-10.365718566285876L-59.05234694883515,-5.268152437583765zM0.024139821535257837,-71.94482113022939L0.025752756277599927,-7.188294667232044L8.174865016675426,-71.13620023386267z" style="fill:rgb(83,212,212)"/><path d="M-53.365358700100764,-1.2866469572835555L-7.987102867850246,69.70820114598594L-46.22971464999694,1.3954250458343593z" style="fill:rgb(51,38,177)"/><path d="M26.760325058204895,-34.09389911639185L62.548311881321425,29.330026035740065L29.395003635577464,-41.54073602376091z" style="fill:rgb(242,130,183)"/><path d="M8.174865016675426,-71.13620023386267L16.19655558650392,-19.452992917959374L15.411434705029906,-68.9776899871234zM-56.831777218948645,-44.21959204441133L-59.05234694883515,-5.268152437583765L-53.365358700100764,-1.2866469572835555z" style="fill:rgb(83,212,212)"/><path d="M-99.6677357672079,154.4952133426891L-72.00343601625623,172.87840752593937L-76.02129676357735,167.13861949984042z" style="fill:rgb(51,38,177)"/><path d="M177.18423654674953,45.095468729586116L185.413496519968,24.62850277760056L183.12779556051592,17.99970453227186z" style="fill:rgb(242,130,183)"/><path d="M-43.643910610601836,-56.916249171206196L-53.365358700100764,-1.2866469572835555L-46.22971464999694,1.3954250458343593zM39.10282309834715,-161.79424626022063L49.287627124019096,67.23593980767286L66.99120154656276,-160.64314459535595z" style="fill:rgb(83,212,212)"/><path d="M-7.987102867850246,69.70820114598594L-37.91121966104476,2.643691105705362L-46.22971464999694,1.3954250458343593z" style="fill:rgb(71,33,192)"/><path d="M15.411434705029906,-68.9776899871234L16.19655558650392,-19.452992917959374L21.452517704930525,-65.52400354300505z" style="fill:rgb(83,212,212)"/><path d="M22.307827879657722,-26.62720039185616L60.272911836845374,36.684261041414814L26.760325058204895,-34.09389911639185z" style="fill:rgb(233,112,197)"/><path d="M21.452517704930525,-65.52400354300505L26.760325058204895,-34.09389911639185L26.04856493135925,-60.878277623231234z" style="fill:rgb(83,212,212)"/><path d="M185.413496519968,24.62850277760056L177.18423654674953,45.095468729586116L179.5565473446959,51.68238413676552z" style="fill:rgb(242,130,183)"/><path d="M-43.643910610601836,-56.916249171206196L-46.22971464999694,1.3954250458343593L-37.91121966104476,2.643691105705362zM-148.00393585396762,-70.18431858320383L-168.87985828996693,66.76547895994284L-150.74922863377998,83.22024118074717z" style="fill:rgb(83,212,212)"/><path d="M-0.02382732624510098,71.22039659426947L-28.737458004917265,2.3829781863616213L-37.91121966104476,2.643691105705362z" style="fill:rgb(92,32,204)"/><path d="M-35.557660565731695,-62.153795757405256L-37.91121966104476,2.643691105705362L-28.737458004917265,2.3829781863616213z" style="fill:rgb(83,212,212)"/><path d="M16.19655558650392,-19.452992917959374L56.2734511427053,43.992412420462095L22.307827879657722,-26.62720039185616z" style="fill:rgb(220,94,208)"/><path d="M26.04856493135925,-60.878277623231234L26.760325058204895,-34.09389911639185L28.99353829313441,-55.19254947449545z" style="fill:rgb(83,212,212)"/><path d="M8.695986228680459,71.25583403150922L-19.08435242638825,0.6047606477537288L-28.737458004917265,2.3829781863616213z" style="fill:rgb(115,34,214)"/><path d="M-26.843065440779764,-66.40522248150116L-28.737458004917265,2.3829781863616213L-19.08435242638825,0.6047606477537288zM28.99353829313441,-55.19254947449545L29.395003635577464,-41.54073602376091L30.136918178324937,-48.666034948083016zM66.99120154656276,-160.64314459535595L82.6212426384313,44.784396752090544L92.70273961868092,-155.1633990084417z" style="fill:rgb(83,212,212)"/><path d="M8.665854134317483,-12.878373599082392L50.692222434336166,50.94947953409915L16.19655558650392,-19.452992917959374z" style="fill:rgb(203,77,216)"/><path d="M17.815817012849134,69.79519450300177L-9.358171961515273,-2.629270027646377L-19.08435242638825,0.6047606477537288z" style="fill:rgb(139,40,220)"/><path d="M-72.00343601625623,172.87840752593937L-47.462727886803584,174.65893370307413L-76.02129676357735,167.13861949984042z" style="fill:rgb(71,33,192)"/><path d="M-8.738496469766726,-71.39539341927512L-19.08435242638825,0.6047606477537288L-9.358171961515273,-2.629270027646377z" style="fill:rgb(83,212,212)"/><path d="M35.721504663991894,62.64893547140202L8.665854134317483,-12.878373599082392L0.025752756277599927,-7.188294667232044z" style="fill:rgb(183,62,221)"/><path d="M26.95360407462392,66.88737024442634L0.025752756277599927,-7.188294667232044L-9.358171961515273,-2.629270027646377z" style="fill:rgb(162,50,222)"/><path d="M-8.738496469766726,-71.39539341927512L-9.358171961515273,-2.629270027646377L0.025752756277599927,-7.188294667232044zM21.452517704930525,-65.52400354300505L22.307827879657722,-26.62720039185616L26.760325058204895,-34.09389911639185zM92.70273961868092,-155.1633990084417L132.8008884171337,-9.072059602381032L115.2761939033894,-145.26291822027662zM28.99353829313441,-55.19254947449545L26.760325058204895,-34.09389911639185L29.395003635577464,-41.54073602376091zM8.174865016675426,-71.13620023386267L8.665854134317483,-12.878373599082392L16.19655558650392,-19.452992917959374zM8.174865016675426,-71.13620023386267L0.025752756277599927,-7.188294667232044L8.665854134317483,-12.878373599082392z" style="fill:rgb(83,212,212)"/><path d="M-47.462727886803584,174.65893370307413L-72.00343601625623,172.87840752593937L-43.56002582625498,180.45677716229784z" style="fill:rgb(71,33,192)"/><path d="M21.452517704930525,-65.52400354300505L16.19655558650392,-19.452992917959374L22.307827879657722,-26.62720039185616z" style="fill:rgb(83,212,212)"/><path d="M164.21057556521663,72.75987363913757L179.5565473446959,51.68238413676552L177.18423654674953,45.095468729586116z" style="fill:rgb(233,112,197)"/><path d="M-127.3159119954372,-91.55308105239261L-150.74922863377998,83.22024118074717L-126.35693247512911,95.23074713660044z" style="fill:rgb(83,212,212)"/><path d="M179.5565473446959,51.68238413676552L164.21057556521663,72.75987363913757L166.71216838817472,79.27729788446652z" style="fill:rgb(233,112,197)"/><path d="M115.2761939033894,-145.26291822027662L147.44528985021486,-37.47709489317999L133.70935300282628,-130.9757086823532z" style="fill:rgb(83,212,212)"/><path d="M146.99826460145138,-112.50553357024124L156.8089651703834,-82.5415032687428L149.5889631722735,-104.820905200213z" style="fill:rgb(246,167,149)"/><path d="M-43.56002582625498,180.45677716229784L-15.137044918443065,176.38793715572194L-47.462727886803584,174.65893370307413z" style="fill:rgb(92,32,204)"/><path d="M133.70935300282628,-130.9757086823532L154.52683949582237,-64.94634148853709L146.99826460145138,-112.50553357024124zM-103.44351510517784,-110.83316076202335L-126.35693247512911,95.23074713660044L-96.43830796530744,101.90097079908877z" style="fill:rgb(83,212,212)"/><path d="M-15.137044918443065,176.38793715572194L-43.56002582625498,180.45677716229784L-11.394095796988285,182.2628150392474z" style="fill:rgb(92,32,204)"/><path d="M144.487752298169,99.62195307479821L166.71216838817472,79.27729788446652L164.21057556521663,72.75987363913757z" style="fill:rgb(220,94,208)"/><path d="M156.8089651703834,-82.5415032687428L146.99826460145138,-112.50553357024124L154.2009969083039,-90.27142981791138z" style="fill:rgb(246,167,149)"/><path d="M166.71216838817472,79.27729788446652L144.487752298169,99.62195307479821L147.15851320796224,106.04642249483246z" style="fill:rgb(220,94,208)"/><path d="M-145.98374592052988,89.86961602052462L-168.87985828996693,66.76547895994284L-164.1082531826402,73.36353267564147z" style="fill:rgb(34,46,160)"/><path d="M-11.394095796988285,182.2628150392474L19.45438480922049,171.96869967253488L-15.137044918443065,176.38793715572194z" style="fill:rgb(115,34,214)"/><path d="M-77.07696091247253,-127.57590666794502L-96.43830796530744,101.90097079908877L-62.173550169024566,102.5601393437444z" style="fill:rgb(83,212,212)"/><path d="M19.45438480922049,171.96869967253488L-11.394095796988285,182.2628150392474L23.00098310907453,177.9384598524126z" style="fill:rgb(115,34,214)"/><path d="M118.76736766401199,124.24141131964181L147.15851320796224,106.04642249483246L144.487752298169,99.62195307479821z" style="fill:rgb(203,77,216)"/><path d="M146.99826460145138,-112.50553357024124L154.52683949582237,-64.94634148853709L154.2009969083039,-90.27142981791138z" style="fill:rgb(83,212,212)"/><path d="M147.15851320796224,106.04642249483246L118.76736766401199,124.24141131964181L121.64003595149677,130.55616060190542z" style="fill:rgb(203,77,216)"/><path d="M54.546888155662984,161.43348819886043L23.00098310907453,177.9384598524126L57.872767323258806,167.51250804089912z" style="fill:rgb(139,40,220)"/><path d="M118.76736766401199,124.24141131964181L91.35441221702135,151.43515010863928L121.64003595149677,130.55616060190542z" style="fill:rgb(183,62,221)"/><path d="M23.00098310907453,177.9384598524126L54.546888155662984,161.43348819886043L19.45438480922049,171.96869967253488z" style="fill:rgb(139,40,220)"/><path d="M-168.87985828996693,66.76547895994284L-145.98374592052988,89.86961602052462L-150.74922863377998,83.22024118074717z" style="fill:rgb(34,46,160)"/><path d="M154.52683949582237,-64.94634148853709L156.8089651703834,-82.5415032687428L154.2009969083039,-90.27142981791138z" style="fill:rgb(246,149,167)"/><path d="M-48.912066645466595,-141.3836518380524L-62.173550169024566,102.5601393437444L-25.16011080447882,96.87186485493265z" style="fill:rgb(83,212,212)"/><path d="M88.25850108745291,145.23849455639606L57.872767323258806,167.51250804089912L91.35441221702135,151.43515010863928z" style="fill:rgb(162,50,222)"/><path d="M133.70935300282628,-130.9757086823532L147.44528985021486,-37.47709489317999L154.52683949582237,-64.94634148853709z" style="fill:rgb(83,212,212)"/><path d="M91.35441221702135,151.43515010863928L118.76736766401199,124.24141131964181L88.25850108745291,145.23849455639606z" style="fill:rgb(183,62,221)"/><path d="M57.872767323258806,167.51250804089912L88.25850108745291,145.23849455639606L54.546888155662984,161.43348819886043z" style="fill:rgb(162,50,222)"/><path d="M156.8089651703834,-82.5415032687428L154.52683949582237,-64.94634148853709L157.19661167858706,-57.2036937346505z" style="fill:rgb(246,149,167)"/><path d="M115.2761939033894,-145.26291822027662L132.8008884171337,-9.072059602381032L147.44528985021486,-37.47709489317999zM-19.65996933894831,-151.89882349655377L-25.16011080447882,96.87186485493265L12.684901183090469,84.9184625457785z" style="fill:rgb(83,212,212)"/><path d="M-121.65360172292947,101.94977569343719L-150.74922863377998,83.22024118074717L-145.98374592052988,89.86961602052462z" style="fill:rgb(51,38,177)"/><path d="M92.70273961868092,-155.1633990084417L110.91129622784761,18.85444416048846L132.8008884171337,-9.072059602381032zM9.939407163475824,-158.79828033745414L12.684901183090469,84.9184625457785L49.287627124019096,67.23593980767286zM66.99120154656276,-160.64314459535595L49.287627124019096,67.23593980767286L82.6212426384313,44.784396752090544zM92.70273961868092,-155.1633990084417L82.6212426384313,44.784396752090544L110.91129622784761,18.85444416048846z" style="fill:rgb(83,212,212)"/><path d="M-150.74922863377998,83.22024118074717L-121.65360172292947,101.94977569343719L-126.35693247512911,95.23074713660044z" style="fill:rgb(51,38,177)"/><path d="M147.44528985021486,-37.47709489317999L157.19661167858706,-57.2036937346505L154.52683949582237,-64.94634148853709zM157.19661167858706,-57.2036937346505L147.44528985021486,-37.47709489317999L150.2255447645674,-29.75748963237571z" style="fill:rgb(242,130,183)"/><path d="M-121.65360172292947,101.94977569343719L-96.43830796530744,101.90097079908877L-126.35693247512911,95.23074713660044zM-96.43830796530744,101.90097079908877L-121.65360172292947,101.94977569343719L-91.85556741222449,108.70907739841061z" style="fill:rgb(71,33,192)"/><path d="M132.8008884171337,-9.072059602381032L150.2255447645674,-29.75748963237571L147.44528985021486,-37.47709489317999zM150.2255447645674,-29.75748963237571L132.8008884171337,-9.072059602381032L135.74127682168123,-1.4114373397651787z" style="fill:rgb(233,112,197)"/><path d="M-91.85556741222449,108.70907739841061L-62.173550169024566,102.5601393437444L-96.43830796530744,101.90097079908877zM-62.173550169024566,102.5601393437444L-91.85556741222449,108.70907739841061L-57.7670844498278,109.4764652132553z" style="fill:rgb(92,32,204)"/><path d="M110.91129622784761,18.85444416048846L135.74127682168123,-1.4114373397651787L132.8008884171337,-9.072059602381032zM135.74127682168123,-1.4114373397651787L110.91129622784761,18.85444416048846L114.05789416271737,26.423501465345034z" style="fill:rgb(220,94,208)"/><path d="M-57.7670844498278,109.4764652132553L-25.16011080447882,96.87186485493265L-62.173550169024566,102.5601393437444zM-25.16011080447882,96.87186485493265L-57.7670844498278,109.4764652132553L-20.976962774032245,103.91310175390468z" style="fill:rgb(115,34,214)"/><path d="M82.6212426384313,44.784396752090544L114.05789416271737,26.423501465345034L110.91129622784761,18.85444416048846zM114.05789416271737,26.423501465345034L82.6212426384313,44.784396752090544L86.0111124947564,52.23606731354978z" style="fill:rgb(203,77,216)"/><path d="M12.684901183090469,84.9184625457785L-20.976962774032245,103.91310175390468L16.611859511627454,92.0961280518066z" style="fill:rgb(139,40,220)"/><path d="M82.6212426384313,44.784396752090544L52.94364720023115,74.55368743237473L86.0111124947564,52.23606731354978z" style="fill:rgb(183,62,221)"/><path d="M-20.976962774032245,103.91310175390468L12.684901183090469,84.9184625457785L-25.16011080447882,96.87186485493265z" style="fill:rgb(139,40,220)"/><path d="M49.287627124019096,67.23593980767286L16.611859511627454,92.0961280518066L52.94364720023115,74.55368743237473z" style="fill:rgb(162,50,222)"/><path d="M52.94364720023115,74.55368743237473L82.6212426384313,44.784396752090544L49.287627124019096,67.23593980767286z" style="fill:rgb(183,62,221)"/><path d="M16.611859511627454,92.0961280518066L49.287627124019096,67.23593980767286L12.684901183090469,84.9184625457785z" style="fill:rgb(162,50,222)"/></svg>
