<?xml version="1.0" encoding="UTF-8"?>
<!-- Generated by jsxcad -->
<!DOCTYPE svg PUBLIC "-//W3C//DTD SVG 1.1 Tiny//EN" "http://www.w3.org/Graphics/SVG/1.1/DTD/svg11-tiny.dtd">
<svg viewBox="-250 -250 500 500" width="500" height="500" xmlns="http://www.w3.org/2000/svg"><path d="M-137.8988366574984,35.19342722957917L-144.01738006130242,82.94908912628436L-127.00012576016553,11.510022118148878zM-127.00012576016553,11.510022118148878L-126.43983645640525,125.45044844776469L-111.64093672643725,-11.088088121866466zM-111.64093672643725,-11.088088121866466L-108.42076841264782,142.2819374547603L-92.45295112774093,-32.00471876921647zM-92.45295112774093,-32.00471876921647L-84.63407229424675,154.8346876050374L-70.08715312490938,-50.72564608165365zM-70.08715312490938,-50.72564608165365L-55.83192932405569,162.22567582356933L-45.20554383174333,-66.80420192030863zM-144.01738006130242,82.94908912628436L-137.8988366574984,35.19342722957917L-143.74444035336822,59.27101645821334zM-45.20554383174333,-66.80420192030863L-23.166260975390344,163.78541059310305L-18.48199478576116,-79.8483038319737zM-127.00012576016553,11.510022118148878L-144.01738006130242,82.94908912628436L-138.32004530352063,105.33394326515496zM-18.48199478576116,-79.8483038319737L11.844574374649907,159.15957476599746L9.390641468868044,-89.51102744265611zM9.390641468868044,-89.51102744265611L47.40971263191652,148.38822071702947L37.68968620321822,-95.48626424867824zM37.68968620321822,-95.48626424867824L81.614695711779,131.94051165305365L65.65076511211429,-97.51086014637899zM-127.00012576016553,11.510022118148878L-138.32004530352063,105.33394326515496L-126.43983645640525,125.45044844776469zM65.65076511211429,-97.51086014637899L112.60321672181988,110.69126429872556L92.45780577459287,-95.37429417765169zM-154.75952095475975,-31.612714304658784L-157.53550730177597,82.4521548062807L-138.337098398912,-54.474019127693055zM-138.337098398912,-54.474019127693055L-139.42210478619484,99.02520213234031L-118.05218871057988,-75.72999013179457zM-166.65309240591287,-7.741996748490627L-169.18505837571274,62.485777398653724L-154.75952095475975,-31.612714304658784zM-111.64093672643725,-11.088088121866466L-126.43983645640525,125.45044844776469L-108.42076841264782,142.2819374547603zM-118.05218871057988,-75.72999013179457L-115.18004242885023,111.19768996925114L-94.58282758325868,-94.86636874747425zM92.45780577459287,-95.37429417765169L138.7580044741132,85.83914214395135L117.23847483326033,-88.93679028270323zM-94.58282758325868,-94.86636874747425L-85.55017659356304,118.07634628912007L-68.61190272616595,-111.43491876303132zM-174.3775586532252,40.15551231165291L-166.65309240591287,-7.741996748490627L-173.38244494157797,16.446296062199274zM117.23847483326033,-88.93679028270323L158.84533517032193,58.7817646946413L139.0690210633176,-78.15607781629541zM-68.61190272616595,-111.43491876303132L-51.70597395303791,118.98988994045837L-40.829585752713875,-125.03935162364729zM-92.45295112774093,-32.00471876921647L-108.42076841264782,142.2819374547603L-84.63407229424675,154.8346876050374zM-40.829585752713875,-125.03935162364729L-15.224237836336355,113.59630904391716L-11.942353513198123,-135.32482299942558z" style="fill:rgb(83,212,212)"/><path d="M-16.216312738598866,40.92510636811259L-41.71641456094333,-3.584539737067464L-19.099398835155938,37.32676311502683z" style="fill:rgb(21,57,142)"/><path d="M21.813064302362804,-34.47887720903432L42.79411647307274,12.322115410712232L41.977527376155486,7.713603128035762z" style="fill:rgb(246,167,149)"/><path d="M-166.65309240591287,-7.741996748490627L-174.3775586532252,40.15551231165291L-169.18505837571274,62.485777398653724z" style="fill:rgb(83,212,212)"/><path d="M-12.269465538953957,43.761788754431755L-38.82725470018624,-0.04141202255694657L-16.216312738598866,40.92510636811259z" style="fill:rgb(34,46,160)"/><path d="M170.0608377337422,-44.09647309964958L179.00020745780014,-16.76753331918978L171.66935703712173,-39.32522226220371z" style="fill:rgb(246,167,149)"/><path d="M139.0690210633176,-78.15607781629541L158.84533517032193,58.7817646946413L156.9933788106376,-63.12204857086423zM-11.942353513198123,-135.32482299942558L22.01162856150898,101.96578683789741L17.31425811464866,-141.97263276975673zM156.9933788106376,-63.12204857086423L178.22947706364178,3.794027342939736L170.0608377337422,-44.09647309964958z" style="fill:rgb(83,212,212)"/><path d="M42.79411647307274,12.322115410712232L22.020417178726863,-24.909875587855346L42.360771939086185,17.289167378873668z" style="fill:rgb(246,149,167)"/><path d="M-70.08715312490938,-50.72564608165365L-84.63407229424675,154.8346876050374L-55.83192932405569,162.22567582356933z" style="fill:rgb(83,212,212)"/><path d="M-7.401093873662569,45.71401330254815L-34.82479012714884,2.718580029455572L-12.269465538953957,43.761788754431755z" style="fill:rgb(51,38,177)"/><path d="M-37.810138018268475,-27.313364393156856L-38.82725470018624,-0.04141202255694657L-33.66666915090172,-31.994838981372613z" style="fill:rgb(83,212,212)"/><path d="M42.360771939086185,17.289167378873668L20.18475032748289,-19.738749524552674L40.6783685431895,22.421538413559478z" style="fill:rgb(242,130,183)"/><path d="M-42.99473395867464,-17.338089852340303L-43.396866222170964,-7.76262859809879L-40.96116442753977,-22.36842395762004zM-33.66666915090172,-31.994838981372613L-29.852372712477774,4.574805483236186L-28.6869984761256,-36.246805230480604zM-40.96116442753977,-22.36842395762004L-38.82725470018624,-0.04141202255694657L-37.810138018268475,-27.313364393156856zM-28.6869984761256,-36.246805230480604L-24.09758403233314,5.441045609841299L-23.053128935067555,-39.919624937209775zM17.31425811464866,-141.97263276975673L57.97077593763272,84.6157829001677L46.16184255404223,-144.70148366927845z" style="fill:rgb(83,212,212)"/><path d="M179.00020745780014,-16.76753331918978L170.0608377337422,-44.09647309964958L177.3858072091064,-21.552554362512065z" style="fill:rgb(246,167,149)"/><path d="M-23.053128935067555,-39.919624937209775L-17.78571829966877,5.2711626650328895L-16.967215707995784,-42.88383235470131z" style="fill:rgb(83,212,212)"/><path d="M-24.09758403233314,5.441045609841299L-7.401093873662569,45.71401330254815L-1.7953350072818064,46.69252900227558z" style="fill:rgb(71,33,192)"/><path d="M-41.71641456094333,-3.584539737067464L-16.216312738598866,40.92510636811259L-38.82725470018624,-0.04141202255694657z" style="fill:rgb(21,57,142)"/><path d="M-43.396866222170964,-7.76262859809879L-42.99473395867464,-17.338089852340303L-43.822358982413135,-12.407419969811386zM-16.967215707995784,-42.88383235470131L-11.170594052074103,4.062966004118303L-10.645864909283027,-45.033458661126275z" style="fill:rgb(83,212,212)"/><path d="M40.6783685431895,22.421538413559478L17.115866535824008,-14.580781447640774L37.800047350610306,27.514312274038648z" style="fill:rgb(233,112,197)"/><path d="M-154.75952095475975,-31.612714304658784L-169.18505837571274,62.485777398653724L-157.53550730177597,82.4521548062807zM-10.645864909283027,-45.033458661126275L-11.170594052074103,4.062966004118303L-4.314293902525708,-46.288957198395096z" style="fill:rgb(83,212,212)"/><path d="M42.79411647307274,12.322115410712232L21.813064302362804,-34.47887720903432L22.564529297491575,-29.887707413226227z" style="fill:rgb(246,167,149)"/><path d="M-40.96116442753977,-22.36842395762004L-43.396866222170964,-7.76262859809879L-41.71641456094333,-3.584539737067464z" style="fill:rgb(83,212,212)"/><path d="M-17.78571829966877,5.2711626650328895L-1.7953350072818064,46.69252900227558L4.328253200677542,46.64733133241362z" style="fill:rgb(92,32,204)"/><path d="M-4.314293902525708,-46.288957198395096L-4.523101625854045,1.859759701472232L1.7997870673014298,-46.59979361500452z" style="fill:rgb(83,212,212)"/><path d="M37.800047350610306,27.514312274038648L12.92621984437244,-9.646461726466411L33.83110734806084,32.35988505732168z" style="fill:rgb(220,94,208)"/><path d="M-45.20554383174333,-66.80420192030863L-55.83192932405569,162.22567582356933L-23.166260975390344,163.78541059310305z" style="fill:rgb(83,212,212)"/><path d="M-38.82725470018624,-0.04141202255694657L-12.269465538953957,43.761788754431755L-34.82479012714884,2.718580029455572z" style="fill:rgb(34,46,160)"/><path d="M22.020417178726863,-24.909875587855346L42.79411647307274,12.322115410712232L22.564529297491575,-29.887707413226227z" style="fill:rgb(246,149,167)"/><path d="M-11.170594052074103,4.062966004118303L4.328253200677542,46.64733133241362L10.723664646667311,45.571588133913835z" style="fill:rgb(115,34,214)"/><path d="M-105.4764309814428,146.39022816494224L-126.43983645640525,125.45044844776469L-123.48292324950818,129.53917412645927z" style="fill:rgb(34,46,160)"/><path d="M1.7997870673014298,-46.59979361500452L7.779051823287552,-5.140332708648503L7.472640822749811,-45.946662572904586zM-40.96116442753977,-22.36842395762004L-41.71641456094333,-3.584539737067464L-38.82725470018624,-0.04141202255694657z" style="fill:rgb(83,212,212)"/><path d="M33.83110734806084,32.35988505732168L7.779051823287552,-5.140332708648503L28.925876790197687,36.75776660340646z" style="fill:rgb(203,77,216)"/><path d="M-4.523101625854045,1.859759701472232L10.723664646667311,45.571588133913835L17.129526663863285,43.50332672730236z" style="fill:rgb(139,40,220)"/><path d="M7.779051823287552,-5.140332708648503L23.281606462976455,40.524561856076666L28.925876790197687,36.75776660340646z" style="fill:rgb(183,62,221)"/><path d="M46.16184255404223,-144.70148366927845L90.67266561796357,62.4831620963339L73.76727360708112,-143.27662379936342zM-33.66666915090172,-31.994838981372613L-38.82725470018624,-0.04141202255694657L-34.82479012714884,2.718580029455572z" style="fill:rgb(83,212,212)"/><path d="M1.881855659938035,-1.2507608274902124L17.129526663863285,43.50332672730236L23.281606462976455,40.524561856076666z" style="fill:rgb(162,50,222)"/><path d="M7.472640822749811,-45.946662572904586L12.92621984437244,-9.646461726466411L12.491405397311718,-44.343238200989916zM170.0608377337422,-44.09647309964958L178.22947706364178,3.794027342939736L177.3858072091064,-21.552554362512065z" style="fill:rgb(83,212,212)"/><path d="M-34.82479012714884,2.718580029455572L-7.401093873662569,45.71401330254815L-29.852372712477774,4.574805483236186z" style="fill:rgb(51,38,177)"/><path d="M20.18475032748289,-19.738749524552674L42.360771939086185,17.289167378873668L22.020417178726863,-24.909875587855346z" style="fill:rgb(242,130,183)"/><path d="M12.491405397311718,-44.343238200989916L17.115866535824008,-14.580781447640774L16.6614076150812,-41.83726910057987zM-33.66666915090172,-31.994838981372613L-34.82479012714884,2.718580029455572L-29.852372712477774,4.574805483236186z" style="fill:rgb(83,212,212)"/><path d="M-7.401093873662569,45.71401330254815L-24.09758403233314,5.441045609841299L-29.852372712477774,4.574805483236186z" style="fill:rgb(71,33,192)"/><path d="M-28.6869984761256,-36.246805230480604L-29.852372712477774,4.574805483236186L-24.09758403233314,5.441045609841299zM16.6614076150812,-41.83726910057987L17.115866535824008,-14.580781447640774L19.81377321078786,-38.5107353240695z" style="fill:rgb(83,212,212)"/><path d="M17.115866535824008,-14.580781447640774L40.6783685431895,22.421538413559478L20.18475032748289,-19.738749524552674z" style="fill:rgb(233,112,197)"/><path d="M19.81377321078786,-38.5107353240695L22.020417178726863,-24.909875587855346L21.813064302362804,-34.47887720903432zM-138.337098398912,-54.474019127693055L-157.53550730177597,82.4521548062807L-139.42210478619484,99.02520213234031zM-23.053128935067555,-39.919624937209775L-24.09758403233314,5.441045609841299L-17.78571829966877,5.2711626650328895zM73.76727360708112,-143.27662379936342L118.38566670103687,36.833885724483L99.23644888919092,-137.52768270034585zM-18.48199478576116,-79.8483038319737L-23.166260975390344,163.78541059310305L11.844574374649907,159.15957476599746z" style="fill:rgb(83,212,212)"/><path d="M-126.43983645640525,125.45044844776469L-105.4764309814428,146.39022816494224L-108.42076841264782,142.2819374547603z" style="fill:rgb(34,46,160)"/><path d="M178.22947706364178,3.794027342939736L179.00020745780014,-16.76753331918978L177.3858072091064,-21.552554362512065z" style="fill:rgb(246,149,167)"/><path d="M-1.7953350072818064,46.69252900227558L-17.78571829966877,5.2711626650328895L-24.09758403233314,5.441045609841299z" style="fill:rgb(92,32,204)"/><path d="M156.9933788106376,-63.12204857086423L172.09815116982284,30.97355383897834L178.22947706364178,3.794027342939736zM-16.967215707995784,-42.88383235470131L-17.78571829966877,5.2711626650328895L-11.170594052074103,4.062966004118303z" style="fill:rgb(83,212,212)"/><path d="M12.92621984437244,-9.646461726466411L37.800047350610306,27.514312274038648L17.115866535824008,-14.580781447640774z" style="fill:rgb(220,94,208)"/><path d="M21.813064302362804,-34.47887720903432L22.020417178726863,-24.909875587855346L22.564529297491575,-29.887707413226227zM19.81377321078786,-38.5107353240695L20.18475032748289,-19.738749524552674L22.020417178726863,-24.909875587855346z" style="fill:rgb(83,212,212)"/><path d="M4.328253200677542,46.64733133241362L-11.170594052074103,4.062966004118303L-17.78571829966877,5.2711626650328895z" style="fill:rgb(115,34,214)"/><path d="M-4.314293902525708,-46.288957198395096L-11.170594052074103,4.062966004118303L-4.523101625854045,1.859759701472232z" style="fill:rgb(83,212,212)"/><path d="M7.779051823287552,-5.140332708648503L33.83110734806084,32.35988505732168L12.92621984437244,-9.646461726466411z" style="fill:rgb(203,77,216)"/><path d="M1.7997870673014298,-46.59979361500452L1.881855659938035,-1.2507608274902124L7.779051823287552,-5.140332708648503zM12.491405397311718,-44.343238200989916L12.92621984437244,-9.646461726466411L17.115866535824008,-14.580781447640774zM1.7997870673014298,-46.59979361500452L-4.523101625854045,1.859759701472232L1.881855659938035,-1.2507608274902124zM7.472640822749811,-45.946662572904586L7.779051823287552,-5.140332708648503L12.92621984437244,-9.646461726466411z" style="fill:rgb(83,212,212)"/><path d="M10.723664646667311,45.571588133913835L-4.523101625854045,1.859759701472232L-11.170594052074103,4.062966004118303z" style="fill:rgb(139,40,220)"/><path d="M19.81377321078786,-38.5107353240695L17.115866535824008,-14.580781447640774L20.18475032748289,-19.738749524552674z" style="fill:rgb(83,212,212)"/><path d="M23.281606462976455,40.524561856076666L7.779051823287552,-5.140332708648503L1.881855659938035,-1.2507608274902124z" style="fill:rgb(183,62,221)"/><path d="M17.129526663863285,43.50332672730236L1.881855659938035,-1.2507608274902124L-4.523101625854045,1.859759701472232z" style="fill:rgb(162,50,222)"/><path d="M179.00020745780014,-16.76753331918978L178.22947706364178,3.794027342939736L179.87728654777518,8.57286486346731z" style="fill:rgb(246,149,167)"/><path d="M9.390641468868044,-89.51102744265611L11.844574374649907,159.15957476599746L47.40971263191652,148.38822071702947zM99.23644888919092,-137.52768270034585L139.78650266017482,9.127646008700362L121.61798905108685,-127.37608146412127zM-118.05218871057988,-75.72999013179457L-139.42210478619484,99.02520213234031L-115.18004242885023,111.19768996925114zM117.23847483326033,-88.93679028270323L138.7580044741132,85.83914214395135L158.84533517032193,58.7817646946413zM37.68968620321822,-95.48626424867824L47.40971263191652,148.38822071702947L81.614695711779,131.94051165305365z" style="fill:rgb(83,212,212)"/><path d="M-81.73634222764278,158.97429255596614L-108.42076841264782,142.2819374547603L-105.4764309814428,146.39022816494224z" style="fill:rgb(51,38,177)"/><path d="M156.9933788106376,-63.12204857086423L158.84533517032193,58.7817646946413L172.09815116982284,30.97355383897834zM92.45780577459287,-95.37429417765169L112.60321672181988,110.69126429872556L138.7580044741132,85.83914214395135zM65.65076511211429,-97.51086014637899L81.614695711779,131.94051165305365L112.60321672181988,110.69126429872556zM121.61798905108685,-127.37608146412127L154.0517316666146,-19.133770443423316L139.92193900767776,-112.8711579832406z" style="fill:rgb(83,212,212)"/><path d="M153.1585181359026,-94.23277435178188L162.17137929593474,-66.64749391641232L154.91867922882798,-89.0117176673111z" style="fill:rgb(246,167,149)"/><path d="M-108.42076841264782,142.2819374547603L-81.73634222764278,158.97429255596614L-84.63407229424675,154.8346876050374z" style="fill:rgb(51,38,177)"/><path d="M172.09815116982284,30.97355383897834L179.87728654777518,8.57286486346731L178.22947706364178,3.794027342939736z" style="fill:rgb(242,130,183)"/><path d="M139.92193900767776,-112.8711579832406L160.87213716729764,-46.544262177360295L153.1585181359026,-94.23277435178188zM-94.58282758325868,-94.86636874747425L-115.18004242885023,111.19768996925114L-85.55017659356304,118.07634628912007z" style="fill:rgb(83,212,212)"/><path d="M179.87728654777518,8.57286486346731L172.09815116982284,30.97355383897834L173.80945369743233,35.725125510477646z" style="fill:rgb(242,130,183)"/><path d="M162.17137929593474,-66.64749391641232L153.1585181359026,-94.23277435178188L160.40083515455746,-71.89531930613296z" style="fill:rgb(246,167,149)"/><path d="M-81.73634222764278,158.97429255596614L-55.83192932405569,162.22567582356933L-84.63407229424675,154.8346876050374z" style="fill:rgb(71,33,192)"/><path d="M-68.61190272616595,-111.43491876303132L-85.55017659356304,118.07634628912007L-51.70597395303791,118.98988994045837z" style="fill:rgb(83,212,212)"/><path d="M-136.18840172634498,103.53725015019992L-157.53550730177597,82.4521548062807L-154.2951951249421,86.93277576835123z" style="fill:rgb(34,46,160)"/><path d="M153.1585181359026,-94.23277435178188L160.87213716729764,-46.544262177360295L160.40083515455746,-71.89531930613296z" style="fill:rgb(83,212,212)"/><path d="M-55.83192932405569,162.22567582356933L-81.73634222764278,158.97429255596614L-53.01564921397457,166.4095337951574z" style="fill:rgb(71,33,192)"/><path d="M158.84533517032193,58.7817646946413L173.80945369743233,35.725125510477646L172.09815116982284,30.97355383897834z" style="fill:rgb(233,112,197)"/><path d="M-157.53550730177597,82.4521548062807L-136.18840172634498,103.53725015019992L-139.42210478619484,99.02520213234031z" style="fill:rgb(34,46,160)"/><path d="M-40.829585752713875,-125.03935162364729L-51.70597395303791,118.98988994045837L-15.224237836336355,113.59630904391716z" style="fill:rgb(83,212,212)"/><path d="M173.80945369743233,35.725125510477646L158.84533517032193,58.7817646946413L160.65086855935917,63.48573846914578z" style="fill:rgb(233,112,197)"/><path d="M160.87213716729764,-46.544262177360295L162.17137929593474,-66.64749391641232L160.40083515455746,-71.89531930613296z" style="fill:rgb(246,149,167)"/><path d="M139.92193900767776,-112.8711579832406L154.0517316666146,-19.133770443423316L160.87213716729764,-46.544262177360295z" style="fill:rgb(83,212,212)"/><path d="M162.17137929593474,-66.64749391641232L160.87213716729764,-46.544262177360295L162.68328209810375,-41.29173256463033z" style="fill:rgb(246,149,167)"/><path d="M-53.01564921397457,166.4095337951574L-23.166260975390344,163.78541059310305L-55.83192932405569,162.22567582356933z" style="fill:rgb(92,32,204)"/><path d="M121.61798905108685,-127.37608146412127L139.78650266017482,9.127646008700362L154.0517316666146,-19.133770443423316zM-11.942353513198123,-135.32482299942558L-15.224237836336355,113.59630904391716L22.01162856150898,101.96578683789741z" style="fill:rgb(83,212,212)"/><path d="M-23.166260975390344,163.78541059310305L-53.01564921397457,166.4095337951574L-20.463989042379755,168.02685539045294z" style="fill:rgb(92,32,204)"/><path d="M138.7580044741132,85.83914214395135L160.65086855935917,63.48573846914578L158.84533517032193,58.7817646946413z" style="fill:rgb(220,94,208)"/><path d="M99.23644888919092,-137.52768270034585L118.38566670103687,36.833885724483L139.78650266017482,9.127646008700362zM17.31425811464866,-141.97263276975673L22.01162856150898,101.96578683789741L57.97077593763272,84.6157829001677z" style="fill:rgb(83,212,212)"/><path d="M-111.99081573345637,115.75371771155413L-139.42210478619484,99.02520213234031L-136.18840172634498,103.53725015019992z" style="fill:rgb(51,38,177)"/><path d="M160.65086855935917,63.48573846914578L138.7580044741132,85.83914214395135L140.68646225088125,90.4780132895847z" style="fill:rgb(220,94,208)"/><path d="M73.76727360708112,-143.27662379936342L90.67266561796357,62.4831620963339L118.38566670103687,36.833885724483zM46.16184255404223,-144.70148366927845L57.97077593763272,84.6157829001677L90.67266561796357,62.4831620963339z" style="fill:rgb(83,212,212)"/><path d="M-20.463989042379755,168.02685539045294L11.844574374649907,159.15957476599746L-23.166260975390344,163.78541059310305zM11.844574374649907,159.15957476599746L-20.463989042379755,168.02685539045294L14.40596639391092,163.47100816480116z" style="fill:rgb(115,34,214)"/><path d="M-139.42210478619484,99.02520213234031L-111.99081573345637,115.75371771155413L-115.18004242885023,111.19768996925114z" style="fill:rgb(51,38,177)"/><path d="M154.0517316666146,-19.133770443423316L162.68328209810375,-41.29173256463033L160.87213716729764,-46.544262177360295z" style="fill:rgb(242,130,183)"/><path d="M112.60321672181988,110.69126429872556L140.68646225088125,90.4780132895847L138.7580044741132,85.83914214395135zM140.68646225088125,90.4780132895847L112.60321672181988,110.69126429872556L114.67806934338486,115.25224135563785z" style="fill:rgb(203,77,216)"/><path d="M162.68328209810375,-41.29173256463033L154.0517316666146,-19.133770443423316L155.93650661960368,-13.900535392439645z" style="fill:rgb(242,130,183)"/><path d="M14.40596639391092,163.47100816480116L47.40971263191652,148.38822071702947L11.844574374649907,159.15957476599746zM47.40971263191652,148.38822071702947L14.40596639391092,163.47100816480116L49.812166264370575,152.779402714673z" style="fill:rgb(139,40,220)"/><path d="M112.60321672181988,110.69126429872556L83.85109444694585,136.41680055746386L114.67806934338486,115.25224135563785z" style="fill:rgb(183,62,221)"/><path d="M81.614695711779,131.94051165305365L49.812166264370575,152.779402714673L83.85109444694585,136.41680055746386z" style="fill:rgb(162,50,222)"/><path d="M83.85109444694585,136.41680055746386L112.60321672181988,110.69126429872556L81.614695711779,131.94051165305365z" style="fill:rgb(183,62,221)"/><path d="M49.812166264370575,152.779402714673L81.614695711779,131.94051165305365L47.40971263191652,148.38822071702947z" style="fill:rgb(162,50,222)"/><path d="M-111.99081573345637,115.75371771155413L-85.55017659356304,118.07634628912007L-115.18004242885023,111.19768996925114zM-85.55017659356304,118.07634628912007L-111.99081573345637,115.75371771155413L-82.44473223561936,122.6897857870234z" style="fill:rgb(71,33,192)"/><path d="M139.78650266017482,9.127646008700362L155.93650661960368,-13.900535392439645L154.0517316666146,-19.133770443423316zM155.93650661960368,-13.900535392439645L139.78650266017482,9.127646008700362L141.77862996413896,14.31771535855598z" style="fill:rgb(233,112,197)"/><path d="M-82.44473223561936,122.6897857870234L-51.70597395303791,118.98988994045837L-85.55017659356304,118.07634628912007zM-51.70597395303791,118.98988994045837L-82.44473223561936,122.6897857870234L-48.721579237787836,123.67414748908631z" style="fill:rgb(92,32,204)"/><path d="M118.38566670103687,36.833885724483L141.77862996413896,14.31771535855598L139.78650266017482,9.127646008700362zM141.77862996413896,14.31771535855598L118.38566670103687,36.833885724483L120.51643638769801,41.959414381676844z" style="fill:rgb(220,94,208)"/><path d="M-48.721579237787836,123.67414748908631L-15.224237836336355,113.59630904391716L-51.70597395303791,118.98988994045837zM-15.224237836336355,113.59630904391716L-48.721579237787836,123.67414748908631L-12.392204685395992,118.36329599594768z" style="fill:rgb(115,34,214)"/><path d="M90.67266561796357,62.4831620963339L120.51643638769801,41.959414381676844L118.38566670103687,36.833885724483zM120.51643638769801,41.959414381676844L90.67266561796357,62.4831620963339L92.96741343643087,67.52751651053079z" style="fill:rgb(203,77,216)"/><path d="M-12.392204685395992,118.36329599594768L22.01162856150898,101.96578683789741L-15.224237836336355,113.59630904391716zM22.01162856150898,101.96578683789741L-12.392204685395992,118.36329599594768L24.669632848331936,106.82406572446827z" style="fill:rgb(139,40,220)"/><path d="M90.67266561796357,62.4831620963339L60.445307861086796,89.56870983046777L92.96741343643087,67.52751651053079z" style="fill:rgb(183,62,221)"/><path d="M57.97077593763272,84.6157829001677L24.669632848331936,106.82406572446827L60.445307861086796,89.56870983046777z" style="fill:rgb(162,50,222)"/><path d="M60.445307861086796,89.56870983046777L90.67266561796357,62.4831620963339L57.97077593763272,84.6157829001677z" style="fill:rgb(183,62,221)"/><path d="M24.669632848331936,106.82406572446827L57.97077593763272,84.6157829001677L22.01162856150898,101.96578683789741z" style="fill:rgb(162,50,222)"/></svg>
