<?xml version="1.0" encoding="UTF-8"?>
<!-- Generated by jsxcad -->
<!DOCTYPE svg PUBLIC "-//W3C//DTD SVG 1.1 Tiny//EN" "http://www.w3.org/Graphics/SVG/1.1/DTD/svg11-tiny.dtd">
<svg viewBox="-250 -250 500 500" width="500" height="500" xmlns="http://www.w3.org/2000/svg"><path d="M-115.86660483982062,28.805366325515415L-114.05268549364877,142.5790777217686L-100.92448112530649,6.32801102337941zM-100.92448112530649,6.32801102337941L-96.0904148187332,159.4867237668469L-82.17010094015924,-14.440889213099576zM-126.37867313265583,52.395161709290925L-126.00557248456293,122.42945422576902L-115.86660483982062,28.805366325515415zM-82.17010094015924,-14.440889213099576L-72.50277738766638,172.16505826871355L-60.24336691238321,-32.98734571624273zM-60.24336691238321,-32.98734571624273L-44.04500669273006,179.7362965415809L-35.797684504032844,-48.865507613418096zM-131.88604210862232,100.04856036989683L-126.37867313265583,52.395161709290925L-131.88508582608904,76.40691788672592zM-35.797684504032844,-48.865507613418096L-11.85918228237052,181.53282794951699L-9.500070852926266,-61.68516154085252zM-9.500070852926266,-61.68516154085252L22.560323645670167,177.1967352748118L17.962397045719754,-71.10270544064127zM-126.37867313265583,52.395161709290925L-131.88604210862232,100.04856036989683L-126.00557248456293,122.42945422576902zM17.962397045719754,-71.10270544064127L57.45954640146106,166.75722893298624L45.87251109263384,-76.81722858800943zM45.87251109263384,-76.81722858800943L90.9697663382304,150.6652578733867L73.47181575531933,-78.57290129936017zM-115.86660483982062,28.805366325515415L-126.00557248456293,122.42945422576902L-114.05268549364877,142.5790777217686zM73.47181575531933,-78.57290129936017L90.9697663382304,150.6652578733867L99.95135783688495,-76.1689140619085zM-100.92448112530649,6.32801102337941L-114.05268549364877,142.5790777217686L-96.0904148187332,159.4867237668469zM99.95135783688495,-76.1689140619085L121.28311398217387,129.77156811887386L124.44775574852034,-69.47754723280167zM124.44775574852034,-69.47754723280167L166.4013107190434,78.46741618954096L146.04850330195842,-58.47068707514916zM-82.17010094015924,-14.440889213099576L-96.0904148187332,159.4867237668469L-72.50277738766638,172.16505826871355zM146.04850330195842,-58.47068707514916L179.26172245522832,50.86378605703301L163.81119734336136,-43.25375150230205z" style="fill:rgb(83,212,212)"/><path d="M176.80078238465956,-24.104217519576796L186.7308679687449,6.1458474651235475L179.37661932153367,-16.46367135231473z" style="fill:rgb(246,167,149)"/><path d="M163.81119734336136,-43.25375150230205L185.12940855065017,23.804601914409606L176.80078238465956,-24.104217519576796zM-60.24336691238321,-32.98734571624273L-72.50277738766638,172.16505826871355L-44.04500669273006,179.7362965415809z" style="fill:rgb(83,212,212)"/><path d="M186.7308679687449,6.1458474651235475L176.80078238465956,-24.104217519576796L184.14808759692323,-1.5094155223260899z" style="fill:rgb(246,167,149)"/><path d="M-23.757544344529514,72.78386983788381L-74.06483286892646,-12.18601649950953L-28.421783850056713,66.64249587748931z" style="fill:rgb(21,57,142)"/><path d="M-91.38280965538837,166.0553280805726L-114.05268549364877,142.5790777217686L-109.32050924645652,149.12261033249587z" style="fill:rgb(34,46,160)"/><path d="M34.049618053314646,-64.83554067069291L73.28251501137079,25.823913280131475L71.70964389153866,18.163078509146793z" style="fill:rgb(246,167,149)"/><path d="M-35.797684504032844,-48.865507613418096L-44.04500669273006,179.7362965415809L-11.85918228237052,181.53282794951699zM-169.2781381784544,-54.16661511654011L-173.9199313147578,59.796192494380215L-152.28639454748057,-77.14406111423352zM-152.28639454748057,-77.14406111423352L-155.7846074426527,76.19428428029082L-131.41878899692261,-98.56108466987509zM176.80078238465956,-24.104217519576796L185.12940855065017,23.804601914409606L184.14808759692323,-1.5094155223260899z" style="fill:rgb(83,212,212)"/><path d="M-17.310018376169797,77.69636446352055L-69.40601200190946,-6.210076706946028L-23.757544344529514,72.78386983788381z" style="fill:rgb(34,46,160)"/><path d="M-181.70962463904263,-30.224173708895268L-185.42023475892853,39.94739000681442L-169.2781381784544,-54.16661511654011zM-131.41878899692261,-98.56108466987509L-131.32831147292808,88.12880559278501L-107.36727078967611,-117.90367253843853z" style="fill:rgb(83,212,212)"/><path d="M-114.05268549364877,142.5790777217686L-91.38280965538837,166.0553280805726L-96.0904148187332,159.4867237668469z" style="fill:rgb(34,46,160)"/><path d="M185.12940855065017,23.804601914409606L186.7308679687449,6.1458474651235475L184.14808759692323,-1.5094155223260899z" style="fill:rgb(246,149,167)"/><path d="M-190.3209821599235,17.6827930367361L-181.70962463904263,-30.224173708895268L-188.9228909555811,-6.008505823359316zM-9.500070852926266,-61.68516154085252L-11.85918228237052,181.53282794951699L22.560323645670167,177.1967352748118zM-107.36727078967611,-117.90367253843853L-101.28367303355948,94.70271544805841L-80.8252414106982,-134.72304605232534z" style="fill:rgb(83,212,212)"/><path d="M73.28251501137079,25.823913280131475L34.604652659058985,-48.92141715234895L72.78955363785438,34.11527814417392z" style="fill:rgb(246,149,167)"/><path d="M163.81119734336136,-43.25375150230205L179.26172245522832,50.86378605703301L185.12940855065017,23.804601914409606z" style="fill:rgb(83,212,212)"/><path d="M-9.300485374840088,81.15374876131449L-62.79757431785672,-1.532464318642459L-17.310018376169797,77.69636446352055z" style="fill:rgb(51,38,177)"/><path d="M186.7308679687449,6.1458474651235475L185.12940855065017,23.804601914409606L187.7631677101133,31.442807345940405z" style="fill:rgb(246,149,167)"/><path d="M-80.8252414106982,-134.72304605232534L-66.8336999114873,95.24563446969137L-52.49099901534122,-148.62093390804563z" style="fill:rgb(83,212,212)"/><path d="M72.78955363785438,34.11527814417392L31.536581920187352,-40.19765842392505L70.20605429129789,42.7127673270366z" style="fill:rgb(242,130,183)"/><path d="M17.962397045719754,-71.10270544064127L22.560323645670167,177.1967352748118L57.45954640146106,166.75722893298624zM146.04850330195842,-58.47068707514916L166.4013107190434,78.46741618954096L179.26172245522832,50.86378605703301z" style="fill:rgb(83,212,212)"/><path d="M-44.70470486836949,3.0987662527011826L-9.300485374840088,81.15374876131449L-0.027768591409871732,82.98369942828607z" style="fill:rgb(71,33,192)"/><path d="M-67.8738708289316,178.7777669452712L-96.0904148187332,159.4867237668469L-91.38280965538837,166.0553280805726z" style="fill:rgb(51,38,177)"/><path d="M124.44775574852034,-69.47754723280167L146.82666321369615,105.24816414542697L166.4013107190434,78.46741618954096zM-52.49099901534122,-148.62093390804563L-29.584893503865356,89.42390210237468L-23.077693997545474,-159.23858627983338zM45.87251109263384,-76.81722858800943L57.45954640146106,166.75722893298624L90.9697663382304,150.6652578733867zM-66.35860571842561,-51.64966977207241L-69.40601200190946,-6.210076706946028L-59.303312801223186,-59.3783161968982z" style="fill:rgb(83,212,212)"/><path d="M70.20605429129789,42.7127673270366L26.31320015491723,-31.42681334388124L65.59865520518312,51.26524104483747z" style="fill:rgb(233,112,197)"/><path d="M-71.81226736230973,-43.47932633195043L-74.06483286892646,-12.18601649950953L-66.35860571842561,-51.64966977207241z" style="fill:rgb(83,212,212)"/><path d="M-74.06483286892646,-12.18601649950953L-23.757544344529514,72.78386983788381L-69.40601200190946,-6.210076706946028z" style="fill:rgb(21,57,142)"/><path d="M-59.303312801223186,-59.3783161968982L-54.46114217634787,1.6253460205610661L-50.90791637940671,-66.40660820554834z" style="fill:rgb(83,212,212)"/><path d="M-33.913522091046495,2.793433813395135L-0.027768591409871732,82.98369942828607L10.141206098874802,83.08081283847139z" style="fill:rgb(92,32,204)"/><path d="M-50.90791637940671,-66.40660820554834L-44.70470486836949,3.0987662527011826L-41.46808716067977,-72.50236506794066zM-181.70962463904263,-30.224173708895268L-190.3209821599235,17.6827930367361L-185.42023475892853,39.94739000681442zM-75.44525321513028,-35.14789705467704L-74.06483286892646,-12.18601649950953L-71.81226736230973,-43.47932633195043z" style="fill:rgb(83,212,212)"/><path d="M65.59865520518312,51.26524104483747L19.118128041908115,-22.980752792954885L59.12847172176021,59.41121196828797z" style="fill:rgb(220,94,208)"/><path d="M-41.46808716067977,-72.50236506794066L-33.913522091046495,2.793433813395135L-31.306210599193562,-77.46360574641324z" style="fill:rgb(83,212,212)"/><path d="M73.28251501137079,25.823913280131475L34.049618053314646,-64.83554067069291L35.4363185844632,-57.24198301357656z" style="fill:rgb(246,167,149)"/><path d="M-76.6415446918158,-19.196835171701245L-75.44525321513028,-35.14789705467704L-77.09025268187692,-26.952040446841007zM-23.077693997545474,-159.23858627983338L8.53068123496732,77.32541278471383L6.672854328312556,-166.25089611548944zM99.95135783688495,-76.1689140619085L90.9697663382304,150.6652578733867L121.28311398217387,129.77156811887386zM-31.306210599193562,-77.46360574641324L-22.53432809995233,0.6952617510918335L-20.764627020183283,-81.12194364968568zM124.44775574852034,-69.47754723280167L121.28311398217387,129.77156811887386L146.82666321369615,105.24816414542697z" style="fill:rgb(83,212,212)"/><path d="M-22.53432809995233,0.6952617510918335L10.141206098874802,83.08081283847139L20.786697895256204,81.4165444330732z" style="fill:rgb(115,34,214)"/><path d="M-96.0904148187332,159.4867237668469L-67.8738708289316,178.7777669452712L-72.50277738766638,172.16505826871355z" style="fill:rgb(51,38,177)"/><path d="M59.12847172176021,59.41121196828797L10.233857862637677,-15.227434365830643L51.04798398253721,66.79787027377668z" style="fill:rgb(203,77,216)"/><path d="M179.26172245522832,50.86378605703301L187.7631677101133,31.442807345940405L185.12940855065017,23.804601914409606z" style="fill:rgb(242,130,183)"/><path d="M-20.764627020183283,-81.12194364968568L-22.53432809995233,0.6952617510918335L-10.199067384575903,-83.34597648962921z" style="fill:rgb(83,212,212)"/><path d="M10.233857862637677,-15.227434365830643L41.69109760881679,73.10109917782673L51.04798398253721,66.79787027377668z" style="fill:rgb(183,62,221)"/><path d="M-11.053327399158189,-3.12440328308541L20.786697895256204,81.4165444330732L31.456666191312696,78.04465619067784z" style="fill:rgb(139,40,220)"/><path d="M0.03041909804361477,-8.509666138015314L31.456666191312696,78.04465619067784L41.69109760881679,73.10109917782673z" style="fill:rgb(162,50,222)"/><path d="M-69.40601200190946,-6.210076706946028L-17.310018376169797,77.69636446352055L-62.79757431785672,-1.532464318642459z" style="fill:rgb(34,46,160)"/><path d="M34.604652659058985,-48.92141715234895L73.28251501137079,25.823913280131475L35.4363185844632,-57.24198301357656z" style="fill:rgb(246,149,167)"/><path d="M-75.44525321513028,-35.14789705467704L-76.6415446918158,-19.196835171701245L-74.06483286892646,-12.18601649950953zM-10.199067384575903,-83.34597648962921L0.03041909804361477,-8.509666138015314L0.02819393874079199,-84.0449479726387z" style="fill:rgb(83,212,212)"/><path d="M187.7631677101133,31.442807345940405L179.26172245522832,50.86378605703301L181.99457821084198,58.45178403919554z" style="fill:rgb(242,130,183)"/><path d="M-66.35860571842561,-51.64966977207241L-74.06483286892646,-12.18601649950953L-69.40601200190946,-6.210076706946028zM6.672854328312556,-166.25089611548944L45.41996476480826,59.49457609536006L35.975307928656036,-169.36724383434145zM-169.2781381784544,-54.16661511654011L-185.42023475892853,39.94739000681442L-173.9199313147578,59.796192494380215zM0.02819393874079199,-84.0449479726387L0.03041909804361477,-8.509666138015314L9.556062979896756,-83.17272955423284zM-59.303312801223186,-59.3783161968982L-69.40601200190946,-6.210076706946028L-62.79757431785672,-1.532464318642459z" style="fill:rgb(83,212,212)"/><path d="M-62.79757431785672,-1.532464318642459L-9.300485374840088,81.15374876131449L-54.46114217634787,1.6253460205610661z" style="fill:rgb(51,38,177)"/><path d="M31.536581920187352,-40.19765842392505L72.78955363785438,34.11527814417392L34.604652659058985,-48.92141715234895z" style="fill:rgb(242,130,183)"/><path d="M9.556062979896756,-83.17272955423284L19.118128041908115,-22.980752792954885L18.033699389886486,-80.73200273772794zM35.975307928656036,-169.36724383434145L79.03539107752583,36.90192526520156L63.98798179230801,-168.34014699634568z" style="fill:rgb(83,212,212)"/><path d="M-67.8738708289316,178.7777669452712L-44.04500669273006,179.7362965415809L-72.50277738766638,172.16505826871355zM-9.300485374840088,81.15374876131449L-44.70470486836949,3.0987662527011826L-54.46114217634787,1.6253460205610661z" style="fill:rgb(71,33,192)"/><path d="M-59.303312801223186,-59.3783161968982L-62.79757431785672,-1.532464318642459L-54.46114217634787,1.6253460205610661zM18.033699389886486,-80.73200273772794L19.118128041908115,-22.980752792954885L25.131310608359428,-76.77826863393373z" style="fill:rgb(83,212,212)"/><path d="M26.31320015491723,-31.42681334388124L70.20605429129789,42.7127673270366L31.536581920187352,-40.19765842392505z" style="fill:rgb(233,112,197)"/><path d="M25.131310608359428,-76.77826863393373L31.536581920187352,-40.19765842392505L30.552744543051425,-71.42303235527959z" style="fill:rgb(83,212,212)"/><path d="M-44.04500669273006,179.7362965415809L-67.8738708289316,178.7777669452712L-39.54983983906989,186.41430402620205z" style="fill:rgb(71,33,192)"/><path d="M-50.90791637940671,-66.40660820554834L-54.46114217634787,1.6253460205610661L-44.70470486836949,3.0987662527011826zM-152.28639454748057,-77.14406111423352L-173.9199313147578,59.796192494380215L-155.7846074426527,76.19428428029082z" style="fill:rgb(83,212,212)"/><path d="M166.4013107190434,78.46741618954096L181.99457821084198,58.45178403919554L179.26172245522832,50.86378605703301z" style="fill:rgb(233,112,197)"/><path d="M-0.027768591409871732,82.98369942828607L-33.913522091046495,2.793433813395135L-44.70470486836949,3.0987662527011826z" style="fill:rgb(92,32,204)"/><path d="M63.98798179230801,-168.34014699634568L107.58331759857795,10.849040041053932L89.80571093369102,-162.98305158475833zM-41.46808716067977,-72.50236506794066L-44.70470486836949,3.0987662527011826L-33.913522091046495,2.793433813395135z" style="fill:rgb(83,212,212)"/><path d="M19.118128041908115,-22.980752792954885L65.59865520518312,51.26524104483747L26.31320015491723,-31.42681334388124z" style="fill:rgb(220,94,208)"/><path d="M30.552744543051425,-71.42303235527959L31.536581920187352,-40.19765842392505L34.049618053314646,-64.83554067069291z" style="fill:rgb(83,212,212)"/><path d="M181.99457821084198,58.45178403919554L166.4013107190434,78.46741618954096L169.28245064958878,85.97367823506522z" style="fill:rgb(233,112,197)"/><path d="M10.141206098874802,83.08081283847139L-22.53432809995233,0.6952617510918335L-33.913522091046495,2.793433813395135z" style="fill:rgb(115,34,214)"/><path d="M-31.306210599193562,-77.46360574641324L-33.913522091046495,2.793433813395135L-22.53432809995233,0.6952617510918335zM34.049618053314646,-64.83554067069291L34.604652659058985,-48.92141715234895L35.4363185844632,-57.24198301357656z" style="fill:rgb(83,212,212)"/><path d="M10.233857862637677,-15.227434365830643L59.12847172176021,59.41121196828797L19.118128041908115,-22.980752792954885z" style="fill:rgb(203,77,216)"/><path d="M20.786697895256204,81.4165444330732L-11.053327399158189,-3.12440328308541L-22.53432809995233,0.6952617510918335z" style="fill:rgb(139,40,220)"/><path d="M-10.199067384575903,-83.34597648962921L-22.53432809995233,0.6952617510918335L-11.053327399158189,-3.12440328308541zM89.80571093369102,-162.98305158475833L129.69169499400925,-17.172466298809884L112.46286953915539,-153.19780277448723z" style="fill:rgb(83,212,212)"/><path d="M41.69109760881679,73.10109917782673L10.233857862637677,-15.227434365830643L0.03041909804361477,-8.509666138015314z" style="fill:rgb(183,62,221)"/><path d="M31.456666191312696,78.04465619067784L0.03041909804361477,-8.509666138015314L-11.053327399158189,-3.12440328308541z" style="fill:rgb(162,50,222)"/><path d="M-10.199067384575903,-83.34597648962921L-11.053327399158189,-3.12440328308541L0.03041909804361477,-8.509666138015314zM25.131310608359428,-76.77826863393373L26.31320015491723,-31.42681334388124L31.536581920187352,-40.19765842392505zM34.049618053314646,-64.83554067069291L31.536581920187352,-40.19765842392505L34.604652659058985,-48.92141715234895z" style="fill:rgb(83,212,212)"/><path d="M-39.54983983906989,186.41430402620205L-11.85918228237052,181.53282794951699L-44.04500669273006,179.7362965415809z" style="fill:rgb(92,32,204)"/><path d="M9.556062979896756,-83.17272955423284L10.233857862637677,-15.227434365830643L19.118128041908115,-22.980752792954885zM9.556062979896756,-83.17272955423284L0.03041909804361477,-8.509666138015314L10.233857862637677,-15.227434365830643zM25.131310608359428,-76.77826863393373L19.118128041908115,-22.980752792954885L26.31320015491723,-31.42681334388124zM-131.41878899692261,-98.56108466987509L-155.7846074426527,76.19428428029082L-131.32831147292808,88.12880559278501z" style="fill:rgb(83,212,212)"/><path d="M-11.85918228237052,181.53282794951699L-39.54983983906989,186.41430402620205L-7.548866141348497,188.2982367154224z" style="fill:rgb(92,32,204)"/><path d="M146.82666321369615,105.24816414542697L169.28245064958878,85.97367823506522L166.4013107190434,78.46741618954096z" style="fill:rgb(220,94,208)"/><path d="M112.46286953915539,-153.19780277448723L144.50626783385783,-45.637548357051436L130.9518656871215,-139.01152396428566z" style="fill:rgb(83,212,212)"/><path d="M169.28245064958878,85.97367823506522L146.82666321369615,105.24816414542697L149.9020894971915,112.64604774461411z" style="fill:rgb(220,94,208)"/><path d="M144.262428241278,-120.62067715100851L154.52894957749265,-89.29937513271366L147.3240022161643,-111.53932028081671z" style="fill:rgb(246,167,149)"/><path d="M-7.548866141348497,188.2982367154224L22.560323645670167,177.1967352748118L-11.85918228237052,181.53282794951699z" style="fill:rgb(115,34,214)"/><path d="M130.9518656871215,-139.01152396428566L151.70552142490874,-73.1284940196531L144.262428241278,-120.62067715100851z" style="fill:rgb(83,212,212)"/><path d="M22.560323645670167,177.1967352748118L-7.548866141348497,188.2982367154224L26.643941655900257,184.0704379128444z" style="fill:rgb(115,34,214)"/><path d="M-107.36727078967611,-117.90367253843853L-131.32831147292808,88.12880559278501L-101.28367303355948,94.70271544805841z" style="fill:rgb(83,212,212)"/><path d="M121.28311398217387,129.77156811887386L149.9020894971915,112.64604774461411L146.82666321369615,105.24816414542697zM149.9020894971915,112.64604774461411L121.28311398217387,129.77156811887386L124.59064965521932,137.04222345318848z" style="fill:rgb(203,77,216)"/><path d="M154.52894957749265,-89.29937513271366L144.262428241278,-120.62067715100851L151.44594263782525,-98.43729034702318z" style="fill:rgb(246,167,149)"/><path d="M57.45954640146106,166.75722893298624L26.643941655900257,184.0704379128444L61.28871656494928,173.75616068616495z" style="fill:rgb(139,40,220)"/><path d="M121.28311398217387,129.77156811887386L94.53412492627369,157.79953949481973L124.59064965521932,137.04222345318848z" style="fill:rgb(183,62,221)"/><path d="M26.643941655900257,184.0704379128444L57.45954640146106,166.75722893298624L22.560323645670167,177.1967352748118z" style="fill:rgb(139,40,220)"/><path d="M90.9697663382304,150.6652578733867L61.28871656494928,173.75616068616495L94.53412492627369,157.79953949481973z" style="fill:rgb(162,50,222)"/><path d="M-150.14990599435126,84.05649151516154L-173.9199313147578,59.796192494380215L-168.2798525849807,67.59514937890485z" style="fill:rgb(34,46,160)"/><path d="M94.53412492627369,157.79953949481973L121.28311398217387,129.77156811887386L90.9697663382304,150.6652578733867z" style="fill:rgb(183,62,221)"/><path d="M61.28871656494928,173.75616068616495L90.9697663382304,150.6652578733867L57.45954640146106,166.75722893298624z" style="fill:rgb(162,50,222)"/><path d="M-80.8252414106982,-134.72304605232534L-101.28367303355948,94.70271544805841L-66.8336999114873,95.24563446969137zM144.262428241278,-120.62067715100851L151.70552142490874,-73.1284940196531L151.44594263782525,-98.43729034702318z" style="fill:rgb(83,212,212)"/><path d="M-173.9199313147578,59.796192494380215L-150.14990599435126,84.05649151516154L-155.7846074426527,76.19428428029082z" style="fill:rgb(34,46,160)"/><path d="M151.70552142490874,-73.1284940196531L154.52894957749265,-89.29937513271366L151.44594263782525,-98.43729034702318z" style="fill:rgb(246,149,167)"/><path d="M-52.49099901534122,-148.62093390804563L-66.8336999114873,95.24563446969137L-29.584893503865356,89.42390210237468zM130.9518656871215,-139.01152396428566L144.50626783385783,-45.637548357051436L151.70552142490874,-73.1284940196531z" style="fill:rgb(83,212,212)"/><path d="M154.52894957749265,-89.29937513271366L151.70552142490874,-73.1284940196531L154.86261878453092,-63.97254692047111z" style="fill:rgb(246,149,167)"/><path d="M112.46286953915539,-153.19780277448723L129.69169499400925,-17.172466298809884L144.50626783385783,-45.637548357051436zM-23.077693997545474,-159.23858627983338L-29.584893503865356,89.42390210237468L8.53068123496732,77.32541278471383z" style="fill:rgb(83,212,212)"/><path d="M-125.7653371838556,96.0758694048194L-155.7846074426527,76.19428428029082L-150.14990599435126,84.05649151516154z" style="fill:rgb(51,38,177)"/><path d="M89.80571093369102,-162.98305158475833L107.58331759857795,10.849040041053932L129.69169499400925,-17.172466298809884zM6.672854328312556,-166.25089611548944L8.53068123496732,77.32541278471383L45.41996476480826,59.49457609536006zM63.98798179230801,-168.34014699634568L79.03539107752583,36.90192526520156L107.58331759857795,10.849040041053932zM35.975307928656036,-169.36724383434145L45.41996476480826,59.49457609536006L79.03539107752583,36.90192526520156z" style="fill:rgb(83,212,212)"/><path d="M-155.7846074426527,76.19428428029082L-125.7653371838556,96.0758694048194L-131.32831147292808,88.12880559278501z" style="fill:rgb(51,38,177)"/><path d="M144.50626783385783,-45.637548357051436L154.86261878453092,-63.97254692047111L151.70552142490874,-73.1284940196531zM154.86261878453092,-63.97254692047111L144.50626783385783,-45.637548357051436L147.79501751685905,-36.50606560994873z" style="fill:rgb(242,130,183)"/><path d="M-125.7653371838556,96.0758694048194L-101.28367303355948,94.70271544805841L-131.32831147292808,88.12880559278501zM-101.28367303355948,94.70271544805841L-125.7653371838556,96.0758694048194L-95.86181050981087,102.75741290472328z" style="fill:rgb(71,33,192)"/><path d="M129.69169499400925,-17.172466298809884L147.79501751685905,-36.50606560994873L144.50626783385783,-45.637548357051436zM147.79501751685905,-36.50606560994873L129.69169499400925,-17.172466298809884L133.1707950083248,-8.108333326899999z" style="fill:rgb(233,112,197)"/><path d="M-95.86181050981087,102.75741290472328L-66.8336999114873,95.24563446969137L-101.28367303355948,94.70271544805841zM-66.8336999114873,95.24563446969137L-95.86181050981087,102.75741290472328L-61.61916809158315,103.43028939003997z" style="fill:rgb(92,32,204)"/><path d="M107.58331759857795,10.849040041053932L133.1707950083248,-8.108333326899999L129.69169499400925,-17.172466298809884zM133.1707950083248,-8.108333326899999L107.58331759857795,10.849040041053932L111.3071943750823,19.806743782864668z" style="fill:rgb(220,94,208)"/><path d="M-61.61916809158315,103.43028939003997L-29.584893503865356,89.42390210237468L-66.8336999114873,95.24563446969137zM-29.584893503865356,89.42390210237468L-61.61916809158315,103.43028939003997L-24.633784779872002,97.75779843197155z" style="fill:rgb(115,34,214)"/><path d="M79.03539107752583,36.90192526520156L111.3071943750823,19.806743782864668L107.58331759857795,10.849040041053932zM111.3071943750823,19.806743782864668L79.03539107752583,36.90192526520156L83.04776178052894,45.72198787387674z" style="fill:rgb(203,77,216)"/><path d="M8.53068123496732,77.32541278471383L-24.633784779872002,97.75779843197155L13.179015224388058,85.82160338469347z" style="fill:rgb(139,40,220)"/><path d="M79.03539107752583,36.90192526520156L49.74765363889743,68.1567098787867L83.04776178052894,45.72198787387674z" style="fill:rgb(183,62,221)"/><path d="M-24.633784779872002,97.75779843197155L8.53068123496732,77.32541278471383L-29.584893503865356,89.42390210237468z" style="fill:rgb(139,40,220)"/><path d="M45.41996476480826,59.49457609536006L13.179015224388058,85.82160338469347L49.74765363889743,68.1567098787867z" style="fill:rgb(162,50,222)"/><path d="M49.74765363889743,68.1567098787867L79.03539107752583,36.90192526520156L45.41996476480826,59.49457609536006z" style="fill:rgb(183,62,221)"/><path d="M13.179015224388058,85.82160338469347L45.41996476480826,59.49457609536006L8.53068123496732,77.32541278471383z" style="fill:rgb(162,50,222)"/></svg>
