<?xml version="1.0" encoding="UTF-8"?>
<!-- Generated by jsxcad -->
<!DOCTYPE svg PUBLIC "-//W3C//DTD SVG 1.1 Tiny//EN" "http://www.w3.org/Graphics/SVG/1.1/DTD/svg11-tiny.dtd">
<svg viewBox="-250 -250 500 500" width="500" height="500" xmlns="http://www.w3.org/2000/svg"><path d="M-9.500070852926266,-61.68516154085252L-0.5267228115158652,40.844328861017736L17.962397045719754,-71.10270544064127zM17.962397045719754,-71.10270544064127L23.755951488667318,22.15465162049255L45.87251109263384,-76.81722858800943zM73.28251501137079,25.823913280131475L73.47181575531933,-78.57290129936017L45.87251109263384,-76.81722858800943zM73.47181575531933,-78.57290129936017L82.4261755900876,12.140249904539813L99.95135783688495,-76.1689140619085zM17.962397045719754,-71.10270544064127L11.801219257471669,26.05471639028585L15.668247705730936,24.18018829114437zM17.962397045719754,-71.10270544064127L8.242990639723626,28.41838024329689L11.801219257471669,26.05471639028585zM17.962397045719754,-71.10270544064127L15.668247705730936,24.18018829114437L19.702434927502765,22.86365602217161zM17.962397045719754,-71.10270544064127L5.124584471146773,31.18516218873901L8.242990639723626,28.41838024329689zM17.962397045719754,-71.10270544064127L19.702434927502765,22.86365602217161L23.755951488667318,22.15465162049255zM-115.86660483982062,28.805366325515415L-114.05268549364877,142.5790777217686L-100.92448112530649,6.32801102337941zM17.962397045719754,-71.10270544064127L2.562221501768712,34.254493180083834L5.124584471146773,31.18516218873901zM-100.92448112530649,6.32801102337941L-96.0904148187332,159.4867237668469L-82.17010094015924,-14.440889213099576zM17.962397045719754,-71.10270544064127L0.6533917807936879,37.51427909507917L2.562221501768712,34.254493180083834zM-126.37867313265583,52.395161709290925L-126.00557248456293,122.42945422576902L-115.86660483982062,28.805366325515415zM-82.17010094015924,-14.440889213099576L-72.50277738766638,172.16505826871355L-60.24336691238321,-32.98734571624273zM17.962397045719754,-71.10270544064127L-0.5267228115158652,40.844328861017736L0.6533917807936879,37.51427909507917zM45.87251109263384,-76.81722858800943L23.755951488667318,22.15465162049255L27.679403964772344,22.08163026092208zM-0.5267228115158652,40.844328861017736L-9.500070852926266,-61.68516154085252L-0.9283821955967665,44.120224075922465zM45.87251109263384,-76.81722858800943L27.679403964772344,22.08163026092208L31.326620145550134,22.650713767461177zM-60.24336691238321,-32.98734571624273L-44.04500669273006,179.7362965415809L-35.797684504032844,-48.865507613418096zM45.87251109263384,-76.81722858800943L31.326620145550134,22.650713767461177L34.55957845164594,23.84498568626664zM-131.88604210862232,100.04856036989683L-126.37867313265583,52.395161709290925L-131.88508582608904,76.40691788672592zM45.87251109263384,-76.81722858800943L34.55957845164594,23.84498568626664L37.25336286499461,25.624421683893203zM45.87251109263384,-76.81722858800943L37.25336286499461,25.624421683893203L39.301023639610655,27.92654669680715zM-35.797684504032844,-48.865507613418096L-11.85918228237052,181.53282794951699L-9.500070852926266,-61.68516154085252zM45.87251109263384,-76.81722858800943L39.301023639610655,27.92654669680715L40.61817262869657,30.667960502942286zM45.87251109263384,-76.81722858800943L40.61817262869657,30.667960502942286L41.147064157390666,33.74674349547326zM73.47181575531933,-78.57290129936017L79.7288548737952,13.944561535423723L82.4261755900876,12.140249904539813zM73.47181575531933,-78.57290129936017L77.40124194095122,16.05025532845968L79.7288548737952,13.944561535423723zM73.47181575531933,-78.57290129936017L75.53082438396886,18.379751495007834L77.40124194095122,16.05025532845968zM73.47181575531933,-78.57290129936017L74.18912752013007,20.846903476558968L75.53082438396886,18.379751495007834zM-126.37867313265583,52.395161709290925L-131.88604210862232,100.04856036989683L-126.00557248456293,122.42945422576902zM73.47181575531933,-78.57290129936017L73.4290230265169,23.359813597184008L74.18912752013007,20.846903476558968z" style="fill:rgb(83,212,212)"/><path d="M15.668247705730936,24.18018829114437L15.442979374035168,33.108778086328435L19.2835325335476,31.24802580235324z" style="fill:rgb(162,50,222)"/><path d="M11.801219257471669,26.05471639028585L11.911273363294292,35.45948896260196L15.442979374035168,33.108778086328435z" style="fill:rgb(183,62,221)"/><path d="M19.702434927502765,22.86365602217161L19.2835325335476,31.24802580235324L23.2922147140046,29.945617098455912z" style="fill:rgb(139,40,220)"/><path d="M73.47181575531933,-78.57290129936017L73.28251501137079,25.823913280131475L73.4290230265169,23.359813597184008zM99.95135783688495,-76.1689140619085L82.4261755900876,12.140249904539813L85.39282730227671,10.703851924607003zM99.95135783688495,-76.1689140619085L85.39282730227671,10.703851924607003L88.51891046077958,9.688703798127703z" style="fill:rgb(83,212,212)"/><path d="M11.911273363294292,35.45948896260196L5.124584471146773,31.18516218873901L8.818505314862001,38.21458653254785z" style="fill:rgb(203,77,216)"/><path d="M23.755951488667318,22.15465162049255L23.2922147140046,29.945617098455912L27.322086834849973,29.2505655500065z" style="fill:rgb(115,34,214)"/><path d="M99.95135783688495,-76.1689140619085L88.51891046077958,9.688703798127703L91.68860514483134,9.13317330856815z" style="fill:rgb(83,212,212)"/><path d="M15.442979374035168,33.108778086328435L15.668247705730936,24.18018829114437L11.801219257471669,26.05471639028585z" style="fill:rgb(162,50,222)"/><path d="M99.95135783688495,-76.1689140619085L91.68860514483134,9.13317330856815L94.78399372606684,9.05928665369918z" style="fill:rgb(83,212,212)"/><path d="M8.818505314862001,38.21458653254785L2.562221501768712,34.254493180083834L6.279972080125925,41.273895948032916z" style="fill:rgb(220,94,208)"/><path d="M11.911273363294292,35.45948896260196L11.801219257471669,26.05471639028585L8.242990639723626,28.41838024329689z" style="fill:rgb(183,62,221)"/><path d="M19.2835325335476,31.24802580235324L19.702434927502765,22.86365602217161L15.668247705730936,24.18018829114437z" style="fill:rgb(139,40,220)"/><path d="M5.124584471146773,31.18516218873901L11.911273363294292,35.45948896260196L8.242990639723626,28.41838024329689z" style="fill:rgb(203,77,216)"/><path d="M27.679403964772344,22.08163026092208L27.322086834849973,29.2505655500065L31.22458753749275,29.190805141159604z" style="fill:rgb(92,32,204)"/><path d="M99.95135783688495,-76.1689140619085L94.78399372606684,9.05928665369918L97.68902380836121,9.47178480297857z" style="fill:rgb(83,212,212)"/><path d="M23.2922147140046,29.945617098455912L23.755951488667318,22.15465162049255L19.702434927502765,22.86365602217161z" style="fill:rgb(115,34,214)"/><path d="M2.562221501768712,34.254493180083834L8.818505314862001,38.21458653254785L5.124584471146773,31.18516218873901z" style="fill:rgb(220,94,208)"/><path d="M6.279972080125925,41.273895948032916L0.6533917807936879,37.51427909507917L4.392281054278171,44.52565847986423z" style="fill:rgb(233,112,197)"/><path d="M99.95135783688495,-76.1689140619085L97.68902380836121,9.47178480297857L100.29350848331397,10.357666846935196z" style="fill:rgb(83,212,212)"/><path d="M27.322086834849973,29.2505655500065L27.679403964772344,22.08163026092208L23.755951488667318,22.15465162049255z" style="fill:rgb(92,32,204)"/><path d="M31.326620145550134,22.650713767461177L31.22458753749275,29.190805141159604L34.85430514176503,29.771939046203183z" style="fill:rgb(71,33,192)"/><path d="M0.6533917807936879,37.51427909507917L6.279972080125925,41.273895948032916L2.562221501768712,34.254493180083834z" style="fill:rgb(233,112,197)"/><path d="M99.95135783688495,-76.1689140619085L100.29350848331397,10.357666846935196L102.49715361507667,11.686269831900796z" style="fill:rgb(83,212,212)"/><path d="M4.392281054278171,44.52565847986423L-0.5267228115158652,40.844328861017736L3.22979673250477,47.84996385178814z" style="fill:rgb(242,130,183)"/><path d="M31.22458753749275,29.190805141159604L31.326620145550134,22.650713767461177L27.679403964772344,22.08163026092208z" style="fill:rgb(71,33,192)"/><path d="M38.07387961381869,30.976558060893773L31.326620145550134,22.650713767461177L34.85430514176503,29.771939046203183z" style="fill:rgb(51,38,177)"/><path d="M99.95135783688495,-76.1689140619085L102.49715361507667,11.686269831900796L104.21337779170138,13.409944049874793z" style="fill:rgb(83,212,212)"/><path d="M-0.5267228115158652,40.844328861017736L4.392281054278171,44.52565847986423L0.6533917807936879,37.51427909507917z" style="fill:rgb(242,130,183)"/><path d="M-115.86660483982062,28.805366325515415L-126.00557248456293,122.42945422576902L-114.05268549364877,142.5790777217686zM99.95135783688495,-76.1689140619085L104.21337779170138,13.409944049874793L105.37299583740115,15.465367792959391z" style="fill:rgb(83,212,212)"/><path d="M3.22979673250477,47.84996385178814L-0.9283821955967665,44.120224075922465L2.841541073933415,51.122601266117755z" style="fill:rgb(246,149,167)"/><path d="M40.758933005444916,32.76419393819174L34.55957845164594,23.84498568626664L38.07387961381869,30.976558060893773z" style="fill:rgb(34,46,160)"/><path d="M31.326620145550134,22.650713767461177L38.07387961381869,30.976558060893773L34.55957845164594,23.84498568626664z" style="fill:rgb(51,38,177)"/><path d="M-0.9283821955967665,44.120224075922465L3.22979673250477,47.84996385178814L-0.5267228115158652,40.844328861017736z" style="fill:rgb(246,149,167)"/><path d="M99.95135783688495,-76.1689140619085L105.37299583740115,15.465367792959391L105.9272451808534,17.775526133823885z" style="fill:rgb(83,212,212)"/><path d="M-0.9283821955967665,44.120224075922465L3.248687662590618,54.219278946635605L2.841541073933415,51.122601266117755z" style="fill:rgb(246,167,149)"/><path d="M42.80291621510605,35.071999876568604L37.25336286499461,25.624421683893203L40.758933005444916,32.76419393819174z" style="fill:rgb(21,57,142)"/><path d="M34.55957845164594,23.84498568626664L40.758933005444916,32.76419393819174L37.25336286499461,25.624421683893203z" style="fill:rgb(34,46,160)"/><path d="M0.6533917807936879,37.51427909507917L0.6609650653094233,50.01639424231131L2.562221501768712,34.254493180083834zM2.562221501768712,34.254493180083834L5.235003488665783,54.289965825419415L5.124584471146773,31.18516218873901zM5.124584471146773,31.18516218873901L8.452401292504362,55.58959136933613L8.242990639723626,28.41838024329689zM8.242990639723626,28.41838024329689L12.1351191800081,56.248923017885595L11.801219257471669,26.05471639028585zM-0.5267228115158652,40.844328861017736L0.6609650653094233,50.01639424231131L0.6533917807936879,37.51427909507917z" style="fill:rgb(83,212,212)"/><path d="M-0.5298254352138366,47.21754424098987L4.442831177505665,57.020158317416495L3.248687662590618,54.219278946635605z" style="fill:rgb(242,183,130)"/><path d="M11.801219257471669,26.05471639028585L16.139739553440567,56.237301944130685L15.668247705730936,24.18018829114437z" style="fill:rgb(83,212,212)"/><path d="M3.248687662590618,54.219278946635605L-0.9283821955967665,44.120224075922465L-0.5298254352138366,47.21754424098987z" style="fill:rgb(246,167,149)"/><path d="M-0.5298254352138366,47.21754424098987L-0.5267228115158652,40.844328861017736L-0.9283821955967665,44.120224075922465zM15.668247705730936,24.18018829114437L20.30773765162734,55.55150446788047L19.702434927502765,22.86365602217161z" style="fill:rgb(83,212,212)"/><path d="M37.25336286499461,25.624421683893203L42.80291621510605,35.071999876568604L39.301023639610655,27.92654669680715z" style="fill:rgb(21,57,142)"/><path d="M19.702434927502765,22.86365602217161L24.472286246885506,54.21643730694994L23.755951488667318,22.15465162049255zM23.755951488667318,22.15465162049255L28.465707241369444,52.28446015314035L27.679403964772344,22.08163026092208zM-0.5267228115158652,40.844328861017736L-0.5298254352138366,47.21754424098987L0.6609650653094233,50.01639424231131zM2.562221501768712,34.254493180083834L0.6609650653094233,50.01639424231131L2.605470268457297,52.40611579911463z" style="fill:rgb(83,212,212)"/><path d="M4.442831177505665,57.020158317416495L-0.5298254352138366,47.21754424098987L0.6609650653094233,50.01639424231131z" style="fill:rgb(242,183,130)"/><path d="M27.679403964772344,22.08163026092208L32.127109848735046,49.83318209740209L31.326620145550134,22.650713767461177zM2.562221501768712,34.254493180083834L2.605470268457297,52.40611579911463L5.235003488665783,54.289965825419415zM31.326620145550134,22.650713767461177L32.127109848735046,49.83318209740209L34.55957845164594,23.84498568626664zM-100.92448112530649,6.32801102337941L-114.05268549364877,142.5790777217686L-96.0904148187332,159.4867237668469z" style="fill:rgb(83,212,212)"/><path d="M85.39282730227671,10.703851924607003L85.64273919254636,19.439385614251567L88.58862252520426,18.013772707175985z" style="fill:rgb(162,50,222)"/><path d="M82.4261755900876,12.140249904539813L82.96576436104324,21.233650529117536L85.64273919254636,19.439385614251567z" style="fill:rgb(183,62,221)"/><path d="M88.51891046077958,9.688703798127703L88.58862252520426,18.013772707175985L91.69424522837552,17.00975953836313z" style="fill:rgb(139,40,220)"/><path d="M34.55957845164594,23.84498568626664L37.88765648564419,43.787267539704175L37.25336286499461,25.624421683893203zM5.124584471146773,31.18516218873901L5.235003488665783,54.289965825419415L8.452401292504362,55.58959136933613z" style="fill:rgb(83,212,212)"/><path d="M82.96576436104324,21.233650529117536L77.40124194095122,16.05025532845968L80.6573372478309,23.330389037744688z" style="fill:rgb(203,77,216)"/><path d="M91.68860514483134,9.13317330856815L91.69424522837552,17.00975953836313L94.84451712727211,16.46530680883081z" style="fill:rgb(115,34,214)"/><path d="M-9.500070852926266,-61.68516154085252L-11.85918228237052,181.53282794951699L-0.9283821955967665,44.120224075922465zM37.25336286499461,25.624421683893203L39.760952000872955,40.437246477188005L39.301023639610655,27.92654669680715z" style="fill:rgb(83,212,212)"/><path d="M80.6573372478309,23.330389037744688L75.53082438396886,18.379751495007834L78.80424297735397,25.65233218518446z" style="fill:rgb(220,94,208)"/><path d="M8.242990639723626,28.41838024329689L8.452401292504362,55.58959136933613L12.1351191800081,56.248923017885595z" style="fill:rgb(83,212,212)"/><path d="M85.64273919254636,19.439385614251567L85.39282730227671,10.703851924607003L82.4261755900876,12.140249904539813z" style="fill:rgb(162,50,222)"/><path d="M94.78399372606684,9.05928665369918L94.84451712727211,16.46530680883081L97.92222979789969,16.402023734484438z" style="fill:rgb(92,32,204)"/><path d="M82.96576436104324,21.233650529117536L82.4261755900876,12.140249904539813L79.7288548737952,13.944561535423723z" style="fill:rgb(183,62,221)"/><path d="M88.58862252520426,18.013772707175985L88.51891046077958,9.688703798127703L85.39282730227671,10.703851924607003z" style="fill:rgb(139,40,220)"/><path d="M39.301023639610655,27.92654669680715L40.85987880896448,37.04581945615688L40.61817262869657,30.667960502942286z" style="fill:rgb(83,212,212)"/><path d="M77.40124194095122,16.05025532845968L82.96576436104324,21.233650529117536L79.7288548737952,13.944561535423723z" style="fill:rgb(203,77,216)"/><path d="M91.69424522837552,17.00975953836313L91.68860514483134,9.13317330856815L88.51891046077958,9.688703798127703z" style="fill:rgb(115,34,214)"/><path d="M11.801219257471669,26.05471639028585L12.1351191800081,56.248923017885595L16.139739553440567,56.237301944130685z" style="fill:rgb(83,212,212)"/><path d="M78.80424297735397,25.65233218518446L74.18912752013007,20.846903476558968L77.4773552524847,28.113600406153754z" style="fill:rgb(233,112,197)"/><path d="M75.53082438396886,18.379751495007834L80.6573372478309,23.330389037744688L77.40124194095122,16.05025532845968z" style="fill:rgb(220,94,208)"/><path d="M97.68902380836121,9.47178480297857L97.92222979789969,16.402023734484438L100.81197309972384,16.824238530692682z" style="fill:rgb(71,33,192)"/><path d="M-52.49099901534122,-148.62093390804563L-47.8696913139685,-47.446880797753174L-23.077693997545474,-159.23858627983338zM99.95135783688495,-76.1689140619085L121.28311398217387,129.77156811887386L124.44775574852034,-69.47754723280167z" style="fill:rgb(83,212,212)"/><path d="M94.84451712727211,16.46530680883081L94.78399372606684,9.05928665369918L91.68860514483134,9.13317330856815z" style="fill:rgb(92,32,204)"/><path d="M15.668247705730936,24.18018829114437L16.139739553440567,56.237301944130685L20.30773765162734,55.55150446788047zM40.61817262869657,30.667960502942286L40.85987880896448,37.04581945615688L41.147064157390666,33.74674349547326z" style="fill:rgb(83,212,212)"/><path d="M77.4773552524847,28.113600406153754L73.4290230265169,23.359813597184008L76.72896873644369,30.62250002517822z" style="fill:rgb(242,130,183)"/><path d="M74.18912752013007,20.846903476558968L78.80424297735397,25.65233218518446L75.53082438396886,18.379751495007834z" style="fill:rgb(233,112,197)"/><path d="M103.40414739074633,17.718560074060886L97.68902380836121,9.47178480297857L100.81197309972384,16.824238530692682z" style="fill:rgb(51,38,177)"/><path d="M19.702434927502765,22.86365602217161L20.30773765162734,55.55150446788047L24.472286246885506,54.21643730694994zM39.301023639610655,27.92654669680715L39.760952000872955,40.437246477188005L40.85987880896448,37.04581945615688z" style="fill:rgb(83,212,212)"/><path d="M97.92222979789969,16.402023734484438L97.68902380836121,9.47178480297857L94.78399372606684,9.05928665369918z" style="fill:rgb(71,33,192)"/><path d="M23.755951488667318,22.15465162049255L24.472286246885506,54.21643730694994L28.465707241369444,52.28446015314035zM37.25336286499461,25.624421683893203L37.88765648564419,43.787267539704175L39.760952000872955,40.437246477188005zM27.679403964772344,22.08163026092208L28.465707241369444,52.28446015314035L32.127109848735046,49.83318209740209zM34.55957845164594,23.84498568626664L35.309758383636876,46.96195989437121L37.88765648564419,43.787267539704175zM-23.077693997545474,-159.23858627983338L-21.163119467939236,-67.22557406296295L6.672854328312556,-166.25089611548944z" style="fill:rgb(83,212,212)"/><path d="M73.4290230265169,23.359813597184008L77.4773552524847,28.113600406153754L74.18912752013007,20.846903476558968z" style="fill:rgb(242,130,183)"/><path d="M76.72896873644369,30.62250002517822L73.28251501137079,25.823913280131475L76.59061347022508,33.084611608851276z" style="fill:rgb(246,149,167)"/><path d="M105.59891170808706,19.053975060559864L100.29350848331397,10.357666846935196L103.40414739074633,17.718560074060886z" style="fill:rgb(34,46,160)"/><path d="M34.55957845164594,23.84498568626664L32.127109848735046,49.83318209740209L35.309758383636876,46.96195989437121zM124.44775574852034,-69.47754723280167L166.4013107190434,78.46741618954096L146.04850330195842,-58.47068707514916z" style="fill:rgb(83,212,212)"/><path d="M97.68902380836121,9.47178480297857L103.40414739074633,17.718560074060886L100.29350848331397,10.357666846935196z" style="fill:rgb(51,38,177)"/><path d="M73.28251501137079,25.823913280131475L77.07144212815278,35.40611909816233L76.59061347022508,33.084611608851276z" style="fill:rgb(246,167,149)"/><path d="M73.28251501137079,25.823913280131475L76.72896873644369,30.62250002517822L73.4290230265169,23.359813597184008z" style="fill:rgb(246,149,167)"/><path d="M107.31010142129976,20.782537964161033L102.49715361507667,11.686269831900796L105.59891170808706,19.053975060559864z" style="fill:rgb(21,57,142)"/><path d="M-25.588388861433675,-56.47606127133658L11.801219257471669,26.05471639028585L15.668247705730936,24.18018829114437z" style="fill:rgb(162,50,222)"/><path d="M-29.757159655061237,-54.44354931223851L8.242990639723626,28.41838024329689L11.801219257471669,26.05471639028585z" style="fill:rgb(183,62,221)"/><path d="M100.29350848331397,10.357666846935196L105.59891170808706,19.053975060559864L102.49715361507667,11.686269831900796z" style="fill:rgb(34,46,160)"/><path d="M-21.26564712700988,-57.95867424171849L15.668247705730936,24.18018829114437L19.702434927502765,22.86365602217161z" style="fill:rgb(139,40,220)"/><path d="M8.242990639723626,28.41838024329689L-37.03477031400635,-49.04287260054774L5.124584471146773,31.18516218873901z" style="fill:rgb(203,77,216)"/><path d="M-16.94677753541172,-58.835872818402976L19.702434927502765,22.86365602217161L23.755951488667318,22.15465162049255z" style="fill:rgb(115,34,214)"/><path d="M77.07144212815278,35.40611909816233L73.28251501137079,25.823913280131475L73.75913258350253,28.145303793021135z" style="fill:rgb(246,167,149)"/><path d="M108.46873163794156,22.840705915829048L104.21337779170138,13.409944049874793L107.31010142129976,20.782537964161033z" style="fill:rgb(12,71,124)"/><path d="M-82.17010094015924,-14.440889213099576L-96.0904148187332,159.4867237668469L-72.50277738766638,172.16505826871355z" style="fill:rgb(83,212,212)"/><path d="M102.49715361507667,11.686269831900796L107.31010142129976,20.782537964161033L104.21337779170138,13.409944049874793z" style="fill:rgb(21,57,142)"/><path d="M5.124584471146773,31.18516218873901L-39.87507814918904,-45.87042981204862L2.562221501768712,34.254493180083834z" style="fill:rgb(220,94,208)"/><path d="M-12.790516590748744,-59.072943892414564L23.755951488667318,22.15465162049255L27.679403964772344,22.08163026092208z" style="fill:rgb(92,32,204)"/><path d="M2.562221501768712,34.254493180083834L-42.03301159006973,-42.533736122955915L0.6533917807936879,37.51427909507917z" style="fill:rgb(233,112,197)"/><path d="M45.87251109263384,-76.81722858800943L41.147064157390666,33.74674349547326L57.45954640146106,166.75722893298624z" style="fill:rgb(83,212,212)"/><path d="M104.21337779170138,13.409944049874793L108.46873163794156,22.840705915829048L105.37299583740115,15.465367792959391z" style="fill:rgb(12,71,124)"/><path d="M-8.951463994058397,-58.65740403555923L27.679403964772344,22.08163026092208L31.326620145550134,22.650713767461177z" style="fill:rgb(71,33,192)"/><path d="M146.04850330195842,-58.47068707514916L179.26172245522832,50.86378605703301L163.81119734336136,-43.25375150230205z" style="fill:rgb(83,212,212)"/><path d="M34.55957845164594,23.84498568626664L-8.951463994058397,-58.65740403555923L31.326620145550134,22.650713767461177z" style="fill:rgb(51,38,177)"/><path d="M0.6533917807936879,37.51427909507917L-43.42379454020242,-39.155607655791385L-0.5267228115158652,40.844328861017736z" style="fill:rgb(242,130,183)"/><path d="M45.87251109263384,-76.81722858800943L90.9697663382304,150.6652578733867L73.28251501137079,25.823913280131475z" style="fill:rgb(83,212,212)"/><path d="M176.80078238465956,-24.104217519576796L186.7308679687449,6.1458474651235475L179.37661932153367,-16.46367135231473z" style="fill:rgb(246,167,149)"/><path d="M37.25336286499461,25.624421683893203L-5.574911409590995,-57.59997813913139L34.55957845164594,23.84498568626664z" style="fill:rgb(34,46,160)"/><path d="M-0.5267228115158652,40.844328861017736L-43.989138537694146,-35.86221179805732L-0.9283821955967665,44.120224075922465z" style="fill:rgb(246,149,167)"/><path d="M-43.989138537694146,-35.86221179805732L-0.5298254352138366,47.21754424098987L-0.9283821955967665,44.120224075922465z" style="fill:rgb(246,167,149)"/><path d="M39.301023639610655,27.92654669680715L-2.791636964756401,-55.934944862165864L37.25336286499461,25.624421683893203z" style="fill:rgb(21,57,142)"/><path d="M163.81119734336136,-43.25375150230205L185.12940855065017,23.804601914409606L176.80078238465956,-24.104217519576796zM-60.24336691238321,-32.98734571624273L-72.50277738766638,172.16505826871355L-44.04500669273006,179.7362965415809zM31.506540222714527,-65.86717385016806L35.975307928656036,-169.36724383434145L6.672854328312556,-166.25089611548944z" style="fill:rgb(83,212,212)"/><path d="M-43.70015829284879,-32.778787528386395L0.6609650653094233,50.01639424231131L-0.5298254352138366,47.21754424098987z" style="fill:rgb(242,183,130)"/><path d="M105.9272451808534,17.775526133823885L121.28311398217387,129.77156811887386L99.95135783688495,-76.1689140619085z" style="fill:rgb(83,212,212)"/><path d="M186.7308679687449,6.1458474651235475L176.80078238465956,-24.104217519576796L184.14808759692323,-1.5094155223260899z" style="fill:rgb(246,167,149)"/><path d="M35.975307928656036,-169.36724383434145L41.838207682839496,-79.96331615982133L63.98798179230801,-168.34014699634568z" style="fill:rgb(83,212,212)"/><path d="M-23.757544344529514,72.78386983788381L-74.06483286892646,-12.18601649950953L-28.421783850056713,66.64249587748931z" style="fill:rgb(21,57,142)"/><path d="M-91.38280965538837,166.0553280805726L-114.05268549364877,142.5790777217686L-109.32050924645652,149.12261033249587z" style="fill:rgb(34,46,160)"/><path d="M34.049618053314646,-64.83554067069291L73.28251501137079,25.823913280131475L71.70964389153866,18.163078509146793z" style="fill:rgb(246,167,149)"/><path d="M-35.797684504032844,-48.865507613418096L-44.04500669273006,179.7362965415809L-11.85918228237052,181.53282794951699zM-0.9283821955967665,44.120224075922465L-11.85918228237052,181.53282794951699L-0.5298254352138366,47.21754424098987z" style="fill:rgb(83,212,212)"/><path d="M11.801219257471669,26.05471639028585L-25.588388861433675,-56.47606127133658L-29.757159655061237,-54.44354931223851z" style="fill:rgb(162,50,222)"/><path d="M8.242990639723626,28.41838024329689L-29.757159655061237,-54.44354931223851L-33.61985245252688,-51.93550998009608z" style="fill:rgb(183,62,221)"/><path d="M15.668247705730936,24.18018829114437L-21.26564712700988,-57.95867424171849L-25.588388861433675,-56.47606127133658z" style="fill:rgb(139,40,220)"/><path d="M-23.077693997545474,-159.23858627983338L-34.0613481961596,-62.78072709383901L-29.861366364423823,-64.82968019775397zM-23.077693997545474,-159.23858627983338L-37.955762309237834,-60.25809568516489L-34.0613481961596,-62.78072709383901zM-23.077693997545474,-159.23858627983338L-29.861366364423823,-64.82968019775397L-25.509000101577715,-66.33001243630231z" style="fill:rgb(83,212,212)"/><path d="M-37.03477031400635,-49.04287260054774L8.242990639723626,28.41838024329689L-33.61985245252688,-51.93550998009608z" style="fill:rgb(203,77,216)"/><path d="M-23.077693997545474,-159.23858627983338L-41.40180475881267,-57.353209947344354L-37.955762309237834,-60.25809568516489z" style="fill:rgb(83,212,212)"/><path d="M19.702434927502765,22.86365602217161L-16.94677753541172,-58.835872818402976L-21.26564712700988,-57.95867424171849z" style="fill:rgb(115,34,214)"/><path d="M-23.077693997545474,-159.23858627983338L-25.509000101577715,-66.33001243630231L-21.163119467939236,-67.22557406296295zM-23.077693997545474,-159.23858627983338L-44.27152762972632,-54.17126845251591L-41.40180475881267,-57.353209947344354zM-169.2781381784544,-54.16661511654011L-173.9199313147578,59.796192494380215L-152.28639454748057,-77.14406111423352z" style="fill:rgb(83,212,212)"/><path d="M-39.87507814918904,-45.87042981204862L5.124584471146773,31.18516218873901L-37.03477031400635,-49.04287260054774z" style="fill:rgb(220,94,208)"/><path d="M-152.28639454748057,-77.14406111423352L-155.7846074426527,76.19428428029082L-131.41878899692261,-98.56108466987509z" style="fill:rgb(83,212,212)"/><path d="M23.755951488667318,22.15465162049255L-12.790516590748744,-59.072943892414564L-16.94677753541172,-58.835872818402976z" style="fill:rgb(92,32,204)"/><path d="M-23.077693997545474,-159.23858627983338L-46.45608915513943,-50.828150163128974L-44.27152762972632,-54.17126845251591zM176.80078238465956,-24.104217519576796L185.12940855065017,23.804601914409606L184.14808759692323,-1.5094155223260899z" style="fill:rgb(83,212,212)"/><path d="M-17.310018376169797,77.69636446352055L-69.40601200190946,-6.210076706946028L-23.757544344529514,72.78386983788381z" style="fill:rgb(34,46,160)"/><path d="M-41.46808716067977,-72.50236506794066L3.8717270185696986,-83.69309162165635L-31.306210599193562,-77.46360574641324z" style="fill:rgb(83,212,212)"/><path d="M-42.03301159006973,-42.533736122955915L2.562221501768712,34.254493180083834L-39.87507814918904,-45.87042981204862z" style="fill:rgb(233,112,197)"/><path d="M-181.70962463904263,-30.224173708895268L-185.42023475892853,39.94739000681442L-169.2781381784544,-54.16661511654011zM-50.90791637940671,-66.40660820554834L3.8717270185696986,-83.69309162165635L-41.46808716067977,-72.50236506794066zM-31.306210599193562,-77.46360574641324L3.8717270185696986,-83.69309162165635L-20.764627020183283,-81.12194364968568z" style="fill:rgb(83,212,212)"/><path d="M27.679403964772344,22.08163026092208L-8.951463994058397,-58.65740403555923L-12.790516590748744,-59.072943892414564z" style="fill:rgb(71,33,192)"/><path d="M-131.41878899692261,-98.56108466987509L-131.32831147292808,88.12880559278501L-107.36727078967611,-117.90367253843853zM-23.077693997545474,-159.23858627983338L-47.8696913139685,-47.446880797753174L-46.45608915513943,-50.828150163128974zM6.672854328312556,-166.25089611548944L-21.163119467939236,-67.22557406296295L-16.98340756278618,-67.48097287894255zM-47.8696913139685,-47.446880797753174L-52.49099901534122,-148.62093390804563L-48.45311731596543,-44.15374690152798zM-0.5298254352138366,47.21754424098987L22.560323645670167,177.1967352748118L0.6609650653094233,50.01639424231131zM-59.303312801223186,-59.3783161968982L3.8717270185696986,-83.69309162165635L-50.90791637940671,-66.40660820554834zM-20.764627020183283,-81.12194364968568L3.8717270185696986,-83.69309162165635L-10.199067384575903,-83.34597648962921z" style="fill:rgb(83,212,212)"/><path d="M-43.42379454020242,-39.155607655791385L0.6533917807936879,37.51427909507917L-42.03301159006973,-42.533736122955915z" style="fill:rgb(242,130,183)"/><path d="M6.672854328312556,-166.25089611548944L-16.98340756278618,-67.48097287894255L-13.1253114860654,-67.08302153728758zM0.6609650653094233,50.01639424231131L22.560323645670167,177.1967352748118L2.605470268457297,52.40611579911463zM-66.35860571842561,-51.64966977207241L3.8717270185696986,-83.69309162165635L-59.303312801223186,-59.3783161968982z" style="fill:rgb(83,212,212)"/><path d="M-8.951463994058397,-58.65740403555923L34.55957845164594,23.84498568626664L-5.574911409590995,-57.59997813913139z" style="fill:rgb(51,38,177)"/><path d="M-114.05268549364877,142.5790777217686L-91.38280965538837,166.0553280805726L-96.0904148187332,159.4867237668469z" style="fill:rgb(34,46,160)"/><path d="M6.672854328312556,-166.25089611548944L-13.1253114860654,-67.08302153728758L-9.734849306565394,-66.04174448474122z" style="fill:rgb(83,212,212)"/><path d="M185.12940855065017,23.804601914409606L186.7308679687449,6.1458474651235475L184.14808759692323,-1.5094155223260899z" style="fill:rgb(246,149,167)"/><path d="M-190.3209821599235,17.6827930367361L-181.70962463904263,-30.224173708895268L-188.9228909555811,-6.008505823359316zM-10.199067384575903,-83.34597648962921L3.8717270185696986,-83.69309162165635L0.02819393874079199,-84.0449479726387zM-107.36727078967611,-117.90367253843853L-101.28367303355948,94.70271544805841L-80.8252414106982,-134.72304605232534z" style="fill:rgb(83,212,212)"/><path d="M-43.989138537694146,-35.86221179805732L-0.5267228115158652,40.844328861017736L-43.42379454020242,-39.155607655791385zM73.28251501137079,25.823913280131475L34.604652659058985,-48.92141715234895L72.78955363785438,34.11527814417392z" style="fill:rgb(246,149,167)"/><path d="M2.605470268457297,52.40611579911463L22.560323645670167,177.1967352748118L5.235003488665783,54.289965825419415zM163.81119734336136,-43.25375150230205L179.26172245522832,50.86378605703301L185.12940855065017,23.804601914409606zM6.672854328312556,-166.25089611548944L-9.734849306565394,-66.04174448474122L-6.943371081420668,-64.39075250547745z" style="fill:rgb(83,212,212)"/><path d="M-5.574911409590995,-57.59997813913139L37.25336286499461,25.624421683893203L-2.791636964756401,-55.934944862165864z" style="fill:rgb(34,46,160)"/><path d="M-9.300485374840088,81.15374876131449L-62.79757431785672,-1.532464318642459L-17.310018376169797,77.69636446352055z" style="fill:rgb(51,38,177)"/><path d="M-71.81226736230973,-43.47932633195043L3.8717270185696986,-83.69309162165635L-66.35860571842561,-51.64966977207241zM5.235003488665783,54.289965825419415L22.560323645670167,177.1967352748118L8.452401292504362,55.58959136933613zM40.85987880896448,37.04581945615688L57.45954640146106,166.75722893298624L41.147064157390666,33.74674349547326zM8.452401292504362,55.58959136933613L22.560323645670167,177.1967352748118L12.1351191800081,56.248923017885595zM6.672854328312556,-166.25089611548944L-6.943371081420668,-64.39075250547745L-4.86239930333003,-62.1868781820171z" style="fill:rgb(83,212,212)"/><path d="M-0.5298254352138366,47.21754424098987L-43.989138537694146,-35.86221179805732L-43.70015829284879,-32.778787528386395z" style="fill:rgb(246,167,149)"/><path d="M186.7308679687449,6.1458474651235475L185.12940855065017,23.804601914409606L187.7631677101133,31.442807345940405z" style="fill:rgb(246,149,167)"/><path d="M39.760952000872955,40.437246477188005L57.45954640146106,166.75722893298624L40.85987880896448,37.04581945615688zM12.1351191800081,56.248923017885595L22.560323645670167,177.1967352748118L16.139739553440567,56.237301944130685z" style="fill:rgb(83,212,212)"/><path d="M-2.791636964756401,-55.934944862165864L39.301023639610655,27.92654669680715L-0.7127647221395133,-53.71973996647393z" style="fill:rgb(21,57,142)"/><path d="M-80.8252414106982,-134.72304605232534L-66.8336999114873,95.24563446969137L-52.49099901534122,-148.62093390804563zM16.139739553440567,56.237301944130685L22.560323645670167,177.1967352748118L20.30773765162734,55.55150446788047zM6.672854328312556,-166.25089611548944L-4.86239930333003,-62.1868781820171L-3.5787486596093556,-59.5090183977593zM37.88765648564419,43.787267539704175L57.45954640146106,166.75722893298624L39.760952000872955,40.437246477188005zM20.30773765162734,55.55150446788047L22.560323645670167,177.1967352748118L24.472286246885506,54.21643730694994z" style="fill:rgb(83,212,212)"/><path d="M72.78955363785438,34.11527814417392L31.536581920187352,-40.19765842392505L70.20605429129789,42.7127673270366z" style="fill:rgb(242,130,183)"/><path d="M0.6609650653094233,50.01639424231131L-43.70015829284879,-32.778787528386395L-42.559534080670915,-30.025082365859923z" style="fill:rgb(242,183,130)"/><path d="M146.04850330195842,-58.47068707514916L166.4013107190434,78.46741618954096L179.26172245522832,50.86378605703301zM35.309758383636876,46.96195989437121L57.45954640146106,166.75722893298624L37.88765648564419,43.787267539704175zM73.28251501137079,25.823913280131475L90.9697663382304,150.6652578733867L73.75913258350253,28.145303793021135zM32.127109848735046,49.83318209740209L57.45954640146106,166.75722893298624L35.309758383636876,46.96195989437121zM6.672854328312556,-166.25089611548944L-3.5787486596093556,-59.5090183977593L-3.1501897533231444,-56.45597111631887zM28.465707241369444,52.28446015314035L57.45954640146106,166.75722893298624L32.127109848735046,49.83318209740209zM24.472286246885506,54.21643730694994L57.45954640146106,166.75722893298624L28.465707241369444,52.28446015314035zM73.75913258350253,28.145303793021135L90.9697663382304,150.6652578733867L74.84492859720143,30.23422069099924z" style="fill:rgb(83,212,212)"/><path d="M-44.70470486836949,3.0987662527011826L-9.300485374840088,81.15374876131449L-0.027768591409871732,82.98369942828607z" style="fill:rgb(71,33,192)"/><path d="M-67.8738708289316,178.7777669452712L-96.0904148187332,159.4867237668469L-91.38280965538837,166.0553280805726z" style="fill:rgb(51,38,177)"/><path d="M74.84492859720143,30.23422069099924L90.9697663382304,150.6652578733867L76.5024125958052,32.00854834127387zM105.85040337350283,20.25236503909413L121.28311398217387,129.77156811887386L105.9272451808534,17.775526133823885zM124.44775574852034,-69.47754723280167L146.82666321369615,105.24816414542697L166.4013107190434,78.46741618954096zM45.87251109263384,-76.81722858800943L57.45954640146106,166.75722893298624L90.9697663382304,150.6652578733867zM-71.81226736230973,-43.47932633195043L-75.6036096950307,-16.372782529479476L3.8717270185696986,-83.69309162165635zM76.5024125958052,32.00854834127387L90.9697663382304,150.6652578733867L78.67131513305567,33.39725614894872z" style="fill:rgb(83,212,212)"/><path d="M70.20605429129789,42.7127673270366L26.31320015491723,-31.42681334388124L65.59865520518312,51.26524104483747z" style="fill:rgb(233,112,197)"/><path d="M105.14135250490337,22.800044239398698L121.28311398217387,129.77156811887386L105.85040337350283,20.25236503909413zM35.975307928656036,-169.36724383434145L38.88265339957184,-78.03560351734423L41.838207682839496,-79.96331615982133zM78.67131513305567,33.39725614894872L90.9697663382304,150.6652578733867L81.27036501627526,34.34354551228791zM35.975307928656036,-169.36724383434145L36.30965248356911,-75.82425429543014L38.88265339957184,-78.03560351734423zM103.82435941875103,25.318708979970697L121.28311398217387,129.77156811887386L105.14135250490337,22.800044239398698zM3.8717270185696986,-83.69309162165635L31.96131073310937,-68.76954407997022L9.556062979896756,-83.17272955423284zM84.20008236376307,34.8075594281091L121.28311398217387,129.77156811887386L87.34652959876534,34.76845183892888zM35.975307928656036,-169.36724383434145L34.21564209091269,-73.41050957127669L36.30965248356911,-75.82425429543014zM-21.26564712700988,-57.95867424171849L-28.16304112477375,-56.5577488749749L-30.076898134056087,-54.936602727793zM-25.588388861433675,-56.47606127133658L-30.076898134056087,-54.936602727793L-31.88200810746135,-53.40756406902868zM-75.44525321513028,-35.14789705467704L-75.6036096950307,-16.372782529479476L-71.81226736230973,-43.47932633195043zM101.94850599801971,27.708614954223133L121.28311398217387,129.77156811887386L103.82435941875103,25.318708979970697z" style="fill:rgb(83,212,212)"/><path d="M-74.06483286892646,-12.18601649950953L-23.757544344529514,72.78386983788381L-69.40601200190946,-6.210076706946028z" style="fill:rgb(21,57,142)"/><path d="M81.27036501627526,34.34354551228791L90.9697663382304,150.6652578733867L84.20008236376307,34.8075594281091zM-29.757159655061237,-54.44354931223851L-31.88200810746135,-53.40756406902868L-33.61985245252688,-51.93550998009608zM87.34652959876534,34.76845183892888L121.28311398217387,129.77156811887386L90.5858825471921,34.225669099701435zM99.5861640781862,29.874422077048738L121.28311398217387,129.77156811887386L101.94850599801971,27.708614954223133zM35.975307928656036,-169.36724383434145L32.68053241535957,-70.88344923446654L34.21564209091269,-73.41050957127669z" style="fill:rgb(83,212,212)"/><path d="M-33.913522091046495,2.793433813395135L-0.027768591409871732,82.98369942828607L10.141206098874802,83.08081283847139z" style="fill:rgb(92,32,204)"/><path d="M90.5858825471921,34.225669099701435L121.28311398217387,129.77156811887386L93.78961823078309,33.19929058024152zM96.83009220226262,31.72939579555456L121.28311398217387,129.77156811887386L99.5861640781862,29.874422077048738zM93.78961823078309,33.19929058024152L121.28311398217387,129.77156811887386L96.83009220226262,31.72939579555456zM-181.70962463904263,-30.224173708895268L-190.3209821599235,17.6827930367361L-185.42023475892853,39.94739000681442zM31.96131073310937,-68.76954407997022L3.8717270185696986,-83.69309162165635L-28.16304112477375,-56.5577488749749zM35.975307928656036,-169.36724383434145L31.76470847329798,-68.33706264717387L32.68053241535957,-70.88344923446654z" style="fill:rgb(83,212,212)"/><path d="M65.59865520518312,51.26524104483747L19.118128041908115,-22.980752792954885L59.12847172176021,59.41121196828797z" style="fill:rgb(220,94,208)"/><path d="M9.556062979896756,-83.17272955423284L31.96131073310937,-68.76954407997022L18.033699389886486,-80.73200273772794z" style="fill:rgb(83,212,212)"/><path d="M-29.861366364423823,-64.82968019775397L-29.757159655061237,-54.44354931223851L-25.588388861433675,-56.47606127133658z" style="fill:rgb(162,50,222)"/><path d="M-34.0613481961596,-62.78072709383901L-33.61985245252688,-51.93550998009608L-29.757159655061237,-54.44354931223851z" style="fill:rgb(183,62,221)"/><path d="M73.28251501137079,25.823913280131475L34.049618053314646,-64.83554067069291L35.4363185844632,-57.24198301357656z" style="fill:rgb(246,167,149)"/><path d="M-37.03477031400635,-49.04287260054774L-40.59463967869506,-46.02745126298672L-41.32690042738708,-44.24883518443628zM-12.790516590748744,-59.072943892414564L-14.740432763208673,-59.284003995017486L-16.94677753541172,-58.835872818402976z" style="fill:rgb(83,212,212)"/><path d="M-25.509000101577715,-66.33001243630231L-25.588388861433675,-56.47606127133658L-21.26564712700988,-57.95867424171849z" style="fill:rgb(139,40,220)"/><path d="M-76.6415446918158,-19.196835171701245L-75.44525321513028,-35.14789705467704L-77.09025268187692,-26.952040446841007zM35.975307928656036,-169.36724383434145L31.506540222714527,-65.86717385016806L31.76470847329798,-68.33706264717387zM63.98798179230801,-168.34014699634568L41.838207682839496,-79.96331615982133L45.06667162586937,-81.53652659094487z" style="fill:rgb(83,212,212)"/><path d="M-33.61985245252688,-51.93550998009608L-41.40180475881267,-57.353209947344354L-37.03477031400635,-49.04287260054774z" style="fill:rgb(203,77,216)"/><path d="M63.98798179230801,-168.34014699634568L45.06667162586937,-81.53652659094487L48.44883580061174,-82.69702538586556z" style="fill:rgb(83,212,212)"/><path d="M-21.163119467939236,-67.22557406296295L-21.26564712700988,-57.95867424171849L-16.94677753541172,-58.835872818402976z" style="fill:rgb(115,34,214)"/><path d="M-8.951463994058397,-58.65740403555923L-12.442602365146236,-59.75071191830157L-14.740432763208673,-59.284003995017486zM63.98798179230801,-168.34014699634568L48.44883580061174,-82.69702538586556L51.85978369530646,-83.40113140586959zM-39.87507814918904,-45.87042981204862L-41.32690042738708,-44.24883518443628L-42.03301159006973,-42.533736122955915zM124.44775574852034,-69.47754723280167L121.28311398217387,129.77156811887386L146.82666321369615,105.24816414542697z" style="fill:rgb(83,212,212)"/><path d="M-22.53432809995233,0.6952617510918335L10.141206098874802,83.08081283847139L20.786697895256204,81.4165444330732z" style="fill:rgb(115,34,214)"/><path d="M-29.757159655061237,-54.44354931223851L-29.861366364423823,-64.82968019775397L-34.0613481961596,-62.78072709383901z" style="fill:rgb(162,50,222)"/><path d="M63.98798179230801,-168.34014699634568L51.85978369530646,-83.40113140586959L55.17294457553708,-83.6212531148682z" style="fill:rgb(83,212,212)"/><path d="M-33.61985245252688,-51.93550998009608L-34.0613481961596,-62.78072709383901L-37.955762309237834,-60.25809568516489z" style="fill:rgb(183,62,221)"/><path d="M-37.03477031400635,-49.04287260054774L-44.27152762972632,-54.17126845251591L-39.87507814918904,-45.87042981204862z" style="fill:rgb(220,94,208)"/><path d="M-25.588388861433675,-56.47606127133658L-25.509000101577715,-66.33001243630231L-29.861366364423823,-64.82968019775397z" style="fill:rgb(139,40,220)"/><path d="M-96.0904148187332,159.4867237668469L-67.8738708289316,178.7777669452712L-72.50277738766638,172.16505826871355z" style="fill:rgb(51,38,177)"/><path d="M59.12847172176021,59.41121196828797L10.233857862637677,-15.227434365830643L51.04798398253721,66.79787027377668z" style="fill:rgb(203,77,216)"/><path d="M-5.574911409590995,-57.59997813913139L-9.999541272966235,-60.246921233983706L-12.442602365146236,-59.75071191830157z" style="fill:rgb(83,212,212)"/><path d="M-41.40180475881267,-57.353209947344354L-33.61985245252688,-51.93550998009608L-37.955762309237834,-60.25809568516489z" style="fill:rgb(203,77,216)"/><path d="M179.26172245522832,50.86378605703301L187.7631677101133,31.442807345940405L185.12940855065017,23.804601914409606z" style="fill:rgb(242,130,183)"/><path d="M-16.98340756278618,-67.48097287894255L-16.94677753541172,-58.835872818402976L-12.790516590748744,-59.072943892414564z" style="fill:rgb(92,32,204)"/><path d="M-21.26564712700988,-57.95867424171849L-21.163119467939236,-67.22557406296295L-25.509000101577715,-66.33001243630231z" style="fill:rgb(115,34,214)"/><path d="M-40.59463967869506,-46.02745126298672L-46.955983228455615,-40.63901577789466L-44.87822609135985,-35.62288464702447zM63.98798179230801,-168.34014699634568L55.17294457553708,-83.6212531148682L58.264301389139085,-83.3470080586035z" style="fill:rgb(83,212,212)"/><path d="M10.233857862637677,-15.227434365830643L41.69109760881679,73.10109917782673L51.04798398253721,66.79787027377668z" style="fill:rgb(183,62,221)"/><path d="M-11.053327399158189,-3.12440328308541L20.786697895256204,81.4165444330732L31.456666191312696,78.04465619067784z" style="fill:rgb(139,40,220)"/><path d="M-75.44525321513028,-35.14789705467704L-76.6415446918158,-19.196835171701245L-75.6036096950307,-16.372782529479476z" style="fill:rgb(83,212,212)"/><path d="M-44.27152762972632,-54.17126845251591L-37.03477031400635,-49.04287260054774L-41.40180475881267,-57.353209947344354z" style="fill:rgb(220,94,208)"/><path d="M18.033699389886486,-80.73200273772794L31.96131073310937,-68.76954407997022L25.131310608359428,-76.77826863393373z" style="fill:rgb(83,212,212)"/><path d="M-39.87507814918904,-45.87042981204862L-46.45608915513943,-50.828150163128974L-42.03301159006973,-42.533736122955915z" style="fill:rgb(233,112,197)"/><path d="M0.03041909804361477,-8.509666138015314L31.456666191312696,78.04465619067784L41.69109760881679,73.10109917782673z" style="fill:rgb(162,50,222)"/><path d="M-69.40601200190946,-6.210076706946028L-17.310018376169797,77.69636446352055L-62.79757431785672,-1.532464318642459z" style="fill:rgb(34,46,160)"/><path d="M63.98798179230801,-168.34014699634568L58.264301389139085,-83.3470080586035L61.01661982926531,-82.58591005446866z" style="fill:rgb(83,212,212)"/><path d="M-16.94677753541172,-58.835872818402976L-16.98340756278618,-67.48097287894255L-21.163119467939236,-67.22557406296295z" style="fill:rgb(92,32,204)"/><path d="M34.604652659058985,-48.92141715234895L73.28251501137079,25.823913280131475L35.4363185844632,-57.24198301357656z" style="fill:rgb(246,149,167)"/><path d="M-13.1253114860654,-67.08302153728758L-12.790516590748744,-59.072943892414564L-8.951463994058397,-58.65740403555923z" style="fill:rgb(71,33,192)"/><path d="M-46.45608915513943,-50.828150163128974L-39.87507814918904,-45.87042981204862L-44.27152762972632,-54.17126845251591z" style="fill:rgb(233,112,197)"/><path d="M63.98798179230801,-168.34014699634568L61.01661982926531,-82.58591005446866L63.323752303089414,-81.36351956148602zM-43.42379454020242,-39.155607655791385L-44.13573227465677,-37.42635661113817L-43.989138537694146,-35.86221179805732z" style="fill:rgb(83,212,212)"/><path d="M-42.03301159006973,-42.533736122955915L-47.8696913139685,-47.446880797753174L-43.42379454020242,-39.155607655791385z" style="fill:rgb(242,130,183)"/><path d="M-12.790516590748744,-59.072943892414564L-13.1253114860654,-67.08302153728758L-16.98340756278618,-67.48097287894255z" style="fill:rgb(71,33,192)"/><path d="M-5.574911409590995,-57.59997813913139L-13.1253114860654,-67.08302153728758L-8.951463994058397,-58.65740403555923z" style="fill:rgb(51,38,177)"/><path d="M187.7631677101133,31.442807345940405L179.26172245522832,50.86378605703301L181.99457821084198,58.45178403919554z" style="fill:rgb(242,130,183)"/><path d="M63.98798179230801,-168.34014699634568L63.323752303089414,-81.36351956148602L65.09470562389052,-79.72300021149739z" style="fill:rgb(83,212,212)"/><path d="M-47.8696913139685,-47.446880797753174L-42.03301159006973,-42.533736122955915L-46.45608915513943,-50.828150163128974z" style="fill:rgb(242,130,183)"/><path d="M-43.70015829284879,-32.778787528386395L-44.13573227465677,-37.42635661113817L-44.87822609135985,-35.62288464702447zM-75.113260261896,-15.03861674136104L-46.955983228455615,-40.63901577789466L-75.6036096950307,-16.372782529479476zM-169.2781381784544,-54.16661511654011L-185.42023475892853,39.94739000681442L-173.9199313147578,59.796192494380215zM25.131310608359428,-76.77826863393373L31.96131073310937,-68.76954407997022L30.552744543051425,-71.42303235527959zM63.98798179230801,-168.34014699634568L65.09470562389052,-79.72300021149739L66.25750744971496,-77.72404684134675z" style="fill:rgb(83,212,212)"/><path d="M-43.42379454020242,-39.155607655791385L-48.45311731596543,-44.15374690152798L-43.989138537694146,-35.86221179805732z" style="fill:rgb(246,149,167)"/><path d="M-2.791636964756401,-55.934944862165864L-9.734849306565394,-66.04174448474122L-5.574911409590995,-57.59997813913139z" style="fill:rgb(34,46,160)"/><path d="M-13.1253114860654,-67.08302153728758L-5.574911409590995,-57.59997813913139L-9.734849306565394,-66.04174448474122z" style="fill:rgb(51,38,177)"/><path d="M-0.7127647221395133,-53.71973996647393L-1.3659581908753056,-55.08206221396898L-2.791636964756401,-55.934944862165864z" style="fill:rgb(83,212,212)"/><path d="M-48.45311731596543,-44.15374690152798L-43.42379454020242,-39.155607655791385L-47.8696913139685,-47.446880797753174z" style="fill:rgb(246,149,167)"/><path d="M63.98798179230801,-168.34014699634568L66.25750744971496,-77.72404684134675L66.76251419499776,-75.44110399016418z" style="fill:rgb(83,212,212)"/><path d="M-48.45311731596543,-44.15374690152798L-43.70015829284879,-32.778787528386395L-43.989138537694146,-35.86221179805732z" style="fill:rgb(246,167,149)"/><path d="M-62.79757431785672,-1.532464318642459L-9.300485374840088,81.15374876131449L-54.46114217634787,1.6253460205610661z" style="fill:rgb(51,38,177)"/><path d="M31.536581920187352,-40.19765842392505L72.78955363785438,34.11527814417392L34.604652659058985,-48.92141715234895z" style="fill:rgb(242,130,183)"/><path d="M-0.7127647221395133,-53.71973996647393L-6.943371081420668,-64.39075250547745L-2.791636964756401,-55.934944862165864z" style="fill:rgb(21,57,142)"/><path d="M0.5750837838838059,-51.03376557222025L0.12158450208235577,-54.192173731714455L-1.3659581908753056,-55.08206221396898zM-46.955983228455615,-40.63901577789466L-75.113260261896,-15.03861674136104L-39.21682921651837,-21.955109376092857zM-44.27152762972632,-54.17126845251591L-45.0856116316301,-36.0228889351341L-41.40180475881267,-57.353209947344354z" style="fill:rgb(83,212,212)"/><path d="M-9.734849306565394,-66.04174448474122L-2.791636964756401,-55.934944862165864L-6.943371081420668,-64.39075250547745z" style="fill:rgb(34,46,160)"/><path d="M-46.45608915513943,-50.828150163128974L-47.04252555419845,-38.327286211931415L-44.27152762972632,-54.17126845251591zM-0.5298254352138366,47.21754424098987L-11.85918228237052,181.53282794951699L22.560323645670167,177.1967352748118zM-37.955762309237834,-60.25809568516489L-39.006753650904336,-33.09821702405555L-34.0613481961596,-62.78072709383901zM-47.8696913139685,-47.446880797753174L-48.17670265995303,-41.073998504599345L-46.45608915513943,-50.828150163128974zM-41.40180475881267,-57.353209947344354L-39.006753650904336,-33.09821702405555L-37.955762309237834,-60.25809568516489z" style="fill:rgb(83,212,212)"/><path d="M-48.17670265995303,-41.073998504599345L-42.559534080670915,-30.025082365859923L-43.70015829284879,-32.778787528386395z" style="fill:rgb(242,183,130)"/><path d="M-34.0613481961596,-62.78072709383901L-30.841159245663906,-32.79634793936594L-29.861366364423823,-64.82968019775397zM1.7062310610759324,-53.24418846253288L0.12158450208235577,-54.192173731714455L1.0141046375317238,-47.9761977950421zM-29.861366364423823,-64.82968019775397L-30.841159245663906,-32.79634793936594L-25.509000101577715,-66.33001243630231z" style="fill:rgb(83,212,212)"/><path d="M-43.70015829284879,-32.778787528386395L-48.45311731596543,-44.15374690152798L-48.17670265995303,-41.073998504599345z" style="fill:rgb(246,167,149)"/><path d="M-67.8738708289316,178.7777669452712L-44.04500669273006,179.7362965415809L-72.50277738766638,172.16505826871355z" style="fill:rgb(71,33,192)"/><path d="M-48.17670265995303,-41.073998504599345L-47.8696913139685,-47.446880797753174L-48.45311731596543,-44.15374690152798zM-40.60266220766071,-27.71058278833694L-42.559534080670915,-30.025082365859923L-41.975067334808436,-28.614060901846095z" style="fill:rgb(83,212,212)"/><path d="M-6.943371081420668,-64.39075250547745L-0.7127647221395133,-53.71973996647393L-4.86239930333003,-62.1868781820171z" style="fill:rgb(21,57,142)"/><path d="M-9.300485374840088,81.15374876131449L-44.70470486836949,3.0987662527011826L-54.46114217634787,1.6253460205610661z" style="fill:rgb(71,33,192)"/><path d="M-25.509000101577715,-66.33001243630231L-21.85906404986107,-35.199376206732424L-21.163119467939236,-67.22557406296295zM-46.45608915513943,-50.828150163128974L-48.17670265995303,-41.073998504599345L-47.04252555419845,-38.327286211931415zM-21.163119467939236,-67.22557406296295L-17.509562858058988,-37.317203285944146L-16.98340756278618,-67.48097287894255zM-44.27152762972632,-54.17126845251591L-47.04252555419845,-38.327286211931415L-45.0856116316301,-36.0228889351341z" style="fill:rgb(83,212,212)"/><path d="M-42.559534080670915,-30.025082365859923L-48.17670265995303,-41.073998504599345L-47.04252555419845,-38.327286211931415z" style="fill:rgb(242,183,130)"/><path d="M26.31320015491723,-31.42681334388124L70.20605429129789,42.7127673270366L31.536581920187352,-40.19765842392505z" style="fill:rgb(233,112,197)"/><path d="M-44.04500669273006,179.7362965415809L-67.8738708289316,178.7777669452712L-39.54983983906989,186.41430402620205z" style="fill:rgb(71,33,192)"/><path d="M-16.98340756278618,-67.48097287894255L-13.49106409110604,-39.9404005737461L-13.1253114860654,-67.08302153728758zM-41.40180475881267,-57.353209947344354L-45.0856116316301,-36.0228889351341L-42.373896273093166,-34.254986458912136zM29.42940533717631,-36.65939098702158L31.96131073310937,-68.76954407997022L-9.999541272966235,-60.246921233983706zM-13.1253114860654,-67.08302153728758L-9.96526816048178,-42.96222406497995L-9.734849306565394,-66.04174448474122zM-35.06601690609651,-24.06570446439034L-41.975067334808436,-28.614060901846095L-40.007064984044646,-23.862903542647214z" style="fill:rgb(83,212,212)"/><path d="M45.06667162586937,-81.53652659094487L45.65369652970773,-71.30507913954312L48.85757443727372,-72.86537017656629z" style="fill:rgb(162,50,222)"/><path d="M41.838207682839496,-79.96331615982133L42.72253555398053,-69.388700703093L45.65369652970773,-71.30507913954312z" style="fill:rgb(183,62,221)"/><path d="M-152.28639454748057,-77.14406111423352L-173.9199313147578,59.796192494380215L-155.7846074426527,76.19428428029082z" style="fill:rgb(83,212,212)"/><path d="M48.44883580061174,-82.69702538586556L48.85757443727372,-72.86537017656629L52.215827672953196,-74.01182343563039z" style="fill:rgb(139,40,220)"/><path d="M-9.734849306565394,-66.04174448474122L-7.072261769611159,-46.259663462666914L-6.943371081420668,-64.39075250547745z" style="fill:rgb(83,212,212)"/><path d="M166.4013107190434,78.46741618954096L181.99457821084198,58.45178403919554L179.26172245522832,50.86378605703301z" style="fill:rgb(233,112,197)"/><path d="M-41.40180475881267,-57.353209947344354L-42.373896273093166,-34.254986458912136L-39.006753650904336,-33.09821702405555z" style="fill:rgb(83,212,212)"/><path d="M-0.027768591409871732,82.98369942828607L-33.913522091046495,2.793433813395135L-44.70470486836949,3.0987662527011826z" style="fill:rgb(92,32,204)"/><path d="M42.72253555398053,-69.388700703093L36.30965248356911,-75.82425429543014L40.172862872848164,-67.18670388268448z" style="fill:rgb(203,77,216)"/><path d="M51.85978369530646,-83.40113140586959L52.215827672953196,-74.01182343563039L55.60439600561262,-74.7012693978721z" style="fill:rgb(115,34,214)"/><path d="M63.98798179230801,-168.34014699634568L107.58331759857795,10.849040041053932L89.80571093369102,-162.98305158475833zM31.96131073310937,-68.76954407997022L34.604652659058985,-48.92141715234895L34.049618053314646,-64.83554067069291zM-34.0613481961596,-62.78072709383901L-39.006753650904336,-33.09821702405555L-35.111977091208196,-32.60376420450714z" style="fill:rgb(83,212,212)"/><path d="M40.172862872848164,-67.18670388268448L34.21564209091269,-73.41050957127669L38.100269239137305,-64.78000655016072z" style="fill:rgb(220,94,208)"/><path d="M-52.49099901534122,-148.62093390804563L-66.8336999114873,95.24563446969137L-48.45311731596543,-44.15374690152798zM0.5787842977539941,-44.66284062513378L-0.7217863931747815,-41.2219685937514L0.3558165505209374,-42.96576404158843zM-32.82615892374971,-24.157637833151014L-37.8975970406177,-25.92978713038289L-35.06601690609651,-24.06570446439034z" style="fill:rgb(83,212,212)"/><path d="M45.65369652970773,-71.30507913954312L45.06667162586937,-81.53652659094487L41.838207682839496,-79.96331615982133z" style="fill:rgb(162,50,222)"/><path d="M19.118128041908115,-22.980752792954885L65.59865520518312,51.26524104483747L26.31320015491723,-31.42681334388124z" style="fill:rgb(220,94,208)"/><path d="M-6.943371081420668,-64.39075250547745L-7.072261769611159,-46.259663462666914L-4.86239930333003,-62.1868781820171z" style="fill:rgb(83,212,212)"/><path d="M55.17294457553708,-83.6212531148682L55.60439600561262,-74.7012693978721L58.897501129032854,-74.90666302801543z" style="fill:rgb(92,32,204)"/><path d="M42.72253555398053,-69.388700703093L41.838207682839496,-79.96331615982133L38.88265339957184,-78.03560351734423z" style="fill:rgb(183,62,221)"/><path d="M48.85757443727372,-72.86537017656629L48.44883580061174,-82.69702538586556L45.06667162586937,-81.53652659094487z" style="fill:rgb(139,40,220)"/><path d="M36.30965248356911,-75.82425429543014L42.72253555398053,-69.388700703093L38.88265339957184,-78.03560351734423z" style="fill:rgb(203,77,216)"/><path d="M24.472286246885506,54.21643730694994L22.560323645670167,177.1967352748118L57.45954640146106,166.75722893298624z" style="fill:rgb(83,212,212)"/><path d="M52.215827672953196,-74.01182343563039L51.85978369530646,-83.40113140586959L48.44883580061174,-82.69702538586556z" style="fill:rgb(115,34,214)"/><path d="M-34.0613481961596,-62.78072709383901L-35.111977091208196,-32.60376420450714L-30.841159245663906,-32.79634793936594zM-26.421433690216563,-24.420514696020874L-40.007064984044646,-23.862903542647214L-39.21682921651837,-21.955109376092857zM-74.06483286892646,-12.18601649950953L28.435383971235545,-34.99027722275755L-75.113260261896,-15.03861674136104z" style="fill:rgb(83,212,212)"/><path d="M181.99457821084198,58.45178403919554L166.4013107190434,78.46741618954096L169.28245064958878,85.97367823506522zM38.100269239137305,-64.78000655016072L32.68053241535957,-70.88344923446654L36.583855302985036,-62.25744539386054z" style="fill:rgb(233,112,197)"/><path d="M-30.66788338162791,-24.246223437762172L-34.54355771578022,-24.757762210186634L-32.82615892374971,-24.157637833151014zM-4.86239930333003,-62.1868781820171L-4.924425981065949,-49.69926441475844L-3.5787486596093556,-59.5090183977593zM0.3558165505209374,-42.96576404158843L-2.843054958796196,-37.789294059817934L0.12318567650931488,-41.19513641937406z" style="fill:rgb(83,212,212)"/><path d="M34.21564209091269,-73.41050957127669L40.172862872848164,-67.18670388268448L36.30965248356911,-75.82425429543014z" style="fill:rgb(220,94,208)"/><path d="M58.264301389139085,-83.3470080586035L58.897501129032854,-74.90666302801543L61.97186186273122,-74.61818602233659z" style="fill:rgb(71,33,192)"/><path d="M55.60439600561262,-74.7012693978721L55.17294457553708,-83.6212531148682L51.85978369530646,-83.40113140586959z" style="fill:rgb(92,32,204)"/><path d="M-25.509000101577715,-66.33001243630231L-30.841159245663906,-32.79634793936594L-26.363611754205674,-33.67235994900625z" style="fill:rgb(83,212,212)"/><path d="M10.141206098874802,83.08081283847139L-22.53432809995233,0.6952617510918335L-33.913522091046495,2.793433813395135z" style="fill:rgb(115,34,214)"/><path d="M-3.5787486596093556,-59.5090183977593L-3.601956775581635,-53.14331154247566L-3.1501897533231444,-56.45597111631887z" style="fill:rgb(83,212,212)"/><path d="M36.583855302985036,-62.25744539386054L31.76470847329798,-68.33706264717387L35.683289712827786,-59.71285236886295z" style="fill:rgb(242,130,183)"/><path d="M32.68053241535957,-70.88344923446654L38.100269239137305,-64.78000655016072L34.21564209091269,-73.41050957127669z" style="fill:rgb(233,112,197)"/><path d="M64.71088651944143,-73.8439125202156L58.264301389139085,-83.3470080586035L61.97186186273122,-74.61818602233659z" style="fill:rgb(51,38,177)"/><path d="M-25.509000101577715,-66.33001243630231L-26.363611754205674,-33.67235994900625L-21.85906404986107,-35.199376206732424zM34.049618053314646,-64.83554067069291L34.604652659058985,-48.92141715234895L35.4363185844632,-57.24198301357656z" style="fill:rgb(83,212,212)"/><path d="M58.897501129032854,-74.90666302801543L58.264301389139085,-83.3470080586035L55.17294457553708,-83.6212531148682z" style="fill:rgb(71,33,192)"/><path d="M10.233857862637677,-15.227434365830643L59.12847172176021,59.41121196828797L19.118128041908115,-22.980752792954885z" style="fill:rgb(203,77,216)"/><path d="M-21.163119467939236,-67.22557406296295L-21.85906404986107,-35.199376206732424L-17.509562858058988,-37.317203285944146zM-16.98340756278618,-67.48097287894255L-17.509562858058988,-37.317203285944146L-13.49106409110604,-39.9404005737461zM-9.734849306565394,-66.04174448474122L-9.96526816048178,-42.96222406497995L-7.072261769611159,-46.259663462666914zM-13.1253114860654,-67.08302153728758L-13.49106409110604,-39.9404005737461L-9.96526816048178,-42.96222406497995zM-3.5787486596093556,-59.5090183977593L-4.924425981065949,-49.69926441475844L-3.601956775581635,-53.14331154247566zM28.435383971235545,-34.99027722275755L-74.06483286892646,-12.18601649950953L-69.40601200190946,-6.210076706946028z" style="fill:rgb(83,212,212)"/><path d="M31.76470847329798,-68.33706264717387L36.583855302985036,-62.25744539386054L32.68053241535957,-70.88344923446654z" style="fill:rgb(242,130,183)"/><path d="M84.20008236376307,34.8075594281091L90.9697663382304,150.6652578733867L121.28311398217387,129.77156811887386zM-4.86239930333003,-62.1868781820171L-7.072261769611159,-46.259663462666914L-4.924425981065949,-49.69926441475844z" style="fill:rgb(83,212,212)"/><path d="M35.683289712827786,-59.71285236886295L31.506540222714527,-65.86717385016806L35.4363185844632,-57.24198301357656z" style="fill:rgb(246,149,167)"/><path d="M67.0089566037129,-72.60993623320782L61.01661982926531,-82.58591005446866L64.71088651944143,-73.8439125202156z" style="fill:rgb(34,46,160)"/><path d="M20.786697895256204,81.4165444330732L-11.053327399158189,-3.12440328308541L-22.53432809995233,0.6952617510918335z" style="fill:rgb(139,40,220)"/><path d="M-5.705837320036428,-34.502243920161156L-9.198959098672677,-31.493817611133192L-7.169263655468316,-32.821936973551686zM-17.49971411167248,-26.786181042735052L-21.97253402321852,-25.277725479625843L-19.699610086950358,-25.715670525619153z" style="fill:rgb(83,212,212)"/><path d="M58.264301389139085,-83.3470080586035L64.71088651944143,-73.8439125202156L61.01661982926531,-82.58591005446866z" style="fill:rgb(51,38,177)"/><path d="M-7.169263655468316,-32.821936973551686L-13.183677237245302,-28.886441677713456L-8.694047249126076,-31.071176685124165zM31.96131073310937,-68.76954407997022L31.536581920187352,-40.19765842392505L34.604652659058985,-48.92141715234895zM89.80571093369102,-162.98305158475833L129.69169499400925,-17.172466298809884L112.46286953915539,-153.19780277448723z" style="fill:rgb(83,212,212)"/><path d="M41.69109760881679,73.10109917782673L10.233857862637677,-15.227434365830643L0.03041909804361477,-8.509666138015314z" style="fill:rgb(183,62,221)"/><path d="M31.506540222714527,-65.86717385016806L35.856860720180585,-54.93909816796884L35.4363185844632,-57.24198301357656z" style="fill:rgb(246,167,149)"/><path d="M31.456666191312696,78.04465619067784L0.03041909804361477,-8.509666138015314L-11.053327399158189,-3.12440328308541z" style="fill:rgb(162,50,222)"/><path d="M31.506540222714527,-65.86717385016806L35.683289712827786,-59.71285236886295L31.76470847329798,-68.33706264717387z" style="fill:rgb(246,149,167)"/><path d="M-8.694047249126076,-31.071176685124165L-19.699610086950358,-25.715670525619153L-12.079592926785049,-27.18388740473964zM0.12318567650931488,-41.19513641937406L-12.079592926785049,-27.18388740473964L-1.44853638418121,-29.232271851995023z" style="fill:rgb(83,212,212)"/><path d="M68.77547227507925,-70.95990273961735L63.323752303089414,-81.36351956148602L67.0089566037129,-72.60993623320782z" style="fill:rgb(21,57,142)"/><path d="M28.435383971235545,-34.99027722275755L1.7062310610759324,-53.24418846253288L-1.44853638418121,-29.232271851995023z" style="fill:rgb(83,212,212)"/><path d="M-39.54983983906989,186.41430402620205L-11.85918228237052,181.53282794951699L-44.04500669273006,179.7362965415809z" style="fill:rgb(92,32,204)"/><path d="M61.01661982926531,-82.58591005446866L67.0089566037129,-72.60993623320782L63.323752303089414,-81.36351956148602z" style="fill:rgb(34,46,160)"/><path d="M31.96131073310937,-68.76954407997022L29.42940533717631,-36.65939098702158L31.536581920187352,-40.19765842392505z" style="fill:rgb(83,212,212)"/><path d="M35.856860720180585,-54.93909816796884L31.506540222714527,-65.86717385016806L31.9204346303486,-63.56802047404091z" style="fill:rgb(246,167,149)"/><path d="M69.93869701092444,-68.95391357059648L65.09470562389052,-79.72300021149739L68.77547227507925,-70.95990273961735z" style="fill:rgb(12,71,124)"/><path d="M28.435383971235545,-34.99027722275755L-69.40601200190946,-6.210076706946028L-62.79757431785672,-1.532464318642459zM1.7062310610759324,-53.24418846253288L28.435383971235545,-34.99027722275755L29.42940533717631,-36.65939098702158zM-131.41878899692261,-98.56108466987509L-155.7846074426527,76.19428428029082L-131.32831147292808,88.12880559278501z" style="fill:rgb(83,212,212)"/><path d="M-11.85918228237052,181.53282794951699L-39.54983983906989,186.41430402620205L-7.548866141348497,188.2982367154224z" style="fill:rgb(92,32,204)"/><path d="M63.323752303089414,-81.36351956148602L68.77547227507925,-70.95990273961735L65.09470562389052,-79.72300021149739z" style="fill:rgb(21,57,142)"/><path d="M65.09470562389052,-79.72300021149739L69.93869701092444,-68.95391357059648L66.25750744971496,-77.72404684134675z" style="fill:rgb(12,71,124)"/><path d="M146.82666321369615,105.24816414542697L169.28245064958878,85.97367823506522L166.4013107190434,78.46741618954096z" style="fill:rgb(220,94,208)"/><path d="M6.672854328312556,-166.25089611548944L-3.1501897533231444,-56.45597111631887L8.53068123496732,77.32541278471383zM112.46286953915539,-153.19780277448723L144.50626783385783,-45.637548357051436L130.9518656871215,-139.01152396428566zM28.435383971235545,-34.99027722275755L-62.79757431785672,-1.532464318642459L-54.46114217634787,1.6253460205610661z" style="fill:rgb(83,212,212)"/><path d="M169.28245064958878,85.97367823506522L146.82666321369615,105.24816414542697L149.9020894971915,112.64604774461411z" style="fill:rgb(220,94,208)"/><path d="M6.672854328312556,-166.25089611548944L45.41996476480826,59.49457609536006L31.506540222714527,-65.86717385016806z" style="fill:rgb(83,212,212)"/><path d="M144.262428241278,-120.62067715100851L154.52894957749265,-89.29937513271366L147.3240022161643,-111.53932028081671z" style="fill:rgb(246,167,149)"/><path d="M28.435383971235545,-34.99027722275755L-54.46114217634787,1.6253460205610661L-44.70470486836949,3.0987662527011826z" style="fill:rgb(83,212,212)"/><path d="M-7.548866141348497,188.2982367154224L22.560323645670167,177.1967352748118L-11.85918228237052,181.53282794951699z" style="fill:rgb(115,34,214)"/><path d="M130.9518656871215,-139.01152396428566L151.70552142490874,-73.1284940196531L144.262428241278,-120.62067715100851z" style="fill:rgb(83,212,212)"/><path d="M22.560323645670167,177.1967352748118L-7.548866141348497,188.2982367154224L26.643941655900257,184.0704379128444z" style="fill:rgb(115,34,214)"/><path d="M28.435383971235545,-34.99027722275755L-44.70470486836949,3.0987662527011826L-33.913522091046495,2.793433813395135zM-107.36727078967611,-117.90367253843853L-131.32831147292808,88.12880559278501L-101.28367303355948,94.70271544805841zM28.435383971235545,-34.99027722275755L19.118128041908115,-22.980752792954885L26.31320015491723,-31.42681334388124z" style="fill:rgb(83,212,212)"/><path d="M121.28311398217387,129.77156811887386L149.9020894971915,112.64604774461411L146.82666321369615,105.24816414542697zM149.9020894971915,112.64604774461411L121.28311398217387,129.77156811887386L124.59064965521932,137.04222345318848z" style="fill:rgb(203,77,216)"/><path d="M28.435383971235545,-34.99027722275755L-33.913522091046495,2.793433813395135L-22.53432809995233,0.6952617510918335zM28.435383971235545,-34.99027722275755L10.233857862637677,-15.227434365830643L19.118128041908115,-22.980752792954885zM63.98798179230801,-168.34014699634568L66.76251419499776,-75.44110399016418L79.03539107752583,36.90192526520156zM28.435383971235545,-34.99027722275755L-22.53432809995233,0.6952617510918335L-11.053327399158189,-3.12440328308541z" style="fill:rgb(83,212,212)"/><path d="M154.52894957749265,-89.29937513271366L144.262428241278,-120.62067715100851L151.44594263782525,-98.43729034702318z" style="fill:rgb(246,167,149)"/><path d="M28.435383971235545,-34.99027722275755L0.03041909804361477,-8.509666138015314L10.233857862637677,-15.227434365830643zM28.435383971235545,-34.99027722275755L-11.053327399158189,-3.12440328308541L0.03041909804361477,-8.509666138015314z" style="fill:rgb(83,212,212)"/><path d="M57.45954640146106,166.75722893298624L26.643941655900257,184.0704379128444L61.28871656494928,173.75616068616495z" style="fill:rgb(139,40,220)"/><path d="M121.28311398217387,129.77156811887386L94.53412492627369,157.79953949481973L124.59064965521932,137.04222345318848z" style="fill:rgb(183,62,221)"/><path d="M26.643941655900257,184.0704379128444L57.45954640146106,166.75722893298624L22.560323645670167,177.1967352748118z" style="fill:rgb(139,40,220)"/><path d="M90.9697663382304,150.6652578733867L61.28871656494928,173.75616068616495L94.53412492627369,157.79953949481973z" style="fill:rgb(162,50,222)"/><path d="M-150.14990599435126,84.05649151516154L-173.9199313147578,59.796192494380215L-168.2798525849807,67.59514937890485z" style="fill:rgb(34,46,160)"/><path d="M94.53412492627369,157.79953949481973L121.28311398217387,129.77156811887386L90.9697663382304,150.6652578733867z" style="fill:rgb(183,62,221)"/><path d="M61.28871656494928,173.75616068616495L90.9697663382304,150.6652578733867L57.45954640146106,166.75722893298624z" style="fill:rgb(162,50,222)"/><path d="M-48.45311731596543,-44.15374690152798L-66.8336999114873,95.24563446969137L-48.17670265995303,-41.073998504599345zM-80.8252414106982,-134.72304605232534L-101.28367303355948,94.70271544805841L-66.8336999114873,95.24563446969137zM144.262428241278,-120.62067715100851L151.70552142490874,-73.1284940196531L151.44594263782525,-98.43729034702318zM-48.17670265995303,-41.073998504599345L-29.584893503865356,89.42390210237468L-47.04252555419845,-38.327286211931415zM-47.04252555419845,-38.327286211931415L-29.584893503865356,89.42390210237468L-45.0856116316301,-36.0228889351341z" style="fill:rgb(83,212,212)"/><path d="M-173.9199313147578,59.796192494380215L-150.14990599435126,84.05649151516154L-155.7846074426527,76.19428428029082z" style="fill:rgb(34,46,160)"/><path d="M151.70552142490874,-73.1284940196531L154.52894957749265,-89.29937513271366L151.44594263782525,-98.43729034702318z" style="fill:rgb(246,149,167)"/><path d="M-45.0856116316301,-36.0228889351341L-29.584893503865356,89.42390210237468L-42.373896273093166,-34.254986458912136zM130.9518656871215,-139.01152396428566L144.50626783385783,-45.637548357051436L151.70552142490874,-73.1284940196531zM-42.373896273093166,-34.254986458912136L-29.584893503865356,89.42390210237468L-39.006753650904336,-33.09821702405555zM-3.601956775581635,-53.14331154247566L8.53068123496732,77.32541278471383L-3.1501897533231444,-56.45597111631887zM-39.006753650904336,-33.09821702405555L-29.584893503865356,89.42390210237468L-35.111977091208196,-32.60376420450714z" style="fill:rgb(83,212,212)"/><path d="M154.52894957749265,-89.29937513271366L151.70552142490874,-73.1284940196531L154.86261878453092,-63.97254692047111z" style="fill:rgb(246,149,167)"/><path d="M-4.924425981065949,-49.69926441475844L8.53068123496732,77.32541278471383L-3.601956775581635,-53.14331154247566zM-35.111977091208196,-32.60376420450714L-29.584893503865356,89.42390210237468L-30.841159245663906,-32.79634793936594zM-30.841159245663906,-32.79634793936594L-29.584893503865356,89.42390210237468L-26.363611754205674,-33.67235994900625zM-7.072261769611159,-46.259663462666914L8.53068123496732,77.32541278471383L-4.924425981065949,-49.69926441475844zM112.46286953915539,-153.19780277448723L129.69169499400925,-17.172466298809884L144.50626783385783,-45.637548357051436zM-9.96526816048178,-42.96222406497995L8.53068123496732,77.32541278471383L-7.072261769611159,-46.259663462666914zM31.506540222714527,-65.86717385016806L45.41996476480826,59.49457609536006L31.9204346303486,-63.56802047404091zM-13.49106409110604,-39.9404005737461L8.53068123496732,77.32541278471383L-9.96526816048178,-42.96222406497995zM-26.363611754205674,-33.67235994900625L8.53068123496732,77.32541278471383L-21.85906404986107,-35.199376206732424zM-17.509562858058988,-37.317203285944146L8.53068123496732,77.32541278471383L-13.49106409110604,-39.9404005737461zM-21.85906404986107,-35.199376206732424L8.53068123496732,77.32541278471383L-17.509562858058988,-37.317203285944146zM31.9204346303486,-63.56802047404091L45.41996476480826,59.49457609536006L32.99562728462228,-61.52878160232651z" style="fill:rgb(83,212,212)"/><path d="M-125.7653371838556,96.0758694048194L-155.7846074426527,76.19428428029082L-150.14990599435126,84.05649151516154z" style="fill:rgb(51,38,177)"/><path d="M32.99562728462228,-61.52878160232651L45.41996476480826,59.49457609536006L34.695813411628365,-59.83003203705241zM66.58509545735993,-72.96087521842051L79.03539107752583,36.90192526520156L66.76251419499776,-75.44110399016418zM89.80571093369102,-162.98305158475833L107.58331759857795,10.849040041053932L129.69169499400925,-17.172466298809884zM34.695813411628365,-59.83003203705241L45.41996476480826,59.49457609536006L36.95979044804398,-58.54033055118226zM6.672854328312556,-166.25089611548944L8.53068123496732,77.32541278471383L45.41996476480826,59.49457609536006zM65.72736293001496,-70.37918735659332L79.03539107752583,36.90192526520156L66.58509545735993,-72.96087521842051zM36.95979044804398,-58.54033055118226L45.41996476480826,59.49457609536006L39.70313824391214,-57.71308503930866zM64.21884639036804,-67.79721364397989L79.03539107752583,36.90192526520156L65.72736293001496,-70.37918735659332zM63.98798179230801,-168.34014699634568L79.03539107752583,36.90192526520156L107.58331759857795,10.849040041053932zM42.8210697596129,-57.383926132244824L79.03539107752583,36.90192526520156L46.192319246603475,-57.56872292838721zM62.11587581755322,-65.31732467642082L79.03539107752583,36.90192526520156L64.21884639036804,-67.79721364397989zM39.70313824391214,-57.71308503930866L45.41996476480826,59.49457609536006L42.8210697596129,-57.383926132244824zM46.192319246603475,-57.56872292838721L79.03539107752583,36.90192526520156L49.68402021217875,-58.26248490140655zM59.49972580125243,-63.03865408597192L79.03539107752583,36.90192526520156L62.11587581755322,-65.31732467642082zM49.68402021217875,-58.26248490140655L79.03539107752583,36.90192526520156L53.15730989163472,-59.439191185419396zM56.47339308856475,-61.05270003912819L79.03539107752583,36.90192526520156L59.49972580125243,-63.03865408597192zM53.15730989163472,-59.439191185419396L79.03539107752583,36.90192526520156L56.47339308856475,-61.05270003912819z" style="fill:rgb(83,212,212)"/><path d="M-155.7846074426527,76.19428428029082L-125.7653371838556,96.0758694048194L-131.32831147292808,88.12880559278501z" style="fill:rgb(51,38,177)"/><path d="M144.50626783385783,-45.637548357051436L154.86261878453092,-63.97254692047111L151.70552142490874,-73.1284940196531zM154.86261878453092,-63.97254692047111L144.50626783385783,-45.637548357051436L147.79501751685905,-36.50606560994873z" style="fill:rgb(242,130,183)"/><path d="M-48.17670265995303,-41.073998504599345L-66.8336999114873,95.24563446969137L-29.584893503865356,89.42390210237468z" style="fill:rgb(83,212,212)"/><path d="M-125.7653371838556,96.0758694048194L-101.28367303355948,94.70271544805841L-131.32831147292808,88.12880559278501zM-101.28367303355948,94.70271544805841L-125.7653371838556,96.0758694048194L-95.86181050981087,102.75741290472328z" style="fill:rgb(71,33,192)"/><path d="M129.69169499400925,-17.172466298809884L147.79501751685905,-36.50606560994873L144.50626783385783,-45.637548357051436z" style="fill:rgb(233,112,197)"/><path d="M-26.363611754205674,-33.67235994900625L-29.584893503865356,89.42390210237468L8.53068123496732,77.32541278471383z" style="fill:rgb(83,212,212)"/><path d="M147.79501751685905,-36.50606560994873L129.69169499400925,-17.172466298809884L133.1707950083248,-8.108333326899999z" style="fill:rgb(233,112,197)"/><path d="M42.8210697596129,-57.383926132244824L45.41996476480826,59.49457609536006L79.03539107752583,36.90192526520156z" style="fill:rgb(83,212,212)"/><path d="M-95.86181050981087,102.75741290472328L-66.8336999114873,95.24563446969137L-101.28367303355948,94.70271544805841zM-66.8336999114873,95.24563446969137L-95.86181050981087,102.75741290472328L-61.61916809158315,103.43028939003997z" style="fill:rgb(92,32,204)"/><path d="M107.58331759857795,10.849040041053932L133.1707950083248,-8.108333326899999L129.69169499400925,-17.172466298809884zM133.1707950083248,-8.108333326899999L107.58331759857795,10.849040041053932L111.3071943750823,19.806743782864668z" style="fill:rgb(220,94,208)"/><path d="M-61.61916809158315,103.43028939003997L-29.584893503865356,89.42390210237468L-66.8336999114873,95.24563446969137zM-29.584893503865356,89.42390210237468L-61.61916809158315,103.43028939003997L-24.633784779872002,97.75779843197155z" style="fill:rgb(115,34,214)"/><path d="M79.03539107752583,36.90192526520156L111.3071943750823,19.806743782864668L107.58331759857795,10.849040041053932zM111.3071943750823,19.806743782864668L79.03539107752583,36.90192526520156L83.04776178052894,45.72198787387674z" style="fill:rgb(203,77,216)"/><path d="M8.53068123496732,77.32541278471383L-24.633784779872002,97.75779843197155L13.179015224388058,85.82160338469347z" style="fill:rgb(139,40,220)"/><path d="M79.03539107752583,36.90192526520156L49.74765363889743,68.1567098787867L83.04776178052894,45.72198787387674z" style="fill:rgb(183,62,221)"/><path d="M-24.633784779872002,97.75779843197155L8.53068123496732,77.32541278471383L-29.584893503865356,89.42390210237468z" style="fill:rgb(139,40,220)"/><path d="M45.41996476480826,59.49457609536006L13.179015224388058,85.82160338469347L49.74765363889743,68.1567098787867z" style="fill:rgb(162,50,222)"/><path d="M49.74765363889743,68.1567098787867L79.03539107752583,36.90192526520156L45.41996476480826,59.49457609536006z" style="fill:rgb(183,62,221)"/><path d="M13.179015224388058,85.82160338469347L45.41996476480826,59.49457609536006L8.53068123496732,77.32541278471383z" style="fill:rgb(162,50,222)"/></svg>
