<?xml version="1.0" encoding="UTF-8"?>
<!-- Generated by jsxcad -->
<!DOCTYPE svg PUBLIC "-//W3C//DTD SVG 1.1 Tiny//EN" "http://www.w3.org/Graphics/SVG/1.1/DTD/svg11-tiny.dtd">
<svg viewBox="-250 -250 500 500" width="500" height="500" xmlns="http://www.w3.org/2000/svg"><path d="M-104.78953077291649,46.01301077595495L-101.77593795770582,159.55505145823912L-90.25705736852126,23.66443929120703zM-90.25705736852126,23.66443929120703L-83.88070910273586,176.52313492201696L-71.93044237018344,3.049150885221309zM-71.93044237018344,3.049150885221309L-60.500251160176724,189.31148383489528L-50.438542108169976,-15.319243165603467zM-114.9239439563403,69.49917752831277L-113.79000473757193,139.38763103713487L-104.78953077291649,46.01301077595495zM-50.438542108169976,-15.319243165603467L-32.391926596325845,197.0480759570285L-26.4260154139296,-30.995817967335295zM-119.84182962271707,117.02523440423502L-114.9239439563403,69.49917752831277L-120.10150617825423,93.43331477812005zM-26.4260154139296,-30.995817967335295L-0.687416822122324,199.0678673118854L-0.5529137010422445,-43.59231997170845zM-0.5529137010422445,-43.59231997170845L33.143060683700135,195.01000492296689L26.499615670987744,-52.76855301916829zM26.499615670987744,-52.76855301916829L33.143060683700135,195.01000492296689L54.019989784322696,-58.22882962078865zM-114.9239439563403,69.49917752831277L-119.84182962271707,117.02523440423502L-113.79000473757193,139.38763103713487zM54.019989784322696,-58.22882962078865L100.20601155249577,169.1521677533689L81.25581388875563,-59.72466192741067zM-104.78953077291649,46.01301077595495L-113.79000473757193,139.38763103713487L-101.77593795770582,159.55505145823912zM81.25581388875563,-59.72466192741067L100.20601155249577,169.1521677533689L107.40538823861036,-57.06485173037619zM-90.25705736852126,23.66443929120703L-101.77593795770582,159.55505145823912L-83.88070910273586,176.52313492201696zM107.40538823861036,-57.06485173037619L129.8543036760911,148.61288058203823L131.6143419910119,-50.133557914199216zM131.6143419910119,-50.133557914199216L173.86972664283496,97.9249215414403L152.98148451562906,-38.91648040261463zM-71.93044237018344,3.049150885221309L-83.88070910273586,176.52313492201696L-60.500251160176724,189.31148383489528z" style="fill:rgb(83,212,212)"/><path d="M183.48447841641297,-4.278775681255449L194.56319485617632,29.360526312135384L187.19325214754716,6.722329500787386z" style="fill:rgb(246,167,149)"/><path d="M152.98148451562906,-38.91648040261463L173.86972664283496,97.9249215414403L170.57802590294767,-23.53406358627515zM170.57802590294767,-23.53406358627515L191.95972248475937,43.6133105041721L183.48447841641297,-4.278775681255449zM-50.438542108169976,-15.319243165603467L-60.500251160176724,189.31148383489528L-32.391926596325845,197.0480759570285z" style="fill:rgb(83,212,212)"/><path d="M194.56319485617632,29.360526312135384L183.48447841641297,-4.278775681255449L190.8479775127464,18.348810879698863z" style="fill:rgb(246,167,149)"/><path d="M-77.11319126688404,185.96598322495333L-101.77593795770582,159.55505145823912L-94.96660219767854,168.97081622434627z" style="fill:rgb(34,46,160)"/><path d="M-26.4260154139296,-30.995817967335295L-32.391926596325845,197.0480759570285L-0.687416822122324,199.0678673118854zM183.48447841641297,-4.278775681255449L191.95972248475937,43.6133105041721L190.8479775127464,18.348810879698863z" style="fill:rgb(83,212,212)"/><path d="M-101.77593795770582,159.55505145823912L-77.11319126688404,185.96598322495333L-83.88070910273586,176.52313492201696z" style="fill:rgb(34,46,160)"/><path d="M191.95972248475937,43.6133105041721L194.56319485617632,29.360526312135384L190.8479775127464,18.348810879698863z" style="fill:rgb(246,149,167)"/><path d="M-0.5529137010422445,-43.59231997170845L-0.687416822122324,199.0678673118854L33.143060683700135,195.01000492296689zM170.57802590294767,-23.53406358627515L186.34728638658282,70.53740632554715L191.95972248475937,43.6133105041721z" style="fill:rgb(83,212,212)"/><path d="M194.56319485617632,29.360526312135384L191.95972248475937,43.6133105041721L195.74469663910335,54.590172919428966z" style="fill:rgb(246,149,167)"/><path d="M-35.155880347455465,107.65397488044786L-113.54792681232409,-18.737750817979L-41.902040905281524,98.20118505660655z" style="fill:rgb(21,57,142)"/><path d="M52.285318608135874,-99.61479816807967L108.58295639870572,38.21322079756803L105.86141432610476,26.763664777902104z" style="fill:rgb(246,167,149)"/><path d="M-53.85186506537655,198.80915662280046L-83.88070910273586,176.52313492201696L-77.11319126688404,185.96598322495333z" style="fill:rgb(51,38,177)"/><path d="M54.019989784322696,-58.22882962078865L33.143060683700135,195.01000492296689L67.38211720244,184.89363286450947zM131.6143419910119,-50.133557914199216L154.79732003546314,124.42143388837214L173.86972664283496,97.9249215414403zM54.019989784322696,-58.22882962078865L67.38211720244,184.89363286450947L100.20601155249577,169.1521677533689zM170.57802590294767,-23.53406358627515L173.86972664283496,97.9249215414403L186.34728638658282,70.53740632554715z" style="fill:rgb(83,212,212)"/><path d="M-25.70712487623758,115.33643053767796L-106.88710655380726,-9.619917803767226L-35.155880347455465,107.65397488044786z" style="fill:rgb(34,46,160)"/><path d="M107.40538823861036,-57.06485173037619L100.20601155249577,169.1521677533689L129.8543036760911,148.61288058203823z" style="fill:rgb(83,212,212)"/><path d="M-83.88070910273586,176.52313492201696L-53.85186506537655,198.80915662280046L-60.500251160176724,189.31148383489528z" style="fill:rgb(51,38,177)"/><path d="M131.6143419910119,-50.133557914199216L129.8543036760911,148.61288058203823L154.79732003546314,124.42143388837214z" style="fill:rgb(83,212,212)"/><path d="M186.34728638658282,70.53740632554715L195.74469663910335,54.590172919428966L191.95972248475937,43.6133105041721zM195.74469663910335,54.590172919428966L186.34728638658282,70.53740632554715L190.27123932411982,81.43258821677797z" style="fill:rgb(242,130,183)"/><path d="M108.58295639870572,38.21322079756803L53.605589840688936,-75.84066984093471L108.23188034681505,50.67581568872182z" style="fill:rgb(246,149,167)"/><path d="M-13.858069292432013,120.87107670046099L-97.13405769767452,-2.4273233936281478L-25.70712487623758,115.33643053767796z" style="fill:rgb(51,38,177)"/><path d="M-53.85186506537655,198.80915662280046L-32.391926596325845,197.0480759570285L-60.500251160176724,189.31148383489528z" style="fill:rgb(71,33,192)"/><path d="M108.23188034681505,50.67581568872182L49.043377278880115,-62.57025441352749L104.72349815931226,63.66168941046517z" style="fill:rgb(242,130,183)"/><path d="M-32.391926596325845,197.0480759570285L-53.85186506537655,198.80915662280046L-25.94083836715533,206.63179174283303z" style="fill:rgb(71,33,192)"/><path d="M-185.33883247825804,-79.11604331590152L-192.14232413002068,34.59875323522561L-167.70672829768952,-102.20477573609583zM-167.70672829768952,-102.20477573609583L-174.0051932888793,50.770757489264L-146.18737081188667,-123.78685678379168zM-198.3794369762859,-55.11529468921933L-203.45422028859804,14.911822873136055L-185.33883247825804,-79.11604331590152zM-146.18737081188667,-123.78685678379168L-149.33158404865475,62.40989763517622L-121.48788366987597,-143.3487440788966z" style="fill:rgb(83,212,212)"/><path d="M173.86972664283496,97.9249215414403L190.27123932411982,81.43258821677797L186.34728638658282,70.53740632554715z" style="fill:rgb(233,112,197)"/><path d="M-69.67573259832852,4.771500316005755L-13.858069292432013,120.87107670046099L-0.04149637852964051,123.95635931785367z" style="fill:rgb(71,33,192)"/><path d="M190.27123932411982,81.43258821677797L173.86972664283496,97.9249215414403L178.00343838782695,108.69451302078897z" style="fill:rgb(233,112,197)"/><path d="M-208.00973207005143,-7.25002888882528L-198.3794369762859,-55.11529468921933L-206.14549826010685,-30.893887893620565zM-121.48788366987597,-143.3487440788966L-118.84319189089251,68.6163579842688L-94.31302557828074,-160.44124305764439z" style="fill:rgb(83,212,212)"/><path d="M104.72349815931226,63.66168941046517L41.056649563099235,-49.09379805192615L98.11706929113885,76.62670779656759z" style="fill:rgb(233,112,197)"/><path d="M-76.30952924602558,-99.59358985565248L-84.58141357156333,2.4666681528462946L-62.11906025199925,-108.66016568222922zM-99.82702884072037,-77.75205896009567L-97.13405769767452,-2.4273233936281478L-89.0207771295333,-89.18554725437363z" style="fill:rgb(83,212,212)"/><path d="M-113.54792681232409,-18.737750817979L-35.155880347455465,107.65397488044786L-106.88710655380726,-9.619917803767226z" style="fill:rgb(21,57,142)"/><path d="M-108.3380555829553,-65.64712920854664L-106.88710655380726,-9.619917803767226L-99.82702884072037,-77.75205896009567zM-89.0207771295333,-89.18554725437363L-84.58141357156333,2.4666681528462946L-76.30952924602558,-99.59358985565248z" style="fill:rgb(83,212,212)"/><path d="M-53.00902544370295,4.307684153366578L-0.04149637852964051,123.95635931785367L15.190264819320042,124.3928744809284z" style="fill:rgb(92,32,204)"/><path d="M-114.20960346463066,-53.26066044542116L-113.54792681232409,-18.737750817979L-108.3380555829553,-65.64712920854664zM-94.31302557828074,-160.44124305764439L-83.73201796646406,68.72228511613967L-65.36968671769004,-174.66407463368174z" style="fill:rgb(83,212,212)"/><path d="M-25.94083836715533,206.63179174283303L-0.687416822122324,199.0678673118854L-32.391926596325845,197.0480759570285zM-0.687416822122324,199.0678673118854L-25.94083836715533,206.63179174283303L5.4942612044665475,208.77053824335147z" style="fill:rgb(92,32,204)"/><path d="M98.11706929113885,76.62670779656759L29.907808473931922,-36.0091483823608L88.6273836290038,88.99923042939479z" style="fill:rgb(220,94,208)"/><path d="M-62.11906025199925,-108.66016568222922L-53.00902544370295,4.307684153366578L-46.90323197133576,-116.108515110166z" style="fill:rgb(83,212,212)"/><path d="M108.58295639870572,38.21322079756803L52.285318608135874,-99.61479816807967L54.65938266789182,-88.35040785503337z" style="fill:rgb(246,167,149)"/><path d="M-116.97355974373954,-29.35381884876768L-114.20960346463066,-53.26066044542116L-117.1572428912305,-41.01425166836697zM-46.90323197133576,-116.108515110166L-53.00902544370295,4.307684153366578L-31.138674934076466,-121.70264875725618z" style="fill:rgb(83,212,212)"/><path d="M-35.29537942438361,1.0300146113698672L15.190264819320042,124.3928744809284L31.188334420504376,122.10516935275726z" style="fill:rgb(115,34,214)"/><path d="M154.79732003546314,124.42143388837214L178.00343838782695,108.69451302078897L173.86972664283496,97.9249215414403zM178.00343838782695,108.69451302078897L154.79732003546314,124.42143388837214L159.20710672086926,135.02909791499846z" style="fill:rgb(220,94,208)"/><path d="M-65.36968671769004,-174.66407463368174L-45.63668173402555,62.404920488767345L-35.37806903633952,-185.65432617722152z" style="fill:rgb(83,212,212)"/><path d="M88.6273836290038,88.99923042939479L16.03753677782072,-23.922053004949465L76.62468209657222,100.21359924491567z" style="fill:rgb(203,77,216)"/><path d="M-31.138674934076466,-121.70264875725618L-17.332665263762784,-4.958517683370979L-15.320454029042375,-125.24983470667084z" style="fill:rgb(83,212,212)"/><path d="M16.03753677782072,-23.922053004949465L62.62083827111971,109.74699409182583L76.62468209657222,100.21359924491567z" style="fill:rgb(183,62,221)"/><path d="M-17.332665263762784,-4.958517683370979L31.188334420504376,122.10516935275726L47.24175948534562,117.1555533992838z" style="fill:rgb(139,40,220)"/><path d="M-106.88710655380726,-9.619917803767226L-25.70712487623758,115.33643053767796L-97.13405769767452,-2.4273233936281478z" style="fill:rgb(34,46,160)"/><path d="M0.04770841336942093,-13.40549442630781L47.24175948534562,117.1555533992838L62.62083827111971,109.74699409182583z" style="fill:rgb(162,50,222)"/><path d="M-198.3794369762859,-55.11529468921933L-208.00973207005143,-7.25002888882528L-203.45422028859804,14.911822873136055zM-114.20960346463066,-53.26066044542116L-116.97355974373954,-29.35381884876768L-113.54792681232409,-18.737750817979z" style="fill:rgb(83,212,212)"/><path d="M53.605589840688936,-75.84066984093471L108.58295639870572,38.21322079756803L54.65938266789182,-88.35040785503337z" style="fill:rgb(246,149,167)"/><path d="M-15.320454029042375,-125.24983470667084L-17.332665263762784,-4.958517683370979L0.04245347914129978,-126.60470606869772z" style="fill:rgb(83,212,212)"/><path d="M33.143060683700135,195.01000492296689L5.4942612044665475,208.77053824335147L38.99677252025349,204.86319803521002z" style="fill:rgb(115,34,214)"/><path d="M-35.37806903633952,-185.65432617722152L-6.543265953477369,49.77336206250296L-5.086607551394414,-193.08000559201722z" style="fill:rgb(83,212,212)"/><path d="M5.4942612044665475,208.77053824335147L33.143060683700135,195.01000492296689L-0.687416822122324,199.0678673118854z" style="fill:rgb(115,34,214)"/><path d="M-108.3380555829553,-65.64712920854664L-113.54792681232409,-18.737750817979L-106.88710655380726,-9.619917803767226z" style="fill:rgb(83,212,212)"/><path d="M159.20710672086926,135.02909791499846L129.8543036760911,148.61288058203823L134.59493022837546,159.03380786738856zM129.8543036760911,148.61288058203823L159.20710672086926,135.02909791499846L154.79732003546314,124.42143388837214z" style="fill:rgb(203,77,216)"/><path d="M0.04245347914129978,-126.60470606869772L0.04770841336942093,-13.40549442630781L14.433251007840036,-125.67526594835188z" style="fill:rgb(83,212,212)"/><path d="M67.38211720244,184.89363286450947L38.99677252025349,204.86319803521002L72.86958831020901,194.92359611085735z" style="fill:rgb(139,40,220)"/><path d="M129.8543036760911,148.61288058203823L105.31378326510611,179.37566769756307L134.59493022837546,159.03380786738856z" style="fill:rgb(183,62,221)"/><path d="M-5.086607551394414,-193.08000559201722L31.385281820151455,31.403312383736253L24.712015196854612,-196.64026649879432z" style="fill:rgb(83,212,212)"/><path d="M-97.13405769767452,-2.4273233936281478L-13.858069292432013,120.87107670046099L-84.58141357156333,2.4666681528462946z" style="fill:rgb(51,38,177)"/><path d="M14.433251007840036,-125.67526594835188L29.907808473931922,-36.0091483823608L27.336261278242198,-122.43077649197544z" style="fill:rgb(83,212,212)"/><path d="M49.043377278880115,-62.57025441352749L108.23188034681505,50.67581568872182L53.605589840688936,-75.84066984093471z" style="fill:rgb(242,130,183)"/><path d="M-99.82702884072037,-77.75205896009567L-106.88710655380726,-9.619917803767226L-97.13405769767452,-2.4273233936281478zM-185.33883247825804,-79.11604331590152L-203.45422028859804,14.911822873136055L-192.14232413002068,34.59875323522561z" style="fill:rgb(83,212,212)"/><path d="M38.99677252025349,204.86319803521002L67.38211720244,184.89363286450947L33.143060683700135,195.01000492296689z" style="fill:rgb(139,40,220)"/><path d="M100.20601155249577,169.1521677533689L72.86958831020901,194.92359611085735L105.31378326510611,179.37566769756307z" style="fill:rgb(162,50,222)"/><path d="M105.31378326510611,179.37566769756307L129.8543036760911,148.61288058203823L100.20601155249577,169.1521677533689z" style="fill:rgb(183,62,221)"/><path d="M72.86958831020901,194.92359611085735L100.20601155249577,169.1521677533689L67.38211720244,184.89363286450947z" style="fill:rgb(162,50,222)"/><path d="M-89.0207771295333,-89.18554725437363L-97.13405769767452,-2.4273233936281478L-84.58141357156333,2.4666681528462946z" style="fill:rgb(83,212,212)"/><path d="M-13.858069292432013,120.87107670046099L-69.67573259832852,4.771500316005755L-84.58141357156333,2.4666681528462946z" style="fill:rgb(71,33,192)"/><path d="M24.712015196854612,-196.64026649879432L66.02558022916142,8.30353906820395L53.16693727441451,-196.0736143883881zM27.336261278242198,-122.43077649197544L29.907808473931922,-36.0091483823608L38.249910653889486,-116.91105305804544zM38.249910653889486,-116.91105305804544L49.043377278880115,-62.57025441352749L46.70455061985798,-109.2360967183029z" style="fill:rgb(83,212,212)"/><path d="M41.056649563099235,-49.09379805192615L104.72349815931226,63.66168941046517L49.043377278880115,-62.57025441352749z" style="fill:rgb(233,112,197)"/><path d="M-62.11906025199925,-108.66016568222922L-84.58141357156333,2.4666681528462946L-69.67573259832852,4.771500316005755zM-167.70672829768952,-102.20477573609583L-192.14232413002068,34.59875323522561L-174.0051932888793,50.770757489264zM46.70455061985798,-109.2360967183029L53.605589840688936,-75.84066984093471L52.285318608135874,-99.61479816807967zM53.16693727441451,-196.0736143883881L95.51350670993628,-18.1846547426773L79.36096418645035,-191.17540654618367z" style="fill:rgb(83,212,212)"/><path d="M-0.04149637852964051,123.95635931785367L-53.00902544370295,4.307684153366578L-69.67573259832852,4.771500316005755z" style="fill:rgb(92,32,204)"/><path d="M-62.11906025199925,-108.66016568222922L-69.67573259832852,4.771500316005755L-53.00902544370295,4.307684153366578z" style="fill:rgb(83,212,212)"/><path d="M29.907808473931922,-36.0091483823608L98.11706929113885,76.62670779656759L41.056649563099235,-49.09379805192615z" style="fill:rgb(220,94,208)"/><path d="M52.285318608135874,-99.61479816807967L53.605589840688936,-75.84066984093471L54.65938266789182,-88.35040785503337z" style="fill:rgb(83,212,212)"/><path d="M15.190264819320042,124.3928744809284L-35.29537942438361,1.0300146113698672L-53.00902544370295,4.307684153366578z" style="fill:rgb(115,34,214)"/><path d="M79.36096418645035,-191.17540654618367L118.4214756093179,-46.534850465920385L102.31288106866788,-181.82547780152183zM-31.138674934076466,-121.70264875725618L-53.00902544370295,4.307684153366578L-35.29537942438361,1.0300146113698672z" style="fill:rgb(83,212,212)"/><path d="M16.03753677782072,-23.922053004949465L88.6273836290038,88.99923042939479L29.907808473931922,-36.0091483823608z" style="fill:rgb(203,77,216)"/><path d="M46.70455061985798,-109.2360967183029L49.043377278880115,-62.57025441352749L53.605589840688936,-75.84066984093471zM-31.138674934076466,-121.70264875725618L-35.29537942438361,1.0300146113698672L-17.332665263762784,-4.958517683370979z" style="fill:rgb(83,212,212)"/><path d="M31.188334420504376,122.10516935275726L-17.332665263762784,-4.958517683370979L-35.29537942438361,1.0300146113698672z" style="fill:rgb(139,40,220)"/><path d="M-146.18737081188667,-123.78685678379168L-174.0051932888793,50.770757489264L-149.33158404865475,62.40989763517622zM38.249910653889486,-116.91105305804544L41.056649563099235,-49.09379805192615L49.043377278880115,-62.57025441352749z" style="fill:rgb(83,212,212)"/><path d="M62.62083827111971,109.74699409182583L16.03753677782072,-23.922053004949465L0.04770841336942093,-13.40549442630781z" style="fill:rgb(183,62,221)"/><path d="M47.24175948534562,117.1555533992838L0.04770841336942093,-13.40549442630781L-17.332665263762784,-4.958517683370979z" style="fill:rgb(162,50,222)"/><path d="M102.31288106866788,-181.82547780152183L133.86005632202927,-75.19760259518853L120.9956670055844,-168.0255875632695z" style="fill:rgb(83,212,212)"/><path d="M134.37633439687488,-149.94515531801548L146.328364334528,-113.60557042994043L139.18317369815048,-135.68693551053317z" style="fill:rgb(246,167,149)"/><path d="M14.433251007840036,-125.67526594835188L16.03753677782072,-23.922053004949465L29.907808473931922,-36.0091483823608zM0.04245347914129978,-126.60470606869772L-17.332665263762784,-4.958517683370979L0.04770841336942093,-13.40549442630781zM14.433251007840036,-125.67526594835188L0.04770841336942093,-13.40549442630781L16.03753677782072,-23.922053004949465zM38.249910653889486,-116.91105305804544L29.907808473931922,-36.0091483823608L41.056649563099235,-49.09379805192615zM120.9956670055844,-168.0255875632695L141.49356958368875,-102.74430338167522L134.37633439687488,-149.94515531801548zM-121.48788366987597,-143.3487440788966L-149.33158404865475,62.40989763517622L-118.84319189089251,68.6163579842688z" style="fill:rgb(83,212,212)"/><path d="M146.328364334528,-113.60557042994043L134.37633439687488,-149.94515531801548L141.48207490423223,-127.9697874886851z" style="fill:rgb(246,167,149)"/><path d="M-165.14103491607176,63.13908795838742L-192.14232413002068,34.59875323522561L-183.28026716965272,46.85298173901639z" style="fill:rgb(34,46,160)"/><path d="M-94.31302557828074,-160.44124305764439L-118.84319189089251,68.6163579842688L-83.73201796646406,68.72228511613967zM134.37633439687488,-149.94515531801548L141.49356958368875,-102.74430338167522L141.48207490423223,-127.9697874886851z" style="fill:rgb(83,212,212)"/><path d="M-192.14232413002068,34.59875323522561L-165.14103491607176,63.13908795838742L-174.0051932888793,50.770757489264z" style="fill:rgb(34,46,160)"/><path d="M141.49356958368875,-102.74430338167522L146.328364334528,-113.60557042994043L141.48207490423223,-127.9697874886851z" style="fill:rgb(246,149,167)"/><path d="M-65.36968671769004,-174.66407463368174L-83.73201796646406,68.72228511613967L-45.63668173402555,62.404920488767345zM120.9956670055844,-168.0255875632695L133.86005632202927,-75.19760259518853L141.49356958368875,-102.74430338167522z" style="fill:rgb(83,212,212)"/><path d="M146.328364334528,-113.60557042994043L141.49356958368875,-102.74430338167522L146.46217310801987,-88.3347841381131z" style="fill:rgb(246,149,167)"/><path d="M102.31288106866788,-181.82547780152183L118.4214756093179,-46.534850465920385L133.86005632202927,-75.19760259518853zM-35.37806903633952,-185.65432617722152L-45.63668173402555,62.404920488767345L-6.543265953477369,49.77336206250296z" style="fill:rgb(83,212,212)"/><path d="M-140.5703416368881,74.92592472721391L-174.0051932888793,50.770757489264L-165.14103491607176,63.13908795838742z" style="fill:rgb(51,38,177)"/><path d="M79.36096418645035,-191.17540654618367L95.51350670993628,-18.1846547426773L118.4214756093179,-46.534850465920385zM-5.086607551394414,-193.08000559201722L-6.543265953477369,49.77336206250296L31.385281820151455,31.403312383736253zM53.16693727441451,-196.0736143883881L66.02558022916142,8.30353906820395L95.51350670993628,-18.1846547426773zM24.712015196854612,-196.64026649879432L31.385281820151455,31.403312383736253L66.02558022916142,8.30353906820395z" style="fill:rgb(83,212,212)"/><path d="M-174.0051932888793,50.770757489264L-140.5703416368881,74.92592472721391L-149.33158404865475,62.40989763517622z" style="fill:rgb(51,38,177)"/><path d="M133.86005632202927,-75.19760259518853L146.46217310801987,-88.3347841381131L141.49356958368875,-102.74430338167522zM146.46217310801987,-88.3347841381131L133.86005632202927,-75.19760259518853L139.0415546388617,-60.81074861011093z" style="fill:rgb(242,130,183)"/><path d="M-140.5703416368881,74.92592472721391L-118.84319189089251,68.6163579842688L-149.33158404865475,62.40989763517622zM-118.84319189089251,68.6163579842688L-140.5703416368881,74.92592472721391L-110.29544070773883,81.31485369611306z" style="fill:rgb(71,33,192)"/><path d="M118.4214756093179,-46.534850465920385L139.0415546388617,-60.81074861011093L133.86005632202927,-75.19760259518853zM139.0415546388617,-60.81074861011093L118.4214756093179,-46.534850465920385L123.90817874141852,-32.240315584529135z" style="fill:rgb(233,112,197)"/><path d="M-110.29544070773883,81.31485369611306L-83.73201796646406,68.72228511613967L-118.84319189089251,68.6163579842688zM-83.73201796646406,68.72228511613967L-110.29544070773883,81.31485369611306L-75.50417745795593,81.63658632786033z" style="fill:rgb(92,32,204)"/><path d="M95.51350670993628,-18.1846547426773L123.90817874141852,-32.240315584529135L118.4214756093179,-46.534850465920385zM123.90817874141852,-32.240315584529135L95.51350670993628,-18.1846547426773L101.39074358898469,-4.047066840889901z" style="fill:rgb(220,94,208)"/><path d="M-45.63668173402555,62.404920488767345L-75.50417745795593,81.63658632786033L-37.8196538702371,75.56283688205559zM-75.50417745795593,81.63658632786033L-45.63668173402555,62.404920488767345L-83.73201796646406,68.72228511613967z" style="fill:rgb(115,34,214)"/><path d="M101.39074358898469,-4.047066840889901L66.02558022916142,8.30353906820395L72.36148055914782,22.231225215798347zM66.02558022916142,8.30353906820395L101.39074358898469,-4.047066840889901L95.51350670993628,-18.1846547426773z" style="fill:rgb(203,77,216)"/><path d="M-6.543265953477369,49.77336206250296L-37.8196538702371,75.56283688205559L0.7982857388763722,63.19219628668955z" style="fill:rgb(139,40,220)"/><path d="M66.02558022916142,8.30353906820395L38.220777219540636,45.08496897346369L72.36148055914782,22.231225215798347z" style="fill:rgb(183,62,221)"/><path d="M-37.8196538702371,75.56283688205559L-6.543265953477369,49.77336206250296L-45.63668173402555,62.404920488767345z" style="fill:rgb(139,40,220)"/><path d="M31.385281820151455,31.403312383736253L0.7982857388763722,63.19219628668955L38.220777219540636,45.08496897346369z" style="fill:rgb(162,50,222)"/><path d="M38.220777219540636,45.08496897346369L66.02558022916142,8.30353906820395L31.385281820151455,31.403312383736253z" style="fill:rgb(183,62,221)"/><path d="M0.7982857388763722,63.19219628668955L31.385281820151455,31.403312383736253L-6.543265953477369,49.77336206250296z" style="fill:rgb(162,50,222)"/></svg>
